<svg width="167" height="33" viewBox="0 0 167 33" fill="none" xmlns="http://www.w3.org/2000/svg">
<path fill-rule="evenodd" clip-rule="evenodd" d="M126.414 9.79486C126.305 9.68535 126.177 9.70024 126.051 9.71479C126.008 9.71977 125.965 9.72471 125.924 9.7246C124.997 9.72255 124.069 9.72269 123.142 9.72283C121.435 9.72309 119.728 9.72335 118.021 9.70991C117.611 9.70669 117.501 9.80309 117.502 10.2343C117.509 13.838 117.511 17.4416 117.512 21.0453C117.514 24.3622 117.515 27.6792 117.521 30.9961C117.521 31.4056 117.45 31.5391 117.016 31.5354C114.131 31.5121 111.246 31.5159 108.361 31.533C107.999 31.535 107.928 31.4296 107.929 31.0774C107.935 28.8967 107.936 26.716 107.937 24.5353C107.938 22.0969 107.939 19.6584 107.946 17.22C107.948 16.8232 107.861 16.7093 107.464 16.7161C106.692 16.7293 105.921 16.728 105.149 16.7268C104.4 16.7256 103.65 16.7244 102.901 16.7364C102.489 16.7429 102.343 16.6577 102.347 16.1937C102.371 13.5866 102.368 10.9791 102.35 8.37207C102.347 7.97241 102.445 7.86736 102.838 7.86857C105.129 7.87592 107.42 7.87701 109.711 7.87811C112.124 7.87927 114.537 7.88043 116.951 7.88889C117.378 7.8905 117.488 7.77821 117.483 7.3391C117.47 6.1707 117.471 5.00212 117.471 3.83352C117.472 2.84547 117.472 1.8574 117.464 0.869426C117.461 0.484251 117.538 0.347006 117.947 0.350024C120.628 0.369746 123.31 0.367935 125.991 0.351232C126.348 0.349018 126.435 0.449034 126.434 0.807242C126.421 3.20053 126.423 5.59398 126.426 7.98744C126.426 8.34614 126.426 8.70483 126.426 9.06353C126.427 9.11709 126.424 9.17089 126.422 9.22475C126.416 9.39526 126.409 9.56635 126.471 9.73209C126.471 9.73184 126.471 9.73159 126.471 9.73134C128.012 8.27859 129.881 7.53339 131.904 7.19732C135.709 6.56523 139.191 7.59256 142.491 9.48241C142.704 9.60476 142.726 9.71242 142.636 9.92936C141.848 11.8339 141.063 13.74 140.293 15.6526C140.17 15.9579 140.048 15.9233 139.815 15.7921C138.469 15.033 137.087 14.3546 135.578 14.0061C135.09 13.8934 134.596 13.7992 134.09 13.9332C133.689 14.0393 133.418 14.2588 133.343 14.6939C133.263 15.1542 133.452 15.4723 133.838 15.686C134.347 15.9684 134.902 16.1075 135.455 16.2465C135.6 16.2828 135.744 16.319 135.888 16.3578C137.009 16.6607 138.109 17.0199 139.141 17.5725C141.397 18.7797 142.567 20.7541 142.746 23.2911C143.043 27.4731 140.598 30.8081 136.453 31.9064C132.602 32.9267 128.876 32.3924 125.282 30.7181C124.426 30.3198 123.6 29.8634 122.774 29.4056C122.555 29.2839 122.498 29.1794 122.609 28.9244C123.431 27.0348 124.242 25.1403 125.037 23.2382C125.161 22.94 125.265 23.0017 125.469 23.1247C126.998 24.0444 128.577 24.8507 130.307 25.2985C130.979 25.4726 131.66 25.5659 132.354 25.4474C132.998 25.3377 133.417 24.9612 133.463 24.4464C133.512 23.8973 133.228 23.4761 132.56 23.2674C132.069 23.1142 131.572 22.9812 131.075 22.8482C130.589 22.718 130.102 22.5877 129.621 22.4385C127.271 21.7094 125.445 20.3528 124.556 17.8947C123.537 15.0755 124.278 11.821 126.414 9.79486ZM25.9551 31.5242C25.1616 31.5242 24.3716 31.5239 23.5842 31.5237H23.5828H23.5827H23.5826C20.7831 31.5227 18.0174 31.5217 15.2519 31.5331C14.9637 31.5343 14.8961 31.363 14.827 31.1878C14.8148 31.1568 14.8025 31.1257 14.789 31.0954C13.6927 28.6455 12.5995 26.1941 11.5063 23.7428L10.3535 21.1581C10.141 20.6818 9.92433 20.2072 9.61927 19.7452V20.1928C9.61918 20.9947 9.61879 21.7967 9.61841 22.5986V22.5986V22.5987V22.5987C9.61706 25.4187 9.6157 28.2388 9.62731 31.0587C9.62887 31.4433 9.52633 31.5347 9.16049 31.5326C6.259 31.517 3.35752 31.5151 0.456233 31.5339C0.0696038 31.5363 0.000590874 31.4123 0.00117905 31.0483C0.010786 23.4822 0.0111781 15.9162 1.34343e-06 8.35016C-0.000389423 7.97424 0.0843083 7.86698 0.461919 7.8694C3.3634 7.88691 6.26489 7.88691 9.16617 7.87C9.54202 7.86779 9.62868 7.97626 9.62711 8.34976C9.61656 11.1611 9.61746 13.9725 9.61836 16.8041V16.8081V16.8122V16.8163C9.61862 17.6106 9.61887 18.4065 9.61887 19.2045C9.76971 19.1217 9.8149 18.9923 9.85776 18.8696C9.87044 18.8333 9.88291 18.7975 9.89787 18.7637L10.5387 17.3155C11.864 14.3201 13.1894 11.3247 14.5041 8.3246C14.6515 7.98793 14.8227 7.86618 15.1966 7.86839C17.7492 7.88314 20.302 7.88172 22.8547 7.8803H22.855H22.855H22.855H22.855C23.6114 7.87988 24.3677 7.87946 25.124 7.87946H25.5383C25.5458 8.05172 25.4788 8.17701 25.4144 8.29733C25.3965 8.33092 25.3787 8.36412 25.3628 8.39785L25.2956 8.54068L25.2947 8.54267L25.2946 8.54291L25.2944 8.54316C23.6431 12.051 21.9918 15.5588 20.329 19.061C20.1928 19.3481 20.192 19.5721 20.3316 19.8591C21.8984 23.0809 23.4563 26.3072 25.0143 29.5336L25.0159 29.537L25.7791 31.1173C25.8145 31.1906 25.8461 31.266 25.8851 31.3589L25.8852 31.359L25.8852 31.3591L25.8854 31.3596L25.8858 31.3605C25.9063 31.4094 25.9289 31.4633 25.9551 31.5242ZM65.7898 15.1944L65.7906 15.192C66.5069 12.8815 67.2183 10.5868 67.919 8.28858C68.0139 7.97726 68.1307 7.86779 68.4613 7.8698C71.0805 7.88671 73.6998 7.8863 76.319 7.87061C76.6646 7.8686 76.753 7.97606 76.803 8.31978C77.2341 11.2899 77.6757 14.2584 78.1173 17.2269L78.1174 17.2274L78.1175 17.2278L78.1185 17.2347C78.3243 18.6179 78.5301 20.0011 78.7348 21.3845C78.9753 23.0097 79.2124 24.6355 79.4494 26.2612L79.4503 26.2673L79.4512 26.2737L79.4518 26.2776L79.4524 26.2815L79.453 26.2854C79.6019 27.3066 79.7508 28.3279 79.9006 29.349C79.9185 29.4704 79.9419 29.5909 79.9707 29.739L79.9708 29.7394C79.9859 29.8169 80.0024 29.9018 80.0204 29.9984C80.263 29.2834 80.5023 28.5788 80.7392 27.8811L80.7543 27.8366L80.7595 27.8214L80.7625 27.8126L80.7734 27.7804C81.2375 26.4138 81.6928 25.0731 82.1466 23.732L82.6198 22.3335L82.6275 22.3105C84.2056 17.6461 85.7836 12.9817 87.3534 8.31454C87.4593 8.00001 87.5824 7.86598 87.9388 7.86839C90.8403 7.88751 93.742 7.88711 96.6435 7.8688C96.995 7.86658 97.1175 7.99719 97.2234 8.31072C99.3175 14.5115 101.418 20.7099 103.519 26.9083L104.905 30.9982C105.082 31.5226 105.082 31.5232 104.527 31.5232C103.841 31.5232 103.154 31.523 102.468 31.5227H102.467C100.158 31.5218 97.849 31.5209 95.54 31.532C95.2093 31.5337 95.0954 31.4363 95.0122 31.1046C94.3728 28.5506 93.7208 26 93.0687 23.4494C92.8515 22.5997 92.6343 21.7501 92.4176 20.9003C92.4117 20.8773 92.4069 20.8539 92.4021 20.8305C92.381 20.7285 92.3598 20.6256 92.2523 20.551C92.0621 21.2988 91.8717 22.0463 91.6814 22.7936L91.6702 22.8377L91.6609 22.8743C90.9678 25.5956 90.2755 28.3138 89.5947 31.035C89.5026 31.4039 89.3795 31.5367 88.9813 31.5355C83.3508 31.5182 77.7202 31.5178 72.0896 31.5353C71.6529 31.5367 71.5573 31.3894 71.5028 30.9786C71.2297 28.9197 70.9389 26.8634 70.6476 24.8034C70.5534 24.1379 70.4593 23.472 70.3656 22.8055C70.2386 22.8294 70.2244 22.9236 70.2106 23.0151L70.2105 23.0152L70.2105 23.0153L70.2105 23.0154C70.2066 23.0414 70.2027 23.0672 70.1962 23.091C70.0454 23.6479 69.8943 24.2047 69.7431 24.7615C69.1724 26.864 68.6017 28.9663 68.0488 31.0736C67.9517 31.4431 67.8078 31.5379 67.4496 31.5329C65.8972 31.5105 64.344 31.5083 62.7918 31.5345C62.4178 31.5409 62.2909 31.4111 62.1988 31.0603C61.5153 28.4573 60.8128 25.8593 60.1076 23.2623C60.0994 23.2322 60.0937 23.2002 60.0878 23.1673V23.1672C60.0665 23.0477 60.0429 22.915 59.89 22.8101L59.7356 23.9034C59.6151 24.7568 59.4963 25.5982 59.3784 26.4397L59.2538 27.3285C59.072 28.6236 58.8902 29.9188 58.7185 31.2153C58.6856 31.4656 58.5854 31.5284 58.3556 31.5278C55.6894 31.5214 53.023 31.5186 50.3568 31.5304C50.0419 31.5319 50.0392 31.3916 50.0752 31.1509C50.4366 28.7519 50.7952 26.3523 51.1508 23.9523C51.6665 20.4717 52.1799 16.9904 52.6924 13.5092C52.9522 11.7447 53.2108 9.98021 53.4624 8.21453C53.498 7.96439 53.5919 7.87141 53.8535 7.87262C56.5354 7.88308 59.2175 7.88449 61.8994 7.87182C62.198 7.87041 62.2505 8.02597 62.3221 8.2592C63.1861 11.0754 64.0582 13.8891 64.9328 16.7018C64.9442 16.7385 64.9534 16.7764 64.9628 16.8151L64.9629 16.8153C64.9951 16.9475 65.0295 17.089 65.1608 17.2243C65.3695 16.5501 65.578 15.8778 65.786 15.2068L65.7898 15.1944ZM145.177 14.1297C145.176 14.7665 145.176 15.4034 145.176 16.0402H145.203C145.203 16.8262 145.193 17.6128 145.182 18.3994C145.159 20.1575 145.136 21.9156 145.229 23.6672C145.43 27.4441 147.237 30.1699 150.745 31.5385C153.596 32.651 156.537 32.6629 159.491 32.0469C161.387 31.6516 163.086 30.8298 164.437 29.3661C166.13 27.5318 166.73 25.2705 166.742 22.8198C166.754 20.2132 166.753 17.6065 166.753 14.9999C166.752 12.7781 166.752 10.5563 166.759 8.3345C166.76 7.93001 166.63 7.86903 166.282 7.87064C163.444 7.88372 160.606 7.88694 157.768 7.86843C157.354 7.86561 157.22 7.95154 157.222 8.40856C157.236 11.8988 157.235 15.3892 157.234 18.8796C157.234 19.9924 157.233 21.1051 157.233 22.2179V22.2353V22.2354C157.234 22.4871 157.234 22.7372 157.168 22.984C157.007 23.5934 156.476 23.9954 155.875 23.954C155.268 23.9123 154.778 23.4515 154.707 22.8323C154.682 22.6088 154.682 22.3817 154.682 22.1556L154.682 22.0611L154.682 19.9243C154.68 16.0656 154.679 12.2069 154.69 8.34819C154.691 7.96563 154.595 7.86722 154.223 7.86923C151.37 7.88573 148.516 7.88674 145.662 7.86863C145.277 7.86621 145.163 7.95657 145.166 8.36287C145.18 10.2832 145.178 12.2035 145.177 14.124V14.1297Z" fill="#0F1471"/>
<path fill-rule="evenodd" clip-rule="evenodd" d="M40.4819 19.7005C40.4803 17.7241 38.9085 16.1052 36.9879 16.1015C35.0671 16.0979 33.4947 17.7107 33.4876 19.6917C33.4804 21.693 35.0645 23.3241 37.003 23.3114C38.9255 23.2987 40.4834 21.6815 40.4819 19.7005ZM36.9926 32.4249C30.1564 32.4326 24.5966 26.7564 24.5791 19.752C24.5615 12.716 30.1084 6.99496 36.9517 6.99133C43.822 6.98751 49.3754 12.6546 49.3907 19.6854C49.406 26.7081 43.8496 32.4175 36.9926 32.4249Z" fill="#0F1471"/>
</svg>
