<svg width="156" height="42" viewBox="0 0 156 42" fill="none" xmlns="http://www.w3.org/2000/svg">
<path fill-rule="evenodd" clip-rule="evenodd" d="M93.5331 22.3877C93.6419 22.3928 93.712 22.3989 93.7823 22.3989C95.1881 22.3995 96.594 22.3944 97.9997 22.4044C98.2302 22.406 98.2461 22.3527 98.1587 22.1561C97.5221 20.7263 96.8936 19.2928 96.2628 17.8605C96.0946 17.4789 95.9278 17.0968 95.7362 16.6599C94.9897 18.6009 94.2653 20.4839 93.5331 22.3877ZM105.66 24.7184C105.66 24.6242 105.66 24.53 105.66 24.4358C105.66 20.5243 105.662 16.6128 105.655 12.7015C105.654 12.4591 105.709 12.3913 105.956 12.3922C108.485 12.4025 111.013 12.3997 113.541 12.396C113.719 12.3956 113.827 12.4347 113.948 12.5991C115.22 14.3195 116.509 16.0269 117.795 17.737C118.654 18.8795 119.515 20.0204 120.373 21.1632C120.414 21.2177 120.433 21.3195 120.513 21.2957C120.615 21.2659 120.564 21.1577 120.564 21.0867C120.567 18.9646 120.566 16.8427 120.566 14.7206C120.566 14.0192 120.571 13.3178 120.563 12.6166C120.561 12.4526 120.604 12.4023 120.771 12.4029C122.685 12.4086 124.599 12.4113 126.513 12.4005C126.756 12.3991 126.712 12.5358 126.712 12.6734C126.713 17.0974 126.713 21.5213 126.713 25.9452C126.713 26.9343 126.709 27.9234 126.717 28.9125C126.718 29.0855 126.677 29.1376 126.499 29.1372C124.122 29.1311 121.745 29.1327 119.368 29.1339C119.226 29.1341 119.131 29.1018 119.032 28.9675C118.385 28.0899 117.717 27.2275 117.059 26.358C116.16 25.1709 115.264 23.9814 114.367 22.7935C113.678 21.8817 112.988 20.9709 112.3 20.0591C112.096 19.7895 111.896 19.5176 111.689 19.2407C111.61 19.3359 111.648 19.4381 111.648 19.5303C111.646 22.6236 111.643 25.7167 111.652 28.8098C111.653 29.0519 111.59 29.0993 111.361 29.0987C108.067 29.0904 104.773 29.0932 101.479 29.0932C100.959 29.0932 100.974 29.0845 100.793 28.6049C100.581 28.0429 100.284 27.5089 100.119 26.9351C99.9941 26.5052 99.7441 26.5196 99.4151 26.5206C96.9758 26.528 94.5364 26.5277 92.0971 26.5196C91.8775 26.519 91.7782 26.5827 91.6937 26.7951C91.4065 27.5175 91.0886 28.2278 90.7816 28.9424C90.736 29.0483 90.6971 29.138 90.5415 29.1374C88.565 29.1305 86.5887 29.1323 84.6122 29.1313C84.5955 29.1313 84.5785 29.1217 84.5445 29.1115C84.6315 28.6973 84.8322 28.3245 84.9765 27.932C85.0195 27.8154 85.1175 27.6304 85.069 27.5934C84.9574 27.5087 84.8523 27.6609 84.7618 27.7279C84.0321 28.2693 83.2218 28.6564 82.3727 28.9473C81.9833 29.0808 81.5573 29.1345 81.1631 29.2532C80.7011 29.3923 80.2315 29.407 79.7715 29.4367C78.9216 29.4914 78.0658 29.4432 77.2124 29.4479C76.5503 29.4516 75.8889 29.4434 75.2334 29.3411C74.831 29.2784 74.429 29.2092 74.0316 29.1205C73.2447 28.9447 72.4836 28.6771 71.7693 28.3058C70.4067 27.5978 69.3771 26.5206 68.5581 25.2265C68.516 25.1604 68.4615 25.102 68.423 25.0344C68.3731 24.9463 68.3626 24.7923 68.2433 24.8075C68.1307 24.8214 68.1358 24.9799 68.1058 25.0739C67.8981 25.7275 67.5426 26.3076 67.1148 26.8181C66.6083 27.4229 65.9375 27.8465 65.2295 28.1914C64.204 28.6911 63.1114 28.9577 61.992 29.1341C61.8148 29.162 61.6437 29.2328 61.4606 29.2591C61.1591 29.3026 60.8581 29.3313 60.5538 29.3482C59.7596 29.3928 58.9651 29.4005 58.1704 29.4037C57.379 29.4068 56.5856 29.4336 55.7965 29.3881C55.1235 29.3494 54.452 29.2701 53.7842 29.1333C53.2805 29.0301 52.764 28.9565 52.2666 28.8326C51.9066 28.743 51.541 28.6191 51.1956 28.4651C50.3012 28.0665 49.4268 27.6404 48.7503 26.8871C48.1789 26.251 47.7903 25.538 47.6464 24.6844C47.5999 24.4077 47.5648 24.1316 47.5329 23.8538C47.5123 23.6735 47.5796 23.6261 47.7523 23.6281C48.4822 23.6365 49.2123 23.632 49.9424 23.632C51.4913 23.632 53.0405 23.632 54.5896 23.632C54.7105 23.632 54.8365 23.597 54.847 23.8001C54.8963 24.7564 55.4424 25.3337 56.2967 25.6277C57.2012 25.9391 58.1338 26.0428 59.078 25.8294C59.5988 25.7118 60.0526 25.458 60.4486 25.0875C61.3131 24.2789 60.7405 23.1111 59.8751 22.8393C58.7726 22.4933 57.6519 22.5434 56.5325 22.496C55.5378 22.4541 54.5435 22.4319 53.55 22.3409C52.6811 22.2612 51.8527 22.0439 51.065 21.699C50.2576 21.3455 49.5472 20.8529 49.0199 20.0927C48.6541 19.5651 48.4709 19.0026 48.3428 18.3922C48.2782 18.0831 48.2383 17.7691 48.2402 17.4639C48.2468 16.43 48.4789 15.4444 49.0976 14.6003C49.5012 14.0495 50.0103 13.5992 50.6162 13.2686C51.8034 12.6205 53.0872 12.2939 54.4092 12.0957C56.1024 11.8419 57.8073 11.797 59.5132 11.8808C60.9977 11.9539 62.4668 12.1504 63.8748 12.6724C65.0651 13.1139 66.1318 13.7304 66.8458 14.8358C67.3167 15.565 67.5132 16.3747 67.5141 17.2405C67.5143 17.3854 67.4698 17.4196 67.3323 17.4193C65.1156 17.4153 62.8988 17.4153 60.6819 17.4196C60.5405 17.4198 60.5028 17.3762 60.5006 17.238C60.4973 17.0411 60.4778 16.8427 60.4444 16.6486C60.2946 15.7756 59.792 15.2336 58.9301 15.0514C58.0995 14.8758 57.2672 14.8813 56.4482 15.1119C55.6579 15.3345 55.2411 15.8477 55.223 16.5476C55.2105 17.0323 55.4114 17.3996 55.8029 17.6603C56.3434 18.0204 56.9594 18.0984 57.5877 18.1236C58.9655 18.1787 60.346 18.1346 61.7223 18.2331C62.5558 18.2929 63.3966 18.3303 64.2169 18.4766C65.4018 18.6878 66.4038 19.304 67.286 20.121C67.3448 20.1755 67.4028 20.2306 67.4622 20.2842C67.4674 20.289 67.4795 20.286 67.5091 20.2878C67.5798 19.8166 67.667 19.3451 67.718 18.8696C67.7781 18.3059 67.9399 17.7726 68.1132 17.2378C68.3805 16.4131 68.7693 15.6574 69.2777 14.958C69.9723 14.0023 70.8848 13.3298 71.9377 12.8396C72.931 12.3771 73.9857 12.1284 75.0644 11.9823C76.2637 11.8198 77.4687 11.7736 78.6783 11.8253C79.1136 11.8438 79.5563 11.8411 79.9823 11.8981C80.6185 11.9832 81.2476 12.1547 81.8809 12.264C82.3386 12.3429 82.7685 12.5053 83.1937 12.6467C83.7895 12.8449 84.3529 13.1625 84.9037 13.4853C85.5479 13.8631 86.1246 14.3307 86.6152 14.8848C87.0741 15.4033 87.391 16.0253 87.6455 16.6771C87.7902 17.0478 87.8826 17.4364 87.9375 17.8202C87.9714 18.0566 87.9307 18.3204 87.9459 18.5741C87.9527 18.6889 87.8797 18.7603 87.7263 18.7597C85.6342 18.7523 83.542 18.753 81.4499 18.7587C81.3009 18.7593 81.2688 18.7096 81.2404 18.5719C81.0903 17.8428 80.8216 17.1552 80.2276 16.6878C79.8071 16.357 79.3416 16.1073 78.7811 15.9885C78.0397 15.8316 77.3191 15.808 76.5999 15.9816C75.9314 16.1431 75.3193 16.4433 74.8781 17.0158C74.3879 17.6513 74.0881 18.369 73.9529 19.1601C73.7767 20.1926 73.6882 21.2342 73.9286 22.2612C74.4556 24.5131 76.1615 25.6121 78.4421 25.3231C80.0415 25.1203 80.8892 24.1065 81.283 22.6185C81.3387 22.4083 81.4236 22.3621 81.6247 22.3631C83.3962 22.3715 85.1679 22.3639 86.9396 22.3737C87.1498 22.3747 87.2499 22.3173 87.327 22.1155C87.7763 20.9377 88.2305 19.7616 88.6851 18.5859C89.1717 17.327 89.6991 16.0845 90.1706 14.8191C90.4459 14.0808 90.7537 13.355 91.0421 12.6215C91.1038 12.4644 91.1926 12.4019 91.3695 12.4023C94.352 12.4082 97.3345 12.408 100.317 12.4029C100.493 12.4027 100.567 12.4504 100.638 12.6254C101.391 14.4852 102.161 16.3378 102.923 18.1942C103.782 20.2888 104.636 22.3851 105.494 24.4805C105.529 24.5662 105.574 24.6476 105.615 24.7312C105.63 24.7269 105.645 24.7227 105.66 24.7184Z" fill="#15214E"/>
<path fill-rule="evenodd" clip-rule="evenodd" d="M144.236 16.8977C144.202 16.9042 144.19 16.9036 144.188 16.9075C143.48 18.6843 142.774 20.4623 142.062 22.2377C141.997 22.3996 142.073 22.4002 142.187 22.3974C142.373 22.3927 142.56 22.3884 142.746 22.3876C143.956 22.3829 145.165 22.3793 146.374 22.3748C146.695 22.3736 146.696 22.3722 146.559 22.0673C146.061 20.9582 145.563 19.8494 145.065 18.7408C144.788 18.1243 144.51 17.5082 144.236 16.8977ZM128.078 29.0176C128.08 28.9098 128.084 28.8021 128.084 28.6943C128.084 23.4079 128.084 18.1217 128.084 12.8354C128.084 12.7276 128.08 12.6199 128.078 12.5121C128.095 12.4688 128.083 12.4102 128.143 12.3904C130.154 12.3925 132.166 12.3994 134.178 12.3912C134.422 12.3902 134.482 12.4519 134.482 12.6989C134.468 16.6991 134.465 20.6995 134.46 24.6998C134.463 24.7317 134.466 24.7637 134.469 24.7956C134.519 24.7842 134.541 24.7514 134.539 24.7006C134.823 23.8987 135.141 23.111 135.473 22.3282C135.717 21.7517 135.933 21.1633 136.166 20.5819C136.504 19.7385 136.847 18.8973 137.184 18.0537C137.417 17.4721 137.639 16.8861 137.873 16.305C138.119 15.6951 138.376 15.0896 138.623 14.4798C138.825 13.9798 139.031 13.4807 139.208 12.9716C139.259 12.8257 139.363 12.7078 139.381 12.54C139.393 12.4272 139.527 12.4004 139.655 12.4016C140.491 12.4085 141.328 12.4051 142.165 12.4051C144.354 12.4051 146.544 12.4069 148.733 12.4016C148.902 12.4012 149.005 12.4307 149.075 12.6083C149.858 14.5848 150.649 16.5579 151.438 18.5319C152.437 21.0318 153.434 23.5322 154.435 26.0311C154.829 27.0152 155.231 27.9961 155.629 28.9786C155.645 29.0186 155.652 29.0622 155.671 29.1316H155.369C153.536 29.1316 151.702 29.1316 149.869 29.1316C149.393 29.1316 149.382 29.1362 149.213 28.6827C148.957 27.9972 148.587 27.3647 148.334 26.6794C148.287 26.5527 148.189 26.5968 148.11 26.5964C147.496 26.5927 146.882 26.5942 146.268 26.5942C144.417 26.5944 142.565 26.5944 140.714 26.5942C140.284 26.5942 140.316 26.6086 140.154 26.981C139.859 27.6555 139.599 28.3431 139.322 29.0245C139.29 29.1041 139.254 29.1395 139.17 29.1326C139.108 29.1277 139.045 29.1316 138.983 29.1316C135.459 29.1316 131.934 29.1316 128.409 29.132C128.321 29.132 128.232 29.1356 128.143 29.1375C128.082 29.119 128.094 29.0602 128.078 29.0176Z" fill="#15214E"/>
<mask id="mask0" mask-type="alpha" maskUnits="userSpaceOnUse" x="0" y="0" width="44" height="42">
<path fill-rule="evenodd" clip-rule="evenodd" d="M0.625 0H43.6258V41.3237H0.625V0Z" fill="white"/>
</mask>
<g mask="url(#mask0)">
<path fill-rule="evenodd" clip-rule="evenodd" d="M22.0399 40.768C24.3892 40.7586 26.5386 40.4503 28.635 39.7829C28.7885 39.7339 28.864 39.6626 28.908 39.5017C29.2106 38.3933 29.553 37.2972 29.9186 36.2082C29.9772 36.0332 30.0713 35.9298 30.2373 35.8478C32.473 34.7449 34.423 33.2567 36.0422 31.3488C39.3574 27.4424 40.8304 22.9062 40.5211 17.7761C40.511 17.6086 40.5511 17.4914 40.6583 17.3669C41.4005 16.5054 42.161 15.6611 42.9504 14.8433C43.0472 14.7432 43.1072 14.662 43.0702 14.4962C42.088 10.0896 39.9777 6.33737 36.7065 3.25254C36.5658 3.11981 36.4429 3.08756 36.2589 3.13691C35.2101 3.4185 34.1475 3.6407 33.0855 3.86467C32.8503 3.91422 32.6743 3.86978 32.4726 3.73371C28.7558 1.22561 24.6647 0.200541 20.2225 0.657917C17.1824 0.970963 14.3962 2.01943 11.867 3.75475C11.7344 3.84579 11.6176 3.88118 11.4495 3.84756C10.3501 3.62733 9.25694 3.37976 8.17116 3.09995C7.97491 3.04921 7.84953 3.08107 7.70078 3.22147C4.42804 6.3124 2.28625 10.0581 1.28769 14.471C1.2505 14.6358 1.29684 14.7353 1.40606 14.8478C2.19747 15.6635 2.96105 16.5051 3.70185 17.3681C3.81262 17.4971 3.86636 17.6168 3.85273 17.7989C3.74838 19.1933 3.77972 20.5878 4.01724 21.9647C5.11062 28.306 8.51147 32.9372 14.1814 35.869C14.3298 35.9459 14.41 36.0417 14.4622 36.1968C14.8255 37.2772 15.1672 38.3642 15.4681 39.4638C15.5112 39.6207 15.5766 39.7046 15.732 39.7536C17.8366 40.4169 19.9894 40.7621 22.0399 40.768ZM7.75448 2.44238C8.11252 2.52752 8.47289 2.60382 8.82801 2.69978C9.65875 2.92374 10.5033 3.08499 11.3415 3.27553C11.4435 3.29873 11.5324 3.28241 11.6351 3.21339C13.016 2.2833 14.4937 1.5526 16.0674 1.01322C16.6686 0.807345 17.2764 0.634698 17.8934 0.491744C18.9949 0.236509 20.1107 0.107319 21.2393 0.0318108C22.0416 -0.021871 22.8391 -0.00417368 23.6323 0.0591433C25.7992 0.23238 27.8856 0.748158 29.874 1.65347C30.872 2.1077 31.8285 2.63213 32.7336 3.2535C32.8031 3.30129 32.868 3.34002 32.9743 3.31839C33.8671 3.13651 34.7563 2.94085 35.6394 2.71315C35.8792 2.6514 36.1279 2.60421 36.3592 2.52162C36.5862 2.44081 36.7047 2.52654 36.862 2.66753C38.2823 3.93957 39.5003 5.38839 40.5319 6.99196C41.9966 9.26862 43.0187 11.7348 43.5952 14.3928C43.6731 14.752 43.6046 14.9494 43.3655 15.1927C42.5964 15.9749 41.8619 16.7909 41.1481 17.6259C41.0652 17.723 41.0619 17.8168 41.0701 17.9212C41.1328 18.7304 41.1369 19.5403 41.0631 20.3475C41.03 20.7085 41.021 21.0703 40.9774 21.4329C40.6824 23.8864 39.9387 26.1876 38.7694 28.3516C38.0787 29.6301 37.2407 30.8031 36.2834 31.8948C35.6824 32.5801 35.0353 33.218 34.3542 33.8126C33.5924 34.4774 32.7496 35.0429 31.8846 35.5707C31.4884 35.8124 31.0996 36.0676 30.6689 36.2389C30.338 36.3704 30.3175 36.6886 30.236 36.9454C29.911 37.9691 29.5785 38.9914 29.3172 40.0346C29.2935 40.1291 29.2413 40.1624 29.1576 40.1872C28.5597 40.3653 27.9688 40.5657 27.36 40.7077C26.6609 40.8707 25.9485 40.9635 25.2484 41.1133C24.4829 41.2769 23.7092 41.2427 22.9399 41.3009C22.1493 41.3605 21.3575 41.2873 20.5659 41.2643C19.6561 41.238 18.7652 41.1072 17.8809 40.8945C17.6864 40.8479 17.4421 40.8795 17.2698 40.815C16.9692 40.7023 16.6586 40.6451 16.3565 40.5509C16.0095 40.4428 15.6618 40.3368 15.3135 40.2322C15.0688 40.1586 14.9395 40.0068 14.9498 39.7378C14.9555 39.588 14.8747 39.445 14.8321 39.3125C14.5326 38.3824 14.3237 37.4226 13.9456 36.5177C13.9069 36.4251 13.8658 36.375 13.7838 36.3331C12.5069 35.6816 11.3045 34.911 10.2004 33.9921C9.48256 33.3949 8.81905 32.7415 8.18864 32.0444C7.32695 31.0913 6.57447 30.0631 5.91486 28.9675C5.57064 28.3955 5.24551 27.8075 4.98112 27.185C4.67955 26.4751 4.37603 25.7682 4.14687 25.0312C3.94303 24.3758 3.77093 23.7133 3.62997 23.0395C3.52367 22.5312 3.43684 22.0195 3.36461 21.5083C3.26337 20.7915 3.22891 20.0659 3.24818 19.3392C3.26103 18.8548 3.24526 18.3699 3.25072 17.8854C3.25208 17.769 3.21665 17.6888 3.1413 17.6015C2.51907 16.88 1.88126 16.1731 1.21776 15.4902C1.04449 15.3118 0.882309 15.1225 0.709813 14.9435C0.649265 14.8808 0.608185 14.8173 0.631743 14.7308C0.888344 13.7848 1.08751 12.8236 1.41732 11.8971C1.7993 10.8242 2.22684 9.77181 2.76224 8.76877C3.47636 7.43183 4.29893 6.16707 5.26479 4.99688C5.82647 4.31632 6.41385 3.6631 7.04231 3.04664C7.23194 2.86062 7.43052 2.68404 7.62618 2.50452C7.66376 2.46991 7.69355 2.418 7.75448 2.44238Z" fill="#192551"/>
</g>
<path fill-rule="evenodd" clip-rule="evenodd" d="M34.0391 4.91532C37.3998 7.86369 39.4845 11.505 40.3015 15.9142C40.7882 15.3837 41.2504 14.8775 41.7157 14.3743C41.8015 14.2813 41.7533 14.1909 41.7301 14.0977C41.5617 13.4177 41.3578 12.7487 41.1188 12.0908C40.0782 9.22913 38.4866 6.72536 36.3337 4.58753C36.2636 4.51812 36.2155 4.40446 36.0747 4.43808C35.4095 4.59716 34.7429 4.75093 34.0391 4.91532ZM4.06452 15.9278C4.88786 11.4761 6.99538 7.81806 10.3742 4.8756C9.6788 4.71376 9.02133 4.56609 8.36756 4.40406C8.22874 4.36985 8.1719 4.45086 8.09811 4.52322C7.45232 5.15659 6.85306 5.83223 6.29878 6.54838C4.55513 8.80125 3.33131 11.3133 2.62478 14.0821C2.59947 14.181 2.5469 14.2825 2.64191 14.3847C3.10975 14.8873 3.57312 15.3939 4.06452 15.9278ZM15.8803 36.6121C16.0785 37.2689 16.2702 37.8753 16.4412 38.4877C16.4916 38.6684 16.5833 38.7429 16.7562 38.7907C17.9169 39.1104 19.093 39.3405 20.2914 39.4541C22.7976 39.6919 25.2635 39.4783 27.69 38.796C27.8346 38.7555 27.8866 38.6764 27.9252 38.5462C28.0982 37.9617 28.2807 37.38 28.4547 36.7956C28.4699 36.7447 28.5308 36.6888 28.4658 36.6208C24.288 38.0901 20.105 38.095 15.8803 36.6121ZM39.3657 18.9587C36.4053 22.3774 31.2913 31.371 30.6664 34.2481C33.3726 32.6638 35.5109 30.5337 37.0658 27.8162C38.6216 25.0979 39.3731 22.1619 39.3657 18.9587ZM13.744 34.2361C11.6041 28.6857 8.70696 23.629 5.01427 18.9669C4.91926 25.7365 8.82591 31.5493 13.744 34.2361ZM30.9786 4.22764C25.4243 0.799871 18.3414 1.12255 13.4611 4.20031C19.2989 5.14357 25.1098 5.12312 30.9786 4.22764ZM22.1934 36.5106C24.4526 36.4992 26.6294 36.07 28.7239 35.2101C28.9464 35.1188 29.0749 34.9936 29.16 34.7592C31.4081 28.561 34.6082 22.9093 38.7341 17.7912C39.2835 17.1095 39.286 17.1093 39.1293 16.2305C38.3365 11.7855 36.176 8.17037 32.6699 5.37105C32.5379 5.26565 32.4177 5.21138 32.2365 5.24383C29.0839 5.80857 25.905 6.08995 22.7043 6.11886C19.1621 6.15091 15.6471 5.84377 12.1606 5.21276C12.0029 5.18405 11.8964 5.21689 11.7751 5.31304C8.047 8.27242 5.82209 12.1088 5.15001 16.8578C5.11945 17.0731 5.15488 17.2247 5.29292 17.3922C9.60861 22.6279 12.9335 28.4422 15.2552 34.8394C15.3204 35.0193 15.4211 35.111 15.5883 35.1812C17.7031 36.0676 19.9066 36.4978 22.1934 36.5106ZM22.0402 40.7694C19.9897 40.7635 17.8368 40.418 15.7322 39.755C15.5769 39.706 15.5114 39.6219 15.4686 39.4649C15.1674 38.3655 14.8257 37.2783 14.4625 36.198C14.4105 36.0431 14.3303 35.9471 14.1819 35.8704C8.51174 32.9386 5.11109 28.3072 4.01751 21.9661C3.78019 20.5892 3.74865 19.1947 3.853 17.8003C3.86663 17.6182 3.81289 17.4985 3.70212 17.3695C2.96132 16.5064 2.19774 15.6648 1.40633 14.8492C1.29711 14.7367 1.25077 14.6372 1.28815 14.4724C2.28672 10.0595 4.42831 6.31378 7.70105 3.22285C7.8498 3.08245 7.97518 3.0506 8.17143 3.10113C9.25721 3.38095 10.3506 3.62851 11.45 3.84894C11.6178 3.88257 11.7346 3.84717 11.8672 3.75613C14.3966 2.02081 17.1829 0.972346 20.2228 0.6593C24.665 0.201923 28.756 1.22699 32.4729 3.73509C32.6748 3.87116 32.8506 3.9156 33.0857 3.86605C34.148 3.64208 35.2104 3.41988 36.2592 3.1383C36.4432 3.08894 36.566 3.12119 36.7068 3.25392C39.978 6.33875 42.0882 10.091 43.0704 14.4976C43.1074 14.6634 43.0475 14.7446 42.9507 14.8447C42.1614 15.6625 41.401 16.5068 40.6586 17.3683C40.5515 17.4928 40.5112 17.61 40.5214 17.7775C40.8307 22.9075 39.3577 27.4438 36.0425 31.3501C34.4233 33.2581 32.4732 34.7463 30.2376 35.8492C30.0717 35.9312 29.9777 36.0346 29.9189 36.2096C29.5535 37.2986 29.2108 38.3946 28.9083 39.5031C28.8645 39.6639 28.7889 39.7353 28.6355 39.7841C26.5391 40.4517 24.3895 40.76 22.0402 40.7694Z" fill="#D4D5D5"/>
<path fill-rule="evenodd" clip-rule="evenodd" d="M21.4376 11.6677C21.4516 11.6844 21.4654 11.7011 21.4795 11.7178C21.2807 12.084 21.0198 12.3982 20.7126 12.6766C19.8859 13.4254 18.6199 12.9433 18.2357 12.083C18.7437 12.0692 19.1447 11.8869 19.2861 11.3531C19.4039 10.9079 19.3585 10.4894 18.974 10.1793C18.5576 9.84368 18.1238 9.87612 17.6867 10.1642C17.8282 9.16941 17.133 8.34786 16.3354 8.57164C17.067 10.4045 17.7981 12.2358 18.5289 14.067C18.4645 14.1414 18.3808 14.2059 18.3393 14.2916C18.2159 14.5474 18.0691 14.5423 17.8193 14.4395C16.5904 13.9333 15.477 14.2053 14.7231 15.1743C14.0164 16.0824 13.7978 17.1723 13.5764 18.3358C13.7917 18.1801 13.9539 18.0599 14.1186 17.9439C14.7013 17.5341 15.3173 17.2002 16.04 17.1336C16.4296 17.0978 16.7682 17.19 17.0409 17.5141C17.4106 17.9532 17.8851 18.2544 18.4246 18.4436C18.6763 18.5317 18.9382 18.5907 19.1885 18.6821C19.8544 18.9251 19.8731 19.0671 19.3423 19.5385C19.1907 19.673 19.1231 19.647 19.0264 19.4873C18.2994 18.2871 16.9679 17.9746 15.8163 18.2385C15.4425 18.3242 15.0671 18.4017 14.6854 18.4249C13.2665 18.511 11.9418 18.253 10.8011 17.3243C10.6265 17.1822 10.4635 17.0148 10.2419 16.9387L10.225 16.9075C10.2246 16.9134 10.2219 16.9222 10.2244 16.9244C10.2308 16.9293 10.2396 16.9311 10.2474 16.9342C10.4181 17.4445 10.6617 17.9231 10.8975 18.4033C11.5845 19.8025 12.8403 20.4206 14.3641 20.1358C15.1267 19.9935 15.8484 19.6965 16.6087 19.5469C17.4759 19.3762 18.261 19.5215 18.7737 19.9516C18.0009 20.5891 17.376 20.7214 16.4422 20.4371C16.1274 20.3411 15.8136 20.2404 15.5048 20.1268C15.3364 20.0647 15.2943 20.1148 15.2817 20.2823C15.2077 21.2519 15.804 22.0688 16.7868 22.3191C16.9993 22.3734 17.2185 22.3997 17.4622 22.444C16.1705 23.6629 16.108 25.0681 16.7888 26.6215C17.1348 26.217 17.4486 25.8019 17.8847 25.5148L17.8812 25.5087C17.9468 25.6171 17.8504 25.6924 17.8187 25.7746C17.5045 26.5869 17.3752 27.4177 17.5426 28.2839C17.7936 29.5834 18.5357 30.568 19.5024 31.4088C19.6722 31.5565 19.8483 31.6965 20.0588 31.8709C20.0656 30.5367 20.1176 29.2696 20.6855 28.0876C20.7737 28.4459 20.845 28.8024 20.8874 29.1622C21.0393 30.4494 21.1012 31.7276 20.4211 32.9099C20.3405 33.0501 20.4254 33.0558 20.5296 33.0541C21.7935 33.0334 22.9196 32.6645 23.7663 31.6697C24.5398 30.7611 24.7107 29.6646 24.6387 28.5094C24.6243 28.2768 24.5961 28.0451 24.5678 27.7457C24.6823 27.8774 24.7567 27.9531 24.8198 28.0377C25.2331 28.5922 25.3433 29.2261 25.2823 29.9002C25.257 30.18 25.216 30.4583 25.1778 30.7717C26.1429 30.3542 26.9004 29.7504 27.4712 28.918C28.007 28.1362 28.2385 27.2704 28.1519 26.3171C28.0939 25.6804 27.8852 25.0926 27.6307 24.5161C27.6426 24.5069 27.6533 24.4964 27.6632 24.485C28.2418 24.7668 28.494 25.2899 28.6637 25.8717C28.7254 26.0831 28.7749 26.298 28.8401 26.5507C29.8214 25.1652 30.1418 23.6906 29.7592 22.0751C29.5241 21.0813 28.9892 20.2515 28.3285 19.4958C28.3425 19.4818 28.3565 19.4681 28.3705 19.4543C28.8166 19.5082 29.1427 19.7524 29.3899 20.1166C29.578 20.3938 29.76 20.6754 29.9448 20.955C29.9812 20.815 29.973 20.6943 29.9678 20.5735C29.9623 20.4479 29.9615 20.322 29.9551 20.1966C29.8638 18.4076 29.1033 16.9989 27.6087 16.0155C27.4625 15.9192 27.4411 15.8696 27.5563 15.7249C28.0651 15.0858 28.3982 14.3587 28.6005 13.5644C28.6575 13.3405 28.5858 13.2933 28.3834 13.2716C27.5653 13.1841 26.7912 13.3324 26.0486 13.6771C26.0742 13.6012 26.0963 13.5235 26.1261 13.4492C26.7521 11.8885 27.379 10.3282 28.0049 8.76749C28.104 8.52051 28.0839 8.49337 27.8205 8.52857C27.2623 8.6029 26.5457 9.12989 26.6985 9.96205C26.7092 10.0203 26.7445 10.0828 26.6956 10.1416L26.6991 10.1365C26.115 9.83719 25.6153 9.90562 25.2866 10.3351C25.0125 10.6931 25.0261 11.0907 25.1739 11.4852C25.3141 11.8588 25.6217 12.025 26.0011 12.0728C26.0566 12.0798 26.1238 12.0468 26.1662 12.1105C25.7541 12.9356 24.7255 13.2945 23.9927 12.8613C23.4976 12.5685 23.1725 12.1135 22.8403 11.565C23.4081 11.846 23.8685 11.8006 24.2351 11.3405C24.4993 11.0089 24.5283 10.5447 24.3097 10.1758C24.0167 9.68126 23.5722 9.56957 23.038 9.7076C23.3319 9.0121 23.262 8.53309 22.8254 8.19586C22.4576 7.91192 21.9485 7.91644 21.5875 8.20707C21.1611 8.5502 21.094 9.04612 21.3868 9.68912C21.3329 9.71862 21.2842 9.68637 21.2332 9.67614C20.4538 9.51864 19.8141 10.2035 20.0169 10.9775C20.1774 11.5896 20.7264 11.8563 21.4376 11.6677ZM22.1932 36.5115C19.9066 36.4988 17.7029 36.0687 15.5882 35.1821C15.4209 35.1121 15.3205 35.0202 15.2551 34.8405C12.9336 28.4433 9.60845 22.629 5.29275 17.3931C5.15472 17.2256 5.11928 17.0742 5.14985 16.8587C5.82192 12.1097 8.04704 8.27354 11.775 5.31415C11.8963 5.2178 12.0028 5.18516 12.1606 5.21367C15.6472 5.84488 19.1619 6.15202 22.7041 6.11997C25.9048 6.09087 29.0837 5.80948 32.2363 5.24474C32.4176 5.2123 32.5377 5.26657 32.6697 5.37197C36.1761 8.17128 38.3364 11.7864 39.1291 16.2316C39.2859 17.1102 39.2835 17.1104 38.7339 17.7921C34.608 22.9104 31.4079 28.5619 29.1598 34.7603C29.0749 34.9945 28.9463 35.1197 28.7237 35.2112C26.6292 36.0709 24.4526 36.5003 22.1932 36.5115Z" fill="#15214E"/>
<path fill-rule="evenodd" clip-rule="evenodd" d="M30.9784 4.22744C25.1096 5.12293 19.2987 5.14338 13.4609 4.20011C18.3412 1.12235 25.4241 0.799674 30.9784 4.22744Z" fill="#15214E"/>
<path fill-rule="evenodd" clip-rule="evenodd" d="M13.7451 34.2356C8.82701 31.5487 4.92036 25.736 5.01537 18.9666C8.70786 23.6284 11.6052 28.6851 13.7451 34.2356Z" fill="#15214E"/>
<path fill-rule="evenodd" clip-rule="evenodd" d="M39.3654 18.9581C39.3728 22.1613 38.6213 25.0971 37.0655 27.8156C35.5103 30.5331 33.3722 32.6633 30.666 34.2474C31.291 31.3704 36.4049 22.3769 39.3654 18.9581Z" fill="#15214E"/>
<path fill-rule="evenodd" clip-rule="evenodd" d="M15.8799 36.6122C20.1047 38.095 24.2876 38.0901 28.4654 36.6208C28.5305 36.6889 28.4695 36.7447 28.4543 36.7956C28.2803 37.38 28.0979 37.9617 27.9248 38.5463C27.886 38.6765 27.8343 38.7555 27.6896 38.796C25.2632 39.4784 22.7972 39.6919 20.291 39.4542C19.0927 39.3405 17.9163 39.1105 16.7556 38.7907C16.5827 38.7429 16.4912 38.6684 16.4408 38.4877C16.2698 37.8754 16.0781 37.2689 15.8799 36.6122Z" fill="#15214E"/>
<path fill-rule="evenodd" clip-rule="evenodd" d="M4.06597 15.9271C3.57458 15.3932 3.11121 14.8867 2.64357 14.3841C2.54836 14.2819 2.60113 14.1804 2.62624 14.0815C3.33277 11.3126 4.55679 8.80061 6.30043 6.54755C6.85452 5.8316 7.45397 5.15596 8.09957 4.52259C8.17355 4.45003 8.2304 4.36902 8.36902 4.40343C9.02298 4.56546 9.68026 4.71293 10.3757 4.87477C6.99684 7.81723 4.88932 11.4755 4.06597 15.9271Z" fill="#15214E"/>
<path fill-rule="evenodd" clip-rule="evenodd" d="M34.042 4.91496C34.7458 4.75057 35.4124 4.5968 36.0777 4.43772C36.2184 4.4041 36.2665 4.51775 36.3366 4.58716C38.4895 6.725 40.0811 9.22877 41.1217 12.0904C41.3608 12.7484 41.5646 13.4173 41.733 14.0973C41.7562 14.1905 41.8045 14.281 41.7186 14.374C41.2533 14.8772 40.7911 15.3833 40.3044 15.9138C39.4875 11.5046 37.4027 7.86333 34.042 4.91496Z" fill="#15214E"/>
<path fill-rule="evenodd" clip-rule="evenodd" d="M19.516 16.2934C19.8865 16.2889 20.1645 16.0629 20.3216 15.628C20.3413 15.5739 20.4324 15.4878 20.3214 15.4526C20.2433 15.428 20.1228 15.3893 20.0751 15.5263C20.0605 15.5684 20.0504 15.6124 20.0317 15.6525C19.8468 16.0472 19.3269 16.1034 19.0676 15.7564C19.0359 15.7141 19.0154 15.6634 18.9884 15.6173C18.9267 15.5125 18.8042 15.5037 18.7302 15.5361C18.6299 15.5802 18.7211 15.6787 18.7458 15.7432C18.8825 16.0989 19.1667 16.2975 19.516 16.2934ZM11.8137 18.6426C11.7964 18.6194 11.7775 18.6033 11.7549 18.6353C11.7539 18.6365 11.7775 18.6554 11.7895 18.666C12.1927 19.1971 12.7244 19.5043 13.3817 19.5782C13.8207 19.6278 14.2489 19.5485 14.6733 19.4386C15.4889 19.2276 16.2797 18.9085 17.1334 18.8493C16.7257 18.7203 16.3159 18.7472 15.9078 18.8436C15.4304 18.9562 14.9484 19.0239 14.4586 19.0483C13.5492 19.0935 12.6727 18.9291 11.8137 18.6426ZM26.0489 13.6771C26.7914 13.3324 27.5655 13.1839 28.3836 13.2716C28.5861 13.2933 28.6577 13.3405 28.6007 13.5644C28.3984 14.3584 28.0653 15.0858 27.5566 15.7247C27.4413 15.8696 27.4627 15.9192 27.6089 16.0153C29.1036 16.9989 29.864 18.4076 29.9553 20.1966C29.9618 20.322 29.9626 20.4479 29.968 20.5733C29.9733 20.6943 29.9814 20.8148 29.945 20.9548C29.7603 20.6754 29.5782 20.3938 29.3902 20.1166C29.1429 19.7524 28.8168 19.5082 28.3708 19.4543C28.3505 19.4313 28.3268 19.4195 28.3071 19.4504C28.3024 19.4576 28.3209 19.48 28.3287 19.4956C28.9897 20.2514 29.5243 21.0813 29.7595 22.0751C30.1421 23.6906 29.8216 25.165 28.8404 26.5507C28.7751 26.298 28.7257 26.0829 28.664 25.8715C28.4942 25.2899 28.2421 24.7666 27.6635 24.485C27.6526 24.4738 27.6348 24.4514 27.6321 24.453C27.6025 24.4719 27.6152 24.4945 27.6309 24.5161C27.8854 25.0924 28.0941 25.6804 28.1521 26.3169C28.2388 27.2702 28.0073 28.1362 27.4715 28.9178C26.9007 29.7504 26.1431 30.354 25.178 30.7715C25.2162 30.4583 25.2573 30.18 25.2826 29.9002C25.3435 29.2259 25.2333 28.5922 24.82 28.0375C24.7571 27.9531 24.6826 27.8774 24.5683 27.7455C24.5963 28.0451 24.6245 28.2768 24.6389 28.5094C24.711 29.6646 24.54 30.7609 23.7665 31.6697C22.9198 32.6643 21.7939 33.0334 20.5298 33.0541C20.4257 33.0556 20.341 33.0501 20.4214 32.9099C21.1014 31.7276 21.0395 30.4494 20.8877 29.1622C20.8452 28.8022 20.774 28.4457 20.6858 28.0876C20.1178 29.2696 20.0659 30.5367 20.0591 31.8709C19.8486 31.6965 19.6724 31.5565 19.5026 31.4088C18.536 30.568 17.7938 29.5832 17.5429 28.2839C17.3754 27.4177 17.5047 26.5869 17.8189 25.7746C17.8507 25.6924 17.9471 25.6171 17.8814 25.5087C17.8937 25.5317 17.9083 25.5335 17.9215 25.5117C17.9254 25.5056 17.9215 25.4948 17.9214 25.4859C17.9093 25.4956 17.897 25.5052 17.8849 25.5148C17.4488 25.8019 17.135 26.217 16.789 26.6215C16.1082 25.0681 16.1707 23.6629 17.4627 22.4438C17.2187 22.3997 16.9995 22.3732 16.7871 22.3191C15.8043 22.0688 15.208 21.2517 15.2819 20.2823C15.2946 20.1148 15.3366 20.0646 15.5051 20.1268C15.8138 20.2404 16.1277 20.3411 16.4425 20.4369C17.3762 20.7212 18.0012 20.5891 18.7739 19.9516C18.2613 19.5215 17.4761 19.376 16.6089 19.5469C15.8487 19.6965 15.127 19.9935 14.3644 20.1358C12.8405 20.4204 11.585 19.8025 10.8977 18.4033C10.6619 17.9229 10.4186 17.4445 10.2476 16.934L10.2422 16.9385C10.4637 17.0146 10.6267 17.1821 10.8013 17.3243C11.942 18.253 13.2667 18.511 14.6858 18.4247C15.0674 18.4015 15.4428 18.3242 15.8166 18.2385C16.9682 17.9744 18.2996 18.287 19.0266 19.4873C19.1234 19.647 19.1911 19.6729 19.3426 19.5382C19.8733 19.0669 19.8546 18.9249 19.1888 18.6821C18.9384 18.5907 18.6766 18.5317 18.4248 18.4434C17.8853 18.2544 17.4109 17.9532 17.0412 17.5139C16.7684 17.1898 16.4298 17.0976 16.0403 17.1336C15.3176 17.2 14.7016 17.5339 14.1191 17.9439C13.9542 18.0597 13.792 18.1799 13.5766 18.3358C13.798 17.1723 14.0166 16.0822 14.7234 15.1741C15.4772 14.2053 16.5906 13.9333 17.8195 14.4393C18.0693 14.5421 18.2161 14.5474 18.3397 14.2914C18.381 14.2059 18.4647 14.1412 18.5292 14.067C18.7977 14.0704 19.0659 14.0737 19.3344 14.0771C19.158 14.2786 18.9844 14.4827 18.8047 14.6813C18.6503 14.8522 18.7278 14.9084 18.9114 14.9454C19.1631 14.9957 19.4061 14.9609 19.6508 14.9075C20.3203 14.7616 20.9426 14.8671 21.4998 15.2817C21.5658 15.3306 21.7219 15.3937 21.6355 15.4871C21.5186 15.6136 21.3734 15.8824 21.2173 15.7819C20.9221 15.5925 20.904 15.7782 20.8228 15.9654C20.441 16.8449 19.4656 17.1617 18.7219 16.6483C18.2924 16.3518 18.1158 15.9056 18.0567 15.4087C18.0378 15.2508 17.98 15.1668 17.8445 15.1074C17.6073 15.0034 17.369 14.9029 17.1144 14.8542C16.5153 14.7395 15.96 14.8266 15.4903 15.2488C14.9897 15.6987 14.7278 16.2884 14.5147 16.9641C14.636 16.9128 14.715 16.8811 14.7927 16.8463C15.1443 16.6886 15.508 16.5694 15.8913 16.5275C16.4435 16.4674 16.974 16.5403 17.3667 16.9745C17.8067 17.461 18.3152 17.8063 18.9513 17.9646C19.2881 18.0483 19.6204 18.1557 19.915 18.3494C20.4079 18.6736 20.4868 19.216 20.0929 19.6482C19.6117 20.1761 19.035 20.5818 18.4079 20.9118C17.832 21.2148 17.2232 21.2775 16.5932 21.1123C16.4072 21.0636 16.2217 21.0138 16.006 20.9568C16.0663 21.1532 16.1676 21.2755 16.2854 21.3829C16.5829 21.6543 16.9469 21.7616 17.3359 21.7945C17.9509 21.8464 18.5621 21.8023 19.172 21.7138C19.5869 21.6537 20.004 21.6106 20.4576 21.5553C20.3727 21.6788 20.2787 21.6889 20.2016 21.7225C19.7115 21.9358 19.2157 22.136 18.7285 22.3555C18.0755 22.6498 17.5544 23.0995 17.2199 23.7465C16.9522 24.2646 16.9029 24.8105 17.034 25.3925C18.1061 24.5794 19.0537 24.1397 19.6348 24.2015C18.7562 25.084 18.1421 26.0837 18.0911 27.3494C18.0442 28.5125 18.7513 30.0839 19.4806 30.483C19.7489 28.2681 20.1225 27.3744 21.0272 26.815C21.5072 28.6372 21.8325 30.4606 21.3565 32.342C22.4168 32.2026 23.367 31.4745 23.7619 30.5186C24.0695 29.7738 24.0829 28.9973 24.0037 28.2117C23.9515 27.6949 23.8201 27.1923 23.7023 26.6561C25.223 27.0743 25.8626 28.1242 25.9184 29.6204C27.0356 28.9514 27.7252 27.4712 27.5324 26.216C27.4098 25.4171 27.0735 24.7112 26.6499 24.0381C26.5726 23.9152 26.4607 23.806 26.4398 23.6436C27.5737 23.5451 28.414 23.9972 28.9994 25.003C29.3388 24.0723 29.4053 23.1746 29.1809 22.2599C28.8958 21.0984 28.2137 20.1934 27.3547 19.4053C27.2133 19.2755 27.0691 19.1491 26.9051 19.0022C27.3033 18.8785 27.6644 18.7853 28.0419 18.7912C28.421 18.7971 28.7847 18.8892 29.1706 19.0683C28.7967 17.8924 28.1377 17.0248 27.129 16.4326C27.007 16.361 26.9264 16.3773 26.8222 16.4613C26.4348 16.7735 25.9967 16.9879 25.5176 17.1163C25.45 17.1344 25.356 17.1908 25.3176 17.132C25.224 16.9885 25.2055 16.8107 25.2004 16.643C25.1963 16.5047 25.3427 16.5348 25.4253 16.5083C26.7229 16.0906 27.4076 15.1 27.8815 13.869C27.6049 13.8454 27.3695 13.8914 27.1364 13.9465C26.2763 14.1494 25.5725 14.6208 24.9721 15.2592C24.8741 15.3633 24.8042 15.4063 24.6952 15.2868C24.6475 15.2345 24.5897 15.1877 24.5284 15.1531C24.3566 15.0567 24.3979 14.9698 24.5108 14.8469C24.7723 14.5629 25.0782 14.3315 25.3657 14.0784C25.5933 13.9447 25.8211 13.8108 26.0489 13.6771Z" fill="#D4D5D5"/>
<path fill-rule="evenodd" clip-rule="evenodd" d="M19.3348 14.0757C19.0663 14.0724 18.7978 14.0692 18.5295 14.0657C17.7985 12.2344 17.0676 10.4031 16.3359 8.57029C17.1334 8.34652 17.8286 9.16807 17.6871 10.1629C18.1242 9.87478 18.5581 9.84233 18.9746 10.178C19.3589 10.4881 19.4045 10.9065 19.2865 11.3517C19.1453 11.8856 18.7443 12.0679 18.2363 12.0816C18.6204 12.9419 19.8865 13.4241 20.713 12.6753C21.0204 12.3968 21.2813 12.0826 21.48 11.7165C21.4872 11.6966 21.4945 11.6768 21.5018 11.6567C21.4806 11.66 21.4594 11.6632 21.4382 11.6663C20.727 11.8549 20.178 11.5883 20.0175 10.9761C19.8147 10.2022 20.4542 9.51729 21.2338 9.6748C21.2848 9.68503 21.3332 9.71727 21.3874 9.68758C21.0946 9.04478 21.1617 8.54886 21.5881 8.20573C21.9491 7.9151 22.4582 7.91058 22.8257 8.19452C23.2626 8.53175 23.3325 9.01076 23.0385 9.70626C23.5728 9.56822 24.0172 9.67991 24.3103 10.1745C24.5289 10.5433 24.4999 11.0076 24.2357 11.3391C23.8689 11.7993 23.4085 11.8447 22.8409 11.5637C23.1731 12.1121 23.498 12.5671 23.9933 12.8599C24.7259 13.2931 25.7545 12.9342 26.1668 12.1092C26.1244 12.0455 26.0572 12.0783 26.0017 12.0714C25.6223 12.0236 25.3145 11.8575 25.1745 11.4839C25.0267 11.0894 25.0131 10.6918 25.2872 10.3335C25.6157 9.90428 26.1154 9.83565 26.6997 10.1351C26.7106 10.144 26.7215 10.1528 26.7326 10.1619C26.733 10.1538 26.7334 10.1459 26.734 10.1381C26.7213 10.1389 26.7088 10.1396 26.6962 10.1402C26.7451 10.0814 26.7098 10.0189 26.6991 9.96071C26.5463 9.12854 27.2629 8.60156 27.8211 8.52723C28.0843 8.49203 28.1046 8.51917 28.0055 8.76614C27.3795 10.3268 26.7524 11.8872 26.1267 13.4479C26.0969 13.5222 26.0747 13.5999 26.049 13.6758C25.8214 13.8097 25.5937 13.9434 25.3659 14.0771C23.3555 14.0767 21.3451 14.0761 19.3348 14.0757Z" fill="#CBB24D"/>
<path fill-rule="evenodd" clip-rule="evenodd" d="M10.2977 16.9815C10.2864 16.977 10.2736 16.9744 10.2643 16.9673C10.2606 16.9645 10.2646 16.9514 10.2652 16.9429C10.2734 16.9579 10.2816 16.973 10.2895 16.988L10.2977 16.9815Z" fill="#D4D5D5"/>
<path fill-rule="evenodd" clip-rule="evenodd" d="M20.1344 18.0264C20.4381 18.087 20.6583 18.2728 20.861 18.4891C20.9831 18.6193 21.103 18.7532 21.2381 18.8686C21.5843 19.165 22.0017 19.1681 22.3958 18.8732C22.0229 18.9363 21.7332 18.7939 21.4692 18.5839C21.316 18.4618 21.178 18.3202 21.0232 18.2005C20.7586 17.9956 20.4685 17.8965 20.1344 18.0264ZM27.181 14.4682C26.4312 14.6202 25.8657 14.9722 25.3653 15.4329C25.2341 15.5536 25.4311 15.6826 25.4611 15.8124C25.4813 15.8995 25.5446 15.9149 25.6268 15.8891C26.338 15.6665 26.8013 15.171 27.181 14.4682ZM22.0051 22.6558C21.9965 22.6455 21.9876 22.6359 21.978 22.6269C22.0199 22.2589 22.0475 21.8918 21.9044 21.5373C21.8803 21.4777 21.875 21.3654 21.7806 21.4018C21.6325 21.459 21.4831 21.531 21.3591 21.6285C21.2505 21.7139 21.3757 21.8242 21.3887 21.9231C21.4115 22.0944 21.4206 22.2613 21.3842 22.431C21.3213 22.723 21.1654 22.9572 20.9565 23.1621C20.7974 23.3184 20.6432 23.4801 20.4579 23.6688C21.5861 23.7261 22.457 23.3967 23.0202 22.3398C23.0187 22.7966 22.905 23.1363 22.7303 23.4517C22.5586 23.7618 22.361 24.0572 22.155 24.3911C24.1179 24.1203 25.0356 22.99 24.9916 20.9794C25.5148 21.8053 25.4211 22.6611 25.4315 23.5158C27.1173 22.1764 27.1169 18.9053 25.4476 17.757C25.4169 17.8519 25.3991 17.95 25.3555 18.0344C25.2338 18.2706 25.2837 18.4566 25.4441 18.6666C25.7342 19.0465 25.9248 19.4842 26.0329 19.954C26.1619 20.5148 26.151 21.0681 25.9462 21.648C25.5648 20.3474 24.8406 19.8092 24.098 19.7172C24.2748 20.3722 24.4306 21.0278 24.356 21.7103C24.2902 22.3134 24.0659 22.8359 23.5712 23.212C23.5537 23.1967 23.5361 23.1814 23.5186 23.166C23.8478 21.9447 23.4335 21.1434 22.6396 20.5299C22.6396 20.7926 22.6542 21.0148 22.6367 21.2345C22.5931 21.7813 22.4733 22.2989 22.0051 22.6558ZM19.3373 14.0749C21.3477 14.0753 23.3583 14.0759 25.3686 14.0763C25.0811 14.3296 24.7752 14.5608 24.5138 14.8449C24.4008 14.9676 24.3596 15.0546 24.5313 15.1511C24.5926 15.1855 24.6504 15.2323 24.6981 15.2846C24.8072 15.4044 24.877 15.3611 24.9748 15.2571C25.5754 14.6186 26.279 14.1475 27.1393 13.9443C27.3722 13.8893 27.6078 13.8435 27.8844 13.8671C27.4105 15.0978 26.7258 16.0885 25.4282 16.5061C25.3457 16.5327 25.1993 16.5028 25.2033 16.641C25.2084 16.8088 25.2269 16.9863 25.3205 17.1301C25.3589 17.1887 25.4529 17.1322 25.5205 17.1141C25.9996 16.9857 26.4377 16.7714 26.8251 16.4591C26.9293 16.3754 27.0099 16.359 27.1318 16.4306C28.1406 17.0229 28.7997 17.8903 29.1735 19.0661C28.7876 18.887 28.4239 18.795 28.0449 18.7891C27.6673 18.7832 27.3062 18.8764 26.9081 19.0001C27.072 19.147 27.2162 19.2736 27.3576 19.4032C28.2166 20.1915 28.8988 21.0962 29.1838 22.2577C29.4083 23.1725 29.3417 24.0701 29.0023 25.0008C28.4169 23.995 27.5766 23.5432 26.4427 23.6417C26.4636 23.8039 26.5753 23.913 26.6528 24.0361C27.0765 24.709 27.4127 25.4151 27.5353 26.2141C27.7279 27.469 27.0385 28.9493 25.9214 29.6182C25.8655 28.122 25.2259 27.0722 23.7052 26.6542C23.823 27.1904 23.9544 27.693 24.0066 28.2095C24.0858 28.9953 24.0724 29.7718 23.7648 30.5165C23.3699 31.4723 22.4197 32.2005 21.3594 32.3399C21.8354 30.4585 21.5101 28.6351 21.0302 26.8128C20.1254 27.3723 19.7518 28.266 19.4835 30.4811C18.7542 30.0819 18.0471 28.5104 18.094 27.3475C18.1449 26.0817 18.7591 25.0818 19.6377 24.1993C19.0566 24.1376 18.1088 24.5775 17.0369 25.3906C16.9058 24.8083 16.9551 24.2627 17.2228 23.7445C17.5573 23.0974 18.0785 22.6477 18.7315 22.3533C19.2186 22.1339 19.7144 21.9339 20.2043 21.7205C20.2816 21.6869 20.3756 21.6767 20.4603 21.5532C20.0069 21.6085 19.5898 21.6517 19.175 21.7119C18.565 21.8002 17.9539 21.8442 17.3388 21.7925C16.9498 21.7597 16.5858 21.6521 16.2881 21.3807C16.1705 21.2734 16.0693 21.1513 16.0089 20.9546C16.2246 21.0119 16.4102 21.0614 16.5961 21.1102C17.2261 21.2754 17.8349 21.2126 18.4108 20.9096C19.0379 20.5797 19.6146 20.1742 20.0958 19.646C20.4897 19.2138 20.4109 18.6717 19.9179 18.3472C19.6233 18.1537 19.291 18.0464 18.9542 17.9624C18.3181 17.8043 17.8096 17.459 17.3696 16.9725C16.9769 16.5384 16.4464 16.4652 15.894 16.5256C15.5109 16.5673 15.1472 16.6866 14.7956 16.8441C14.7179 16.879 14.6389 16.9108 14.5176 16.9621C14.7306 16.2863 14.9926 15.6968 15.4932 15.2469C15.963 14.8245 16.5182 14.7374 17.1173 14.8522C17.3719 14.901 17.6102 15.0013 17.8474 15.1055C17.9829 15.1649 18.0407 15.2488 18.0594 15.4067C18.1188 15.9034 18.2953 16.3496 18.7248 16.6461C19.4686 17.1596 20.4439 16.8428 20.8257 15.9632C20.9069 15.7762 20.925 15.5904 21.2202 15.7799C21.3763 15.8802 21.5216 15.6114 21.6384 15.485C21.7246 15.3916 21.5687 15.3287 21.5027 15.2795C20.9455 14.865 20.3232 14.7596 19.6537 14.9055C19.4088 14.9588 19.1658 14.9938 18.9143 14.9433C18.7305 14.9065 18.653 14.8501 18.8076 14.6794C18.9871 14.4806 19.1609 14.2767 19.3373 14.0749Z" fill="#C60242"/>
<path fill-rule="evenodd" clip-rule="evenodd" d="M11.8146 18.6417C12.6733 18.9284 13.5496 19.0928 14.4592 19.0476C14.9489 19.0232 15.4311 18.9556 15.9083 18.8429C16.3166 18.7465 16.7262 18.7196 17.1339 18.8486C16.2802 18.9078 15.4893 19.2269 14.6738 19.4379C14.2494 19.5478 13.8212 19.6271 13.3824 19.5777C12.7251 19.5036 12.1934 19.1964 11.79 18.6653C11.7982 18.6575 11.8064 18.6496 11.8146 18.6417Z" fill="#C60242"/>
<path fill-rule="evenodd" clip-rule="evenodd" d="M19.5164 16.2911C19.1671 16.2952 18.8828 16.0966 18.7462 15.7409C18.7215 15.6764 18.6303 15.5779 18.7306 15.5338C18.8046 15.5014 18.927 15.5102 18.9888 15.6151C19.0158 15.6611 19.0363 15.7118 19.068 15.7541C19.3273 16.1011 19.8472 16.0449 20.0321 15.6502C20.0508 15.6101 20.0609 15.5661 20.0755 15.524C20.1232 15.387 20.2437 15.4257 20.3218 15.4503C20.4328 15.4855 20.3417 15.5716 20.322 15.6257C20.1649 16.0606 19.8869 16.2866 19.5164 16.2911Z" fill="#C60242"/>
<path fill-rule="evenodd" clip-rule="evenodd" d="M11.8376 18.7204C11.82 18.705 11.786 18.6778 11.7872 18.6761C11.8203 18.6298 11.8475 18.6528 11.8729 18.6863C11.8613 18.6977 11.8494 18.709 11.8376 18.7204Z" fill="#C60242"/>
<path fill-rule="evenodd" clip-rule="evenodd" d="M28.3686 19.5526C28.3573 19.5302 28.3301 19.4978 28.3369 19.4873C28.3658 19.4427 28.4003 19.4598 28.4297 19.493C28.4094 19.5129 28.389 19.5327 28.3686 19.5526Z" fill="#15214E"/>
<path fill-rule="evenodd" clip-rule="evenodd" d="M27.6721 24.572C27.6489 24.5408 27.6308 24.5081 27.6738 24.4809C27.6778 24.4786 27.7035 24.511 27.7194 24.5271C27.7049 24.5436 27.6894 24.5587 27.6721 24.572Z" fill="#15214E"/>
<path fill-rule="evenodd" clip-rule="evenodd" d="M17.9219 25.5612C17.9394 25.5472 17.9573 25.5333 17.9748 25.5197C17.9754 25.5322 17.9808 25.5478 17.9751 25.5569C17.9558 25.5881 17.9346 25.5859 17.9168 25.5523L17.9219 25.5612Z" fill="#15214E"/>
<path fill-rule="evenodd" clip-rule="evenodd" d="M21.4683 11.7023C21.4992 11.6978 21.53 11.6932 21.5609 11.6884C21.5504 11.7174 21.5397 11.7461 21.5292 11.7747C21.5088 11.7506 21.4887 11.7265 21.4683 11.7023Z" fill="#15214E"/>
<path fill-rule="evenodd" clip-rule="evenodd" d="M26.7313 10.1811C26.7497 10.18 26.7678 10.1788 26.7862 10.178C26.7854 10.1894 26.7848 10.2007 26.7842 10.2121C26.7681 10.1993 26.7522 10.1865 26.7364 10.1735L26.7313 10.1811Z" fill="#15214E"/>
<path fill-rule="evenodd" clip-rule="evenodd" d="M23.5684 23.212C24.0631 22.8359 24.2874 22.3134 24.3532 21.7103C24.4275 21.0278 24.272 20.3722 24.0952 19.7172C24.8377 19.8093 25.562 20.3474 25.9434 21.648C26.1482 21.0681 26.1591 20.5146 26.03 19.954C25.922 19.4842 25.7314 19.0465 25.4413 18.6666C25.2809 18.4566 25.231 18.2706 25.3527 18.0344C25.3963 17.9501 25.414 17.8519 25.4448 17.757C27.1141 18.9053 27.1145 22.1764 25.4286 23.5159C25.4183 22.6611 25.512 21.8053 24.9888 20.9794C25.0328 22.99 24.1151 24.1203 22.1522 24.3911C22.3582 24.0572 22.5556 23.7618 22.7275 23.4517C22.9021 23.1363 23.0158 22.7966 23.0174 22.3396C22.4542 23.3967 21.5833 23.7261 20.4551 23.6688C20.6404 23.4801 20.7944 23.3184 20.9537 23.1621C21.1626 22.9572 21.3185 22.723 21.3814 22.431C21.4178 22.2613 21.4087 22.0944 21.3859 21.9231C21.3727 21.8242 21.2477 21.7139 21.3561 21.6285C21.4803 21.531 21.6296 21.459 21.7778 21.4018C21.8722 21.3652 21.8775 21.4777 21.9016 21.5373C22.0447 21.8918 22.0171 22.259 21.9756 22.6269C21.9542 22.6473 21.9474 22.6685 21.9715 22.6919C21.9818 22.6798 21.992 22.6678 22.0023 22.6556C22.4705 22.2989 22.5902 21.7813 22.6339 21.2345C22.6514 21.0148 22.6368 20.7926 22.6368 20.5299C23.4307 21.1434 23.845 21.9447 23.516 23.166C23.5139 23.1892 23.5115 23.2126 23.5094 23.236C23.529 23.228 23.5487 23.2201 23.5684 23.212Z" fill="#D4D5D5"/>
<path fill-rule="evenodd" clip-rule="evenodd" d="M27.1797 14.4683C26.8001 15.171 26.3367 15.6664 25.6255 15.8892C25.5434 15.9149 25.4801 15.8994 25.4598 15.8125C25.4298 15.6827 25.2328 15.5535 25.3638 15.433C25.8644 14.9722 26.43 14.6203 27.1797 14.4683Z" fill="#D4D5D5"/>
<path fill-rule="evenodd" clip-rule="evenodd" d="M20.1348 18.0264C20.4689 17.8964 20.7589 17.9955 21.0235 18.2004C21.1783 18.3202 21.3163 18.4618 21.4696 18.5839C21.7336 18.7939 22.0233 18.9362 22.3961 18.8731C22.002 19.1681 21.5846 19.1649 21.2385 18.8686C21.1033 18.7532 20.9834 18.6193 20.8613 18.4891C20.6587 18.2728 20.4385 18.087 20.1348 18.0264Z" fill="#D4D5D5"/>
<path fill-rule="evenodd" clip-rule="evenodd" d="M22.0569 22.6977C22.0419 22.7151 22.0271 22.7327 22.0121 22.75C21.977 22.7162 21.9869 22.6855 22.0181 22.6563C22.0314 22.6693 22.0444 22.6833 22.0569 22.6977Z" fill="#C60242"/>
<path fill-rule="evenodd" clip-rule="evenodd" d="M23.6259 23.2607C23.5973 23.2723 23.5687 23.2837 23.5401 23.2953C23.5432 23.2615 23.5466 23.2277 23.5497 23.1942C23.5749 23.2164 23.6004 23.2385 23.6259 23.2607Z" fill="#C60242"/>
</svg>
