<svg width="117" height="33" viewBox="0 0 117 33" fill="none" xmlns="http://www.w3.org/2000/svg">
<path fill-rule="evenodd" clip-rule="evenodd" d="M22.7698 14.9051L11.6079 3.57179L14.9874 0.139648L29.5289 14.9051L20.3103 24.2652L16.9308 20.8338L22.7698 14.9051ZM7.2034 14.9054L13.0424 8.97676L9.66286 5.54532L0.444336 14.9054L14.9858 29.6702L18.3653 26.2388L7.2034 14.9054ZM14.9862 18.8604L18.8818 14.9049L14.9862 10.9495L11.0913 14.9049L14.9862 18.8604Z" fill="#FFD800"/>
<path fill-rule="evenodd" clip-rule="evenodd" d="M96.43 15.8305L95.2304 9.74984L93.8571 15.8305H96.43ZM93.1123 19.1238H97.0784L97.8952 23.2645H103.092L98.6034 6.61191H92.37L87.4996 23.2645H92.1772L93.1123 19.1238ZM60.0035 10.442C59.5161 9.66256 58.4982 9.43213 57.7306 9.927C57.5522 10.029 57.3088 10.2796 57.2111 10.4621C56.9397 10.864 56.6649 11.6517 56.6273 12.1376C56.3915 13.5812 56.4024 16.2464 56.6499 17.688C56.6902 18.1523 56.9575 18.9061 57.2179 19.2899C57.6868 20.0589 58.6807 20.2956 59.4381 19.8195C59.6049 19.7258 59.8387 19.4953 59.9358 19.3281C60.1962 18.9679 60.4628 18.2557 60.5045 17.8108C60.7902 16.243 60.7888 13.3675 60.5001 11.7996C60.4625 11.4047 60.2287 10.7661 60.0032 10.442H60.0035ZM65.367 18.8597C66.1428 16.5645 66.0321 12.6812 65.127 10.4345C64.6649 8.77502 62.9458 7.094 61.295 6.68728C59.9511 6.19172 57.6078 6.14036 56.2441 6.57623C54.5455 6.91632 52.7217 8.55153 52.179 10.2207C51.0894 12.6153 50.967 16.7019 51.9117 19.1582C52.343 20.8232 54.0246 22.5681 55.6549 23.0422C57.4834 23.814 60.4467 23.6536 62.1843 22.6882C63.6047 22.1066 65.0409 20.3797 65.367 18.8597ZM115.765 11.219C115.303 10.7574 114.342 10.2556 113.703 10.1439C113.128 9.9794 112.096 9.95719 111.515 10.0953C110.199 10.2841 108.948 11.4987 108.705 12.8251C108.384 13.9668 108.326 16.0177 108.582 17.1761C108.64 17.6557 108.949 18.4199 109.24 18.803C109.786 19.6484 110.954 20.003 111.868 19.6019L111.765 14.8524L116.703 14.7781L116.677 22.6932C114.751 23.4727 111.278 23.7871 109.247 23.3672C107.769 23.2332 105.816 22.0984 104.954 20.8727C104.261 20.0919 103.541 18.4997 103.41 17.4565C102.95 15.5333 103.294 12.358 104.155 10.5825C104.79 8.78492 106.814 7.01853 108.659 6.65068C110.101 6.19538 112.652 6.1461 114.109 6.54588C114.652 6.64652 115.622 6.97203 116.116 7.21981L115.765 11.219ZM43.6934 16.4056C43.3181 16.3397 42.61 16.3119 42.2306 16.3487V20.2535C42.677 20.3472 43.4316 20.2702 43.8506 20.0869C44.2225 19.9724 44.6128 19.5678 44.7181 19.1881C44.9054 18.7224 44.943 17.9083 44.8001 17.4273C44.6989 16.913 44.2068 16.4591 43.6934 16.4056ZM44.6538 10.4288C44.5356 9.93737 44.0427 9.52163 43.5458 9.49386C43.2204 9.44667 42.6079 9.44045 42.2812 9.47998V13.1731C42.6476 13.2293 43.2935 13.1781 43.6463 13.0634C44.0851 12.9683 44.5294 12.5332 44.6388 12.091C44.8008 11.6455 44.8076 10.8771 44.6538 10.4288ZM49.9433 16.6953C49.7649 15.9569 49.0547 15.0664 48.38 14.7353C47.9583 14.4674 47.1421 14.2106 46.6452 14.1891L47.1558 13.9913C47.8756 13.7608 48.7396 12.9835 49.0513 12.286C49.6535 11.2664 49.6747 9.59509 49.0999 8.56024C48.8046 7.85646 47.9549 7.1152 47.2255 6.92364C46.7074 6.73277 45.7231 6.55648 45.1728 6.55509C44.5159 6.52244 43.226 6.50373 42.5691 6.519H37.2988V23.2688H43.5466C44.2295 23.2875 45.5057 23.1682 46.1742 23.0245C48.821 22.5262 50.5695 19.9435 50.0794 17.2554C50.0555 17.1104 49.9885 16.8355 49.9434 16.6953H49.9433ZM67.3356 23.2645H71.5026L71.6789 11.4794L74.4583 23.2645H78.1817L80.877 11.2448L81.0232 23.2645H86.0426L85.2114 6.61191H78.6984L76.8104 15.5251L74.6873 6.61191H68.0403L67.3356 23.2645Z" fill="#0055A0"/>
<path fill-rule="evenodd" clip-rule="evenodd" d="M85.975 31.2267L86.7078 31.2272C87.9437 31.2272 88.9451 30.3152 88.9451 29.1895C88.9451 28.0651 87.9437 27.1531 86.7078 27.1531H84.4596V32.5272H85.7187V31.2265L85.798 31.2276L85.975 31.2265V31.2267ZM85.7151 28.215L86.5757 28.2161C87.1691 28.2161 87.6503 28.654 87.6503 29.1947C87.6503 29.7354 87.1691 30.1734 86.5757 30.1734H85.7151V28.2147V28.215ZM49.1917 30.1592V32.526H47.8574V30.1592L45.0453 27.1734H46.6974L48.5287 29.0203L50.3504 27.1734H52.0114L49.1917 30.1592ZM80.507 30.8802C80.5507 31.1481 80.7927 31.4334 81.047 31.5166C81.3047 31.6416 81.7333 31.6416 81.991 31.5166C82.2453 31.4334 82.4873 31.1481 82.531 30.8802C82.5713 30.7213 82.6014 30.4214 82.5932 30.2576V27.1531H83.853V30.4554C83.8838 31.3737 83.2125 32.3114 82.343 32.5647C81.8536 32.759 81.0374 32.7368 80.5589 32.5161C79.764 32.2419 79.1529 31.339 79.1857 30.4874V27.1531H80.4448V30.2576C80.4372 30.4214 80.4673 30.7213 80.507 30.8802ZM65.3649 29.3776V30.5769H66.4764V31.4334C66.123 31.6021 65.503 31.6458 65.1291 31.5292C64.7005 31.4466 64.2412 31.0371 64.1058 30.6158C63.9479 30.266 63.9137 29.6552 64.0306 29.2894C64.0921 28.9764 64.3806 28.6162 64.6698 28.4906C64.8694 28.3761 65.2467 28.2858 65.4757 28.2983H67.5865L67.5838 27.1538H65.5864C65.3608 27.1469 64.9439 27.1906 64.7244 27.244C63.2767 27.5501 62.3477 28.9889 62.6491 30.4596C62.7565 31.1842 63.384 32.0227 64.0436 32.3211C65.0744 32.9249 66.6603 32.8139 67.6002 32.0733V29.3776H65.3649H65.3649ZM56.9688 28.3755V32.526H58.2935V28.3755H59.7796V27.1734H55.3672V28.3755H56.9688ZM37.2988 32.5296H38.6236V30.6106H40.4692V29.3897H38.6236V28.3583H41.9115V27.177H37.2988V32.5296ZM77.2665 29.2858C77.0622 28.455 76.2323 27.9491 75.4134 28.1573C74.8857 28.2655 74.3867 28.7854 74.293 29.324C74.2117 29.6204 74.2179 30.1402 74.3061 30.4345C74.5098 31.266 75.3382 31.7713 76.1572 31.5644C76.678 31.4589 77.1763 30.9467 77.2741 30.4164C77.3616 30.1145 77.3575 29.5863 77.2666 29.2858H77.2665ZM77.8478 31.8718C78.9518 30.83 79.0154 29.0761 77.99 27.9545L77.8642 27.8268C76.7849 26.7607 74.9981 26.7017 73.8531 27.6949C72.6863 28.6784 72.5249 30.4364 73.4935 31.6205C73.5783 31.7316 73.7622 31.9162 73.8715 32.0015C75.0063 32.9725 76.7767 32.9149 77.8478 31.8718ZM52.4866 30.2092L53.2214 28.6622L53.9323 30.2092H52.4866ZM52.6716 27.1734L50.0399 32.526H51.4009L51.9115 31.4197H54.4981L55.0258 32.526H56.5139L53.848 27.1734H52.6716ZM43.718 28.6622L44.4275 30.2092H42.9818L43.718 28.6622ZM44.3403 27.1734H43.1652L40.5335 32.526H41.8945L42.4044 31.4197H44.9917L45.5194 32.526H47.0076L44.3403 27.1734ZM69.4466 28.2139L70.4835 28.2134C70.8971 28.2134 71.2327 28.4972 71.2327 28.8477C71.2327 29.1982 70.8971 29.4821 70.4835 29.4821L69.4466 29.4827V28.2139ZM69.7343 27.1532H68.1895V32.5266H69.4493V30.5527H69.977L71.4733 32.5266H73.0476L71.2525 30.3633L71.2607 30.361C71.9675 30.1195 72.4679 29.5205 72.4679 28.8154C72.4679 27.8971 71.6175 27.1531 70.5696 27.1531H69.908H69.7343V27.1532Z" fill="#0055A0"/>
</svg>
