<svg width="139" height="30" viewBox="0 0 139 30" fill="none" xmlns="http://www.w3.org/2000/svg">
<path fill-rule="evenodd" clip-rule="evenodd" d="M0.835938 22.3297L0.835937 0.377605L28.9519 0.377605L0.835938 22.3297" fill="#00AAE8"/>
<path fill-rule="evenodd" clip-rule="evenodd" d="M41.2081 15.0462L29.6107 15.0462L29.6107 29.6414L8.1709 29.6414L29.4524 0.372948H41.2081L41.2081 15.0462ZM59.2205 14.422V4.03294H55.1962L55.1962 0.396526H67.6786V4.06109H63.5921V14.422H59.2205ZM72.073 9.30494H74.7L73.4081 4.71759L72.073 9.30494ZM65.9386 14.422L70.7046 0.396526H76.1634L80.7838 14.422H76.114L75.552 12.4363H71.1798L70.6022 14.422H65.9386ZM86.0446 10.7604H87.7144C88.8824 10.773 89.9375 10.0761 90.3789 8.99766C90.8728 7.79882 90.7826 6.48893 90.1335 5.36751C89.6428 4.53778 88.764 4.03885 87.7982 4.04198H86.0446V10.7604ZM81.7126 14.422V0.396528H88.8141C91.5123 0.393398 93.9213 2.14045 94.7538 4.69922C95.3159 6.43375 95.3284 8.17767 94.7907 9.92158C93.9433 12.5916 91.4379 14.422 88.6307 14.422L81.7126 14.422H81.7126ZM100.553 9.30494H103.179L101.888 4.71759L100.553 9.30494ZM94.421 14.422L99.1872 0.396526H104.642L109.266 14.422H104.596L104.034 12.4363H99.6622L99.0845 14.422H94.421ZM110.215 14.422V0.396526H114.593L118.519 7.0625V0.396526H122.809V14.422H118.565L114.469 7.29163V14.422H110.215ZM129.032 9.81097C129.48 10.663 130.345 11.1893 131.308 11.1954C132.27 11.1987 133.143 10.6782 133.597 9.82973C134.397 8.27429 134.397 6.48424 133.597 4.92645C133.165 4.05918 132.289 3.51646 131.317 3.51646C130.348 3.51646 129.473 4.05918 129.041 4.92645C128.25 6.47798 128.246 8.25552 129.032 9.81097ZM128.238 14.0453C127.123 13.5498 126.226 12.8343 125.499 11.8553C123.481 9.1634 123.491 5.4222 125.524 2.73908C126.229 1.77876 127.12 1.08197 128.222 0.629963C131.293 -0.733101 134.954 0.1717 137.031 2.80477C139.112 5.43706 139.137 9.19781 137.09 11.8553C135.044 14.5502 131.312 15.4734 128.238 14.0453H128.238Z" fill="#221714"/>
</svg>
