<svg width="504" height="351" viewBox="0 0 504 351" fill="none" xmlns="http://www.w3.org/2000/svg">
<mask id="mask0" mask-type="alpha" maskUnits="userSpaceOnUse" x="0" y="0" width="504" height="347">
<rect width="504" height="347" fill="#FFD500"/>
</mask>
<g mask="url(#mask0)">
<circle cx="253" cy="242" r="235" fill="#FFF1A9"/>
</g>
<path d="M83.0117 290.215C74.0673 286.294 60.2566 279.22 58.5658 278.351C59.8793 279.026 68.513 283.449 76.4942 287.227L83.0117 290.215ZM58.5604 278.348C58.5508 278.343 58.5405 278.338 58.5315 278.333C58.5405 278.338 58.5508 278.343 58.5604 278.348ZM58.5285 278.332C58.5261 278.33 58.5237 278.329 58.5207 278.328C58.5237 278.329 58.5261 278.33 58.5285 278.332ZM58.5165 278.326C58.5111 278.323 58.5063 278.32 58.5015 278.318C58.5063 278.32 58.5111 278.323 58.5165 278.326ZM58.4967 278.315C58.4835 278.309 58.472 278.303 58.4612 278.297C58.472 278.303 58.4835 278.309 58.4967 278.315ZM58.46 278.297C58.4588 278.296 58.4576 278.296 58.4564 278.295C58.4576 278.296 58.4588 278.296 58.46 278.297ZM58.454 278.294C58.4534 278.293 58.4528 278.293 58.4522 278.293C58.4528 278.293 58.4534 278.293 58.454 278.294ZM58.4492 278.291C58.4486 278.291 58.448 278.291 58.4474 278.29C58.448 278.291 58.4486 278.291 58.4492 278.291ZM58.445 278.289C58.4426 278.288 58.4402 278.287 58.4384 278.285C58.4402 278.287 58.4426 278.288 58.445 278.289ZM58.4306 278.281C58.43 278.281 58.4294 278.281 58.4294 278.281C58.4294 278.281 58.43 278.281 58.4306 278.281ZM58.4288 278.281C58.4276 278.28 58.427 278.279 58.4258 278.279C58.427 278.279 58.4276 278.28 58.4288 278.281ZM58.4252 278.279C58.4246 278.279 58.4246 278.278 58.424 278.278C58.4246 278.278 58.4246 278.279 58.4252 278.279ZM58.415 278.273C58.4132 278.273 58.4114 278.272 58.4102 278.271C58.4114 278.272 58.4132 278.273 58.415 278.273ZM58.4011 278.266C58.3993 278.266 58.3975 278.264 58.3963 278.264C58.3975 278.264 58.3993 278.266 58.4011 278.266ZM58.3963 278.264C58.3951 278.263 58.3945 278.263 58.3945 278.263C58.3945 278.263 58.3951 278.263 58.3963 278.264Z" fill="url(#paint0_radial)"/>
<path d="M81.1445 280.684C81.1463 280.683 81.1476 280.682 81.1488 280.681C81.1476 280.682 81.1457 280.683 81.1445 280.684ZM81.162 280.672C81.1669 280.669 81.1717 280.666 81.1765 280.663C81.1717 280.666 81.1669 280.669 81.162 280.672ZM81.1777 280.662C81.1789 280.661 81.1801 280.661 81.1819 280.659C81.1801 280.661 81.1789 280.661 81.1777 280.662ZM81.1862 280.656C81.1958 280.65 81.2049 280.644 81.2127 280.64C81.2049 280.644 81.1958 280.65 81.1862 280.656ZM81.2139 280.638C81.2157 280.637 81.2175 280.636 81.2193 280.635C81.2175 280.636 81.2157 280.637 81.2139 280.638ZM81.2212 280.634C81.2218 280.634 81.223 280.633 81.2236 280.632C81.223 280.633 81.2218 280.634 81.2212 280.634ZM81.2326 280.626C81.2344 280.625 81.2362 280.624 81.2374 280.623C81.2362 280.624 81.2344 280.625 81.2326 280.626ZM81.2387 280.622C81.2393 280.622 81.2405 280.621 81.2411 280.621C81.2399 280.621 81.2393 280.622 81.2387 280.622ZM81.2483 280.616H81.2489H81.2483ZM81.2507 280.614H81.2513H81.2507ZM81.2531 280.613C81.2549 280.612 81.2568 280.611 81.2586 280.609C81.2568 280.611 81.2549 280.612 81.2531 280.613ZM81.2592 280.609C81.2598 280.608 81.2604 280.608 81.261 280.608C81.2604 280.608 81.2598 280.608 81.2592 280.609ZM81.2616 280.607C81.2622 280.607 81.2628 280.607 81.2628 280.606C81.2628 280.607 81.2622 280.607 81.2616 280.607ZM81.2652 280.605C81.2658 280.605 81.2658 280.605 81.2658 280.605C81.2658 280.605 81.2652 280.605 81.2652 280.605Z" fill="#E1EBE8"/>
<path d="M213.69 74.8424L171.792 55.9697C171.792 55.9697 154.387 72.2533 149.609 78.8766C144.526 85.9218 133.566 109.703 133.566 109.703L167.228 124.196L171.935 126.109L180.863 122.39C180.863 122.39 189.549 103.373 192.525 100.166C198.08 94.1808 213.69 74.8424 213.69 74.8424Z" fill="#F4F5F5"/>
<path d="M213.69 74.8411L171.793 55.9684C171.793 55.9684 154.387 72.252 149.609 78.8748C149.254 79.3678 148.868 79.9454 148.461 80.5879C161.045 85.9709 186.061 97.946 191.22 101.005C191.362 101.09 191.52 101.151 191.685 101.201C191.981 100.797 192.263 100.447 192.525 100.165C198.08 94.1795 213.69 74.8411 213.69 74.8411Z" fill="white"/>
<path d="M202.087 77.4296L172.748 64.2138C172.748 64.2138 170.864 66.6487 170.074 66.9264C170.074 66.9264 199.64 80.0226 200.178 79.4109L202.087 77.4296Z" fill="#84AEA9"/>
<path d="M196.322 83.8858L166.982 70.669L164.309 73.3821L193.826 86.4043L196.322 83.8858Z" fill="#84AEA9"/>
<path d="M190.142 90.7847L160.803 77.5675L158.129 80.2806L187.646 93.3027L190.142 90.7847Z" fill="#84AEA9"/>
<path d="M183.657 99.1157L154.317 85.8984L152.281 89.1243L181.798 102.146L183.657 99.1157Z" fill="#84AEA9"/>
<path d="M179.328 106.979L149.989 93.7618L147.953 96.9876L177.47 110.01L179.328 106.979Z" fill="#84AEA9"/>
<path d="M171.938 126.109L175.536 120.826L180.865 122.39L171.938 126.109Z" fill="#CCCDCC"/>
<path d="M341.081 176.015L367.316 210.82C367.316 210.82 376.161 207.189 380.779 201.303C390.235 189.249 406.153 170.299 415.344 166.744C416.291 166.378 425.132 163.837 425.132 163.837C425.132 163.837 422.707 157.639 420.978 156.062C413.813 149.525 388.346 138.853 388.346 138.853C388.346 138.853 376.018 143.948 373.515 146.325C368.699 150.899 358.576 162.693 352.281 170.146C349.066 173.952 341.081 176.015 341.081 176.015Z" fill="white"/>
<path d="M357.86 169.719L379.012 191.359L381.454 188.196L359.492 167.344L357.86 169.719Z" fill="#9FC8C0"/>
<path d="M363.362 163.692L385.039 184.661L387.63 181.307L364.995 161.317L363.362 163.692Z" fill="#9FC8C0"/>
<path d="M367.46 158.221L391.934 177.128L394.525 173.774L369.73 155.613L367.46 158.221Z" fill="#9FC8C0"/>
<path d="M372.249 152.253L398.237 170.207L401.703 167.766L374.441 150.164L372.249 152.253Z" fill="#9FC8C0"/>
<path d="M377.565 147.51L406.564 164.173L409.978 162.526L380.275 145.998L377.565 147.51Z" fill="#9FC8C0"/>
<path d="M425.125 163.822C424.994 163.489 422.657 157.594 420.977 156.061C422.657 157.594 424.994 163.489 425.125 163.822Z" fill="url(#paint1_radial)"/>
<path d="M415.344 166.744C415.344 166.744 421.166 157.079 420.978 156.062C422.658 157.594 424.995 163.489 425.126 163.822C425.13 163.832 425.132 163.837 425.132 163.837C425.132 163.837 416.291 166.378 415.344 166.744Z" fill="#ECEDEC"/>
<path d="M338.638 39.5594L331.135 31.1222L294.102 48.7711L301.564 57.4878L318.853 89.302L327.77 98.409L363.379 75.936L354.621 68.2457L338.638 39.5594Z" fill="white"/>
<path d="M331.25 37.3614L303.396 51.0658L304.975 52.8538L332.618 39.1134L331.25 37.3614Z" fill="#8F9295"/>
<path d="M338.642 39.5603L338.611 39.5234L301.569 57.4887L318.858 89.3029L354.405 67.8141L338.642 39.5603Z" fill="#F4F5F5"/>
<path d="M335.474 43.4838L307.549 57.7798L308.884 60.0987L336.652 45.7146L335.474 43.4838Z" fill="#8F9295"/>
<path d="M338.878 48.8638L310.866 63.6938L312.232 66.0658L340.086 51.144L338.878 48.8638Z" fill="#8F9295"/>
<path d="M342.104 54.241L313.991 69.6157L315.388 72.0427L343.34 56.572L342.104 54.241Z" fill="#8F9295"/>
<path d="M345.551 59.9615L317.339 75.9259L318.768 78.4121L346.819 62.3471L345.551 59.9615Z" fill="#8F9295"/>
<path d="M348.913 65.4696L320.613 82.0094L322.074 84.553L349.953 67.7827L348.913 65.4696Z" fill="#8F9295"/>
<path d="M101.162 153.936L81.7749 192.972C81.7749 192.972 88.9802 199.257 96.311 200.753C111.322 203.816 135.392 209.571 142.683 216.2C143.435 216.883 149.664 223.653 149.664 223.653C149.664 223.653 154.121 218.711 154.758 216.459C157.397 207.126 155.546 179.575 155.546 179.575C155.546 179.575 145.473 170.83 142.226 169.656C135.981 167.395 120.904 163.62 111.422 161.325C106.58 160.154 101.162 153.936 101.162 153.936Z" fill="white"/>
<path d="M114.299 166.126L104.412 194.725L108.334 195.494L117.154 166.522L114.299 166.126Z" fill="#9FC8C0"/>
<path d="M122.153 168.351L113.1 197.119L117.26 197.936L125.008 168.748L122.153 168.351Z" fill="#9FC8C0"/>
<path d="M128.878 169.562L122.921 199.91L127.081 200.726L132.226 170.426L128.878 169.562Z" fill="#9FC8C0"/>
<path d="M136.359 171.178L131.932 202.453L135.665 204.461L139.208 172.204L136.359 171.178Z" fill="#9FC8C0"/>
<path d="M142.981 173.809L141.055 207.199L144.056 209.515L145.545 175.556L142.981 173.809Z" fill="#9FC8C0"/>
<path d="M149.671 223.643C149.91 223.377 154.136 218.649 154.755 216.46C154.136 218.649 149.91 223.377 149.671 223.643Z" fill="url(#paint2_radial)"/>
<path d="M142.684 216.201C142.684 216.201 153.932 217.083 154.758 216.459C154.139 218.648 149.913 223.376 149.675 223.642C149.667 223.65 149.664 223.654 149.664 223.654C149.664 223.654 143.435 216.884 142.684 216.201Z" fill="#ECEDEC"/>
<path d="M89.2614 340.637H22.6328L23.8447 336.251L26.2129 327.683L27.6466 322.498L29.7598 314.85L33.8342 300.108L35.949 292.462L50.8082 238.701H61.0876L66.5322 258.403L75.9467 292.462L78.06 300.108L82.1343 314.85L84.2476 322.498L88.0495 336.251L89.2614 340.637Z" fill="#FFD500"/>
<path d="M89.2614 340.234H22.6328L23.8447 335.846L26.2129 327.28C72.6438 324.539 66.5338 258 66.5338 258L88.0511 335.846L89.2614 340.234Z" fill="#FFA800"/>
<path d="M102.895 340.637H9V349.559H102.895V340.637Z" fill="#FFD500"/>
<path d="M89.2614 340.638H22.6328L23.8447 336.252H88.0495L89.2614 340.638Z" fill="#D3980C"/>
<path d="M78.0599 300.107C78.0599 300.107 76.6643 329.541 42.832 336.274L88.0495 336.25L78.0599 300.107Z" fill="#FFA800"/>
<path d="M78.0617 300.109H33.8359L35.9508 292.463H75.9485L78.0617 300.109Z" fill="white"/>
<path d="M84.2494 322.497H27.6484L29.7617 314.85H82.1362L84.2494 322.497Z" fill="white"/>
<path d="M81.1759 340.637C81.1759 340.637 68.7294 350.028 22.6328 349.559H102.894V340.637H81.1759Z" fill="#FFA800"/>
<path d="M482.261 340.936H415.633L416.845 336.55L419.213 327.982L420.647 322.797L422.76 315.149L426.834 300.407L428.949 292.761L443.808 239H454.088L459.532 258.702L468.947 292.761L471.06 300.407L475.134 315.149L477.248 322.797L481.049 336.55L482.261 340.936Z" fill="#FFD500"/>
<path d="M482.261 340.935H415.633L416.845 336.547L419.213 327.981C465.644 325.24 459.534 258.701 459.534 258.701L481.051 336.547L482.261 340.935Z" fill="#FFA800"/>
<path d="M495.895 340.936H402V349.858H495.895V340.936Z" fill="#FFD500"/>
<path d="M482.261 340.937H415.633L416.845 336.551H481.049L482.261 340.937Z" fill="#D3980C"/>
<path d="M471.06 300.406C471.06 300.406 469.664 329.84 435.832 336.573L481.049 336.549L471.06 300.406Z" fill="#FFA800"/>
<path d="M471.062 300.408H426.836L428.951 292.762H468.948L471.062 300.408Z" fill="white"/>
<path d="M477.249 322.796H420.648L422.762 315.148H475.136L477.249 322.796Z" fill="white"/>
<path d="M474.176 340.936C474.176 340.936 461.729 350.327 415.633 349.858H495.894V340.936H474.176Z" fill="#FFA800"/>
<path d="M345.766 342.381C345.766 344.04 339.5 345.577 328.821 346.838C311.843 348.844 283.708 350.158 251.87 350.158C219.603 350.158 191.135 348.809 174.236 346.756C172.783 346.581 171.415 346.397 170.136 346.211C162.395 345.081 157.977 343.774 157.977 342.381C157.977 338.085 200.014 334.604 251.87 334.604C272.187 334.604 290.995 335.138 306.358 336.046C330.214 337.457 345.766 339.77 345.766 342.381Z" fill="#38488C"/>
<path d="M328.823 346.84C311.845 348.846 283.71 350.159 251.872 350.159C219.605 350.159 191.137 348.811 174.238 346.757C191.216 344.751 219.351 343.438 251.189 343.438C271.505 343.438 290.314 343.972 305.677 344.88C314.716 345.414 322.563 346.078 328.823 346.84Z" fill="#232851"/>
<mask id="mask1" mask-type="alpha" maskUnits="userSpaceOnUse" x="140" y="98" width="271" height="253">
<path d="M350.446 342.693C350.446 344.351 344.181 345.888 333.502 347.149C316.524 349.156 288.389 350.469 256.551 350.469C224.284 350.469 195.816 349.12 178.917 347.067C177.463 346.892 176.095 346.709 174.817 346.522C167.076 345.392 162.657 344.085 162.657 342.693C162.657 338.396 70.6405 247.906 261.247 98.6133C281.563 98.6133 391.447 182.179 406.47 230.066C430.326 231.477 350.446 340.081 350.446 342.693Z" fill="#38488C"/>
</mask>
<g mask="url(#mask1)">
<path d="M204.251 200.698H216.12C216.49 200.698 216.785 200.994 216.785 201.361C216.785 201.727 216.49 202.025 216.12 202.025H204.251C203.885 202.025 203.59 201.727 203.59 201.361C203.59 200.994 203.885 200.698 204.251 200.698Z" fill="#FBF5E6"/>
<path d="M210.184 194.764C210.553 194.764 210.848 195.062 210.848 195.428V207.296C210.848 207.663 210.553 207.961 210.184 207.961C209.818 207.961 209.52 207.663 209.52 207.296V195.428C209.52 195.062 209.818 194.764 210.184 194.764Z" fill="#FBF5E6"/>
<path d="M226.016 177.618H237.882C238.248 177.618 238.547 177.914 238.547 178.281C238.547 178.65 238.248 178.945 237.882 178.945H226.016C225.647 178.945 225.352 178.65 225.352 178.281C225.352 177.914 225.647 177.618 226.016 177.618Z" fill="#FBF5E6"/>
<path d="M231.946 171.684C232.312 171.684 232.611 171.982 232.611 172.348V184.216C232.611 184.585 232.312 184.881 231.946 184.881C231.58 184.881 231.285 184.585 231.285 184.216V172.348C231.285 171.982 231.58 171.684 231.946 171.684Z" fill="#FBF5E6"/>
<path d="M320.429 252.795C311.737 247.65 286.442 239.563 281.185 232.376C275.929 225.184 276.433 208.358 276.433 208.358H242.56C242.56 208.358 243.065 225.184 237.808 232.376C234.806 236.481 225.268 240.876 216.02 244.854V276.377H334.654C334.654 276.377 329.118 257.938 320.429 252.795Z" fill="#F9AF6F"/>
<path d="M275.139 151.593C268.286 155.126 250.807 155.182 243.982 151.593C238.562 148.739 238.082 132.321 242.05 127.26C244.708 123.873 253.473 120.623 259.487 120.523C265.629 120.421 274.472 123.805 277.071 127.26C280.928 132.384 280.066 149.052 275.139 151.593Z" fill="#341A13"/>
<path d="M275.547 137.559C273.51 136.486 271.118 135.603 268.651 134.956C269.327 134.953 270.06 134.782 270.684 134.559C271.413 134.297 272.268 134.054 273.043 134.054C273.747 134.054 274.384 134.256 274.799 134.829C275.288 135.506 275.208 136.427 275.436 137.231C275.47 137.344 275.507 137.453 275.547 137.559ZM249.969 135.163C250.184 134.997 250.405 134.84 250.633 134.691C250.931 134.499 251.294 134.322 251.636 134.322C251.786 134.322 251.934 134.357 252.066 134.442L252.199 134.613C251.451 134.774 250.707 134.957 249.969 135.163ZM267.261 134.62C264.708 134.048 262.139 133.738 259.863 133.738C259.743 133.738 259.62 133.738 259.497 133.74C259.464 133.742 259.427 133.742 259.39 133.743C259.682 133.423 259.971 133.099 260.263 132.785C261.324 131.65 262.604 130.558 264.154 130.414C264.243 130.405 264.332 130.402 264.422 130.402C265.089 130.402 265.781 130.634 266.135 131.19C266.649 131.997 266.255 133.117 266.679 133.974C266.821 134.256 267.021 134.466 267.261 134.62Z" fill="#261310"/>
<path d="M278.275 168.228C270.047 172.074 249.083 172.134 240.895 168.228C234.39 165.123 234.276 147.677 238.579 141.755C242.31 136.612 252.285 133.848 259.495 133.74C266.864 133.628 277.608 136.911 280.591 141.755C284.423 147.977 284.184 165.465 278.275 168.228Z" fill="#F9AF20"/>
<path d="M290.21 187.757C289.503 195.716 286.03 201.816 283.053 200.88C280.088 199.949 281.601 194.654 281.358 189.542C281.051 183.092 280.746 178.176 284.631 178.53C288.515 178.884 290.724 181.997 290.21 187.757Z" fill="#F9AF6F"/>
<path d="M228.78 187.757C229.487 195.716 232.957 201.816 235.934 200.88C238.902 199.949 237.392 194.654 237.632 189.542C237.939 183.092 238.244 178.176 234.356 178.53C230.475 178.884 228.269 181.997 228.78 187.757Z" fill="#F9AF6F"/>
<path d="M276.704 216.244C276.568 214.648 276.498 213.18 276.458 211.955C276.498 213.18 276.568 214.648 276.704 216.244ZM242.289 216.24C242.289 216.236 242.289 216.23 242.289 216.225C242.289 216.23 242.289 216.236 242.289 216.24ZM242.289 216.224C242.421 214.636 242.495 213.175 242.532 211.955C242.495 213.175 242.421 214.636 242.289 216.224Z" fill="#F1BA85"/>
<path d="M259.495 228.111C251.806 228.111 246.682 221.321 242.277 216.381C242.28 216.333 242.283 216.287 242.29 216.24C242.29 216.235 242.29 216.229 242.29 216.224V216.223C242.422 214.635 242.496 213.174 242.533 211.954C242.674 212.1 242.819 212.242 242.963 212.382C248.226 217.462 252.049 222.778 259.495 222.778C266.942 222.778 270.765 217.462 276.028 212.382C276.175 212.242 276.317 212.1 276.458 211.954C276.498 213.179 276.569 214.647 276.704 216.243C276.707 216.289 276.713 216.335 276.716 216.381C272.598 221.425 267.188 228.111 259.495 228.111Z" fill="#F79051"/>
<path d="M259.492 222.779C266.939 222.779 270.762 217.463 276.025 212.383C282.078 206.544 285.387 196.216 285.387 185.093C285.387 162.276 273.795 154.264 259.492 154.264C245.193 154.264 233.598 162.276 233.598 185.093C233.598 196.216 236.913 206.544 242.96 212.383C248.223 217.463 252.046 222.779 259.492 222.779Z" fill="#F9AF6F"/>
<path d="M288.308 156.4C283.82 141.098 265.969 139.044 259.494 139.909C253.026 139.044 235.171 141.098 230.684 156.4C223.207 162.006 230.896 177.984 231.797 179.854C231.797 179.854 233.255 181.933 233.683 186.138C234.264 188.552 235.027 187.232 235.35 182.402C235.666 177.572 236.217 165.9 242.132 162.863C246.862 160.436 255.754 158.355 259.494 155.39C263.234 158.355 272.129 160.436 276.86 162.863C282.778 165.9 283.325 177.572 283.645 182.402C283.962 187.232 284.725 188.552 285.309 186.138C285.736 181.933 287.194 179.854 287.194 179.854C288.092 177.984 295.782 162.006 288.308 156.4Z" fill="#341A13"/>
<path d="M291.545 163.266C291.536 163.232 291.526 163.198 291.514 163.165C291.342 160.445 290.444 158 288.309 156.399C287.128 152.373 285.024 149.266 282.444 146.886C282.441 146.875 282.441 146.865 282.438 146.854C285.033 149.239 287.153 152.356 288.337 156.399C290.496 158.02 291.388 160.505 291.545 163.266Z" fill="#B0A08B"/>
<path d="M282.441 146.887C276.607 141.505 268.348 139.848 262.87 139.746C268.336 139.844 276.594 141.49 282.435 146.854C282.438 146.865 282.438 146.876 282.441 146.887ZM242.195 143.048C242.195 143.048 242.198 143.047 242.198 143.046C242.198 143.047 242.195 143.048 242.195 143.048ZM242.22 143.036C242.223 143.035 242.226 143.032 242.229 143.031C242.226 143.034 242.223 143.035 242.22 143.036ZM242.241 143.025C242.248 143.023 242.254 143.019 242.26 143.017C242.254 143.02 242.248 143.023 242.241 143.025ZM242.266 143.013C242.272 143.01 242.281 143.006 242.288 143.002C242.281 143.006 242.272 143.01 242.266 143.013ZM242.294 143C242.3 142.997 242.309 142.992 242.318 142.988C242.309 142.992 242.3 142.997 242.294 143ZM242.324 142.985C242.334 142.981 242.34 142.977 242.346 142.974C242.34 142.977 242.331 142.981 242.324 142.985ZM242.349 142.973C242.832 142.737 243.315 142.518 243.804 142.313C243.315 142.517 242.829 142.738 242.349 142.973ZM243.804 142.312C243.816 142.308 243.825 142.304 243.835 142.3C243.825 142.304 243.816 142.308 243.804 142.312ZM243.841 142.297C243.847 142.294 243.856 142.291 243.862 142.288C243.856 142.291 243.847 142.294 243.841 142.297ZM243.875 142.284C243.881 142.28 243.887 142.278 243.893 142.274C243.887 142.278 243.881 142.28 243.875 142.284ZM243.902 142.271C243.908 142.268 243.918 142.266 243.924 142.262C243.918 142.266 243.908 142.268 243.902 142.271ZM243.936 142.257C243.942 142.255 243.948 142.253 243.955 142.25C243.945 142.253 243.942 142.255 243.936 142.257ZM243.97 142.243C243.976 142.242 243.979 142.24 243.982 142.238C243.979 142.241 243.976 142.242 243.97 142.243ZM244.004 142.23C244.007 142.229 244.01 142.228 244.013 142.226C244.01 142.228 244.007 142.229 244.004 142.23ZM244.035 142.218C244.035 142.217 244.041 142.214 244.044 142.213C244.041 142.216 244.038 142.216 244.035 142.218ZM244.068 142.204C244.068 142.202 244.072 142.202 244.072 142.201C244.072 142.202 244.068 142.202 244.068 142.204ZM244.099 142.19L244.102 142.189C244.102 142.189 244.102 142.189 244.099 142.19ZM259.493 139.909C259.407 139.897 259.315 139.886 259.223 139.875V139.872L259.509 139.906C259.503 139.908 259.499 139.908 259.493 139.909Z" fill="#BE801A"/>
<path d="M227.473 163.266C227.633 160.505 228.525 158.02 230.684 156.399C232.649 149.695 237.18 145.535 242.196 143.048C242.196 143.048 242.199 143.046 242.199 143.045C242.205 143.041 242.215 143.039 242.221 143.036C242.224 143.034 242.227 143.033 242.23 143.031C242.233 143.028 242.236 143.027 242.242 143.024C242.249 143.022 242.255 143.02 242.261 143.016C242.261 143.015 242.264 143.014 242.267 143.012C242.273 143.009 242.282 143.005 242.289 143.002C242.292 143 242.292 142.999 242.295 142.999C242.301 142.996 242.31 142.991 242.319 142.987C242.319 142.986 242.322 142.985 242.325 142.984C242.332 142.98 242.341 142.976 242.347 142.973L242.35 142.972C242.83 142.737 243.316 142.516 243.805 142.312V142.311C243.817 142.307 243.826 142.304 243.836 142.299C243.836 142.299 243.839 142.298 243.842 142.296C243.848 142.293 243.857 142.291 243.863 142.287C243.869 142.286 243.869 142.284 243.876 142.283C243.882 142.28 243.888 142.277 243.894 142.274C243.897 142.272 243.9 142.271 243.903 142.27C243.909 142.268 243.919 142.265 243.925 142.262C243.928 142.26 243.931 142.258 243.937 142.257C243.943 142.255 243.946 142.252 243.956 142.25C243.959 142.247 243.965 142.245 243.971 142.243C243.977 142.241 243.98 142.24 243.983 142.238C243.989 142.234 243.999 142.232 244.005 142.229C244.008 142.228 244.011 142.227 244.014 142.226C244.02 142.222 244.026 142.22 244.036 142.217C244.039 142.215 244.042 142.215 244.045 142.212C244.051 142.209 244.06 142.205 244.069 142.203C244.069 142.202 244.072 142.202 244.072 142.2C244.082 142.197 244.091 142.193 244.1 142.19C244.103 142.188 244.103 142.188 244.103 142.188C248.591 140.36 253.247 139.741 256.665 139.741C257.627 139.741 258.492 139.79 259.224 139.874C259.316 139.885 259.408 139.896 259.494 139.908C259.5 139.907 259.503 139.907 259.51 139.906L259.796 139.872V139.874C260.531 139.79 261.392 139.741 262.355 139.741C262.524 139.741 262.696 139.742 262.871 139.746C268.349 139.848 276.608 141.505 282.442 146.886C285.023 149.266 287.127 152.373 288.308 156.399C290.442 158 291.341 160.445 291.513 163.165C290.75 160.752 288.948 158.65 286.592 157.691C286.93 154.448 285.767 151.079 283.5 148.739C281.412 146.58 278.422 145.33 275.42 145.33C275.165 145.33 274.907 145.34 274.652 145.358C272.991 142.96 270.241 141.454 267.374 141.074C267.202 141.051 267.024 141.04 266.833 141.04C264.209 141.04 259.931 143.061 259.51 143.061C259.088 143.061 254.81 141.04 252.186 141.04C251.996 141.04 251.814 141.051 251.645 141.074C248.778 141.454 246.029 142.96 244.365 145.358C244.109 145.34 243.854 145.33 243.599 145.33C240.6 145.33 237.607 146.58 235.519 148.739C233.252 151.079 232.089 154.448 232.431 157.691C230.041 158.663 228.217 160.81 227.473 163.266Z" fill="#261310"/>
<path d="M235.133 171.387C237.591 169.123 237.209 166.976 235.656 166.797C236.074 165.846 236.603 164.949 237.265 164.145C241.146 159.426 248.365 159.134 253.169 155.351C255.027 153.885 256.9 151.78 259.149 151.78C259.37 151.78 259.595 151.801 259.825 151.842C260.966 152.058 261.905 152.831 262.883 153.45C267.441 156.335 273.552 156.182 277.788 159.527C281.1 162.144 282.555 166.331 283.306 170.573C282.832 170.399 282.349 170.247 281.857 170.118C280.885 166.94 279.344 164.138 276.859 162.863C272.128 160.436 263.233 158.354 259.493 155.389C255.753 158.354 246.861 160.436 242.131 162.863C239.528 164.198 237.966 167.203 237.003 170.562C236.36 170.797 235.733 171.073 235.133 171.387ZM228.41 170.798C228.311 170.427 228.219 170.051 228.133 169.671C228.265 170.017 228.407 170.358 228.563 170.693C228.511 170.729 228.459 170.763 228.41 170.798Z" fill="#1E100E"/>
<path d="M166.047 317.023C166.973 316.759 167.935 316.428 168.932 316.028C178.141 313.38 189.318 307.129 200.068 298.764C188.245 308.271 175.819 314.748 166.047 317.023Z" fill="#F0C887"/>
<path d="M242.041 218.102C237.246 241.618 260.48 242.604 260.806 244.566C265.256 271.275 271.931 355.117 271.931 355.117H201.672C201.672 355.117 201.53 338.114 202.48 311.418C203.578 280.611 202.631 243.962 204.756 239.82C210.308 228.993 240.924 223.564 242.041 218.102Z" fill="#F9AF20"/>
<path d="M202.062 324.818C202.176 318.11 202.342 310.824 202.598 303.534C202.681 301.2 202.745 298.881 202.801 296.58C202.822 296.561 202.844 296.545 202.865 296.528C202.773 301.532 202.653 306.545 202.478 311.415C202.309 316.21 202.17 320.69 202.062 324.818Z" fill="#F0C887"/>
<path d="M210.965 355.117H201.873C201.873 355.117 201.784 341.842 202.064 324.821C202.171 320.693 202.31 316.213 202.479 311.418C202.654 306.548 202.774 301.534 202.866 296.53C203.291 296.183 203.715 295.828 204.14 295.475C206.717 322.865 209.113 348.116 210.965 355.117" fill="#F79821"/>
<path d="M276.944 217.861C281.739 241.378 258.505 242.358 258.179 244.321C253.725 271.034 247.051 354.873 247.051 354.873H317.313C317.313 354.873 317.455 337.874 316.504 311.17C315.409 280.369 316.354 243.718 314.228 239.576C308.68 228.752 278.057 223.32 276.944 217.861Z" fill="#F9AF20"/>
<path d="M203.057 299.793L202.295 299.787C202.507 279.54 201.959 273.412 201.953 273.355L202.716 273.28C202.719 273.342 203.27 279.491 203.057 299.793Z" fill="#AA6923"/>
<path d="M242.441 197.799C240.177 197.799 238.058 197.19 236.234 196.127L254.778 184.911C254.787 185.091 254.79 185.272 254.79 185.454C254.79 192.272 249.263 197.799 242.441 197.799Z" fill="#FBC595"/>
<path d="M233.764 194.23C233.041 193.516 232.407 192.712 231.875 191.837L233.883 190.644C233.994 191.743 234.142 192.827 234.32 193.893L233.764 194.23Z" fill="#FBC595"/>
<path d="M234.32 193.893C234.141 192.827 233.994 191.743 233.883 190.644L253.103 179.215C253.583 180.034 253.971 180.912 254.253 181.838L234.32 193.893Z" fill="#FBC595"/>
<path d="M230.117 186.094C230.108 185.882 230.102 185.67 230.102 185.455C230.102 183.294 230.655 181.265 231.63 179.498C231.701 179.647 231.759 179.767 231.799 179.855C231.799 179.855 232.799 181.278 233.383 184.151L230.117 186.094Z" fill="#FBC595"/>
<path d="M235.305 183.008C235.32 182.812 235.335 182.611 235.351 182.402C235.471 180.587 235.621 177.802 236.08 174.872C237.938 173.753 240.118 173.108 242.443 173.108C244.812 173.108 247.02 173.772 248.899 174.925L235.305 183.008Z" fill="#FBC595"/>
<path d="M233.382 184.15C232.798 181.278 231.798 179.854 231.798 179.854C231.758 179.766 231.7 179.646 231.629 179.497C231.7 179.646 231.758 179.766 231.798 179.854C231.798 179.854 232.798 181.278 233.382 184.15Z" fill="#B1886E"/>
<path d="M233.382 184.15C232.798 181.278 231.798 179.854 231.798 179.854C231.758 179.766 231.7 179.646 231.629 179.497C232.681 177.591 234.219 175.993 236.08 174.872C235.621 177.802 235.471 180.587 235.351 182.402C235.335 182.611 235.32 182.812 235.304 183.008L233.382 184.15Z" fill="#594B44"/>
<path d="M234.5 194.906C234.245 194.691 233.999 194.467 233.762 194.232L234.318 193.895C234.377 194.234 234.438 194.571 234.5 194.906Z" fill="#FCD5B3"/>
<path d="M236.237 196.127C235.621 195.769 235.043 195.36 234.502 194.905C234.44 194.57 234.379 194.232 234.32 193.893L254.254 181.839C254.553 182.816 254.734 183.845 254.78 184.91L236.237 196.127Z" fill="#FCD5B3"/>
<path d="M231.873 191.838C230.848 190.146 230.221 188.188 230.113 186.092L233.38 184.15C233.463 184.558 233.537 184.994 233.601 185.46C233.613 187.214 233.706 188.947 233.881 190.645L231.873 191.838Z" fill="#FCD5B3"/>
<path d="M233.885 190.645C233.71 188.947 233.618 187.214 233.605 185.46C233.633 185.679 233.661 185.906 233.685 186.138C233.876 186.926 234.085 187.316 234.291 187.316C234.691 187.316 235.082 185.86 235.306 183.007L248.901 174.924C250.63 175.986 252.078 177.463 253.106 179.215L233.885 190.645Z" fill="#FCD5B3"/>
<path d="M234.29 187.316C234.084 187.316 233.875 186.926 233.684 186.138C233.61 185.412 233.506 184.75 233.383 184.15L235.305 183.007C235.081 185.86 234.69 187.316 234.29 187.316Z" fill="#877D77"/>
<path d="M242.444 197.798C235.628 197.798 230.101 192.271 230.101 185.453C230.101 178.634 235.628 173.107 242.444 173.107C249.266 173.107 254.793 178.634 254.793 185.453C254.793 192.271 249.266 197.798 242.444 197.798ZM242.444 169.603C233.693 169.603 226.598 176.699 226.598 185.453C226.598 194.207 233.693 201.303 242.444 201.303C251.201 201.303 258.296 194.207 258.296 185.453C258.296 176.699 251.201 169.603 242.444 169.603Z" fill="#28292A"/>
<path d="M284.27 195.992C284.829 193.39 285.183 190.654 285.321 187.844L290.169 184.912C290.178 185.092 290.181 185.273 290.181 185.454C290.181 189.915 287.816 193.823 284.27 195.992Z" fill="#FBC595"/>
<path d="M277.834 197.799C275.57 197.799 273.448 197.19 271.624 196.126L285.32 187.843C285.182 190.654 284.828 193.389 284.268 195.992C282.395 197.138 280.193 197.799 277.834 197.799ZM269.151 194.23C268.431 193.516 267.795 192.713 267.266 191.838L283.626 182.111C283.632 182.211 283.638 182.308 283.644 182.402C283.721 183.57 283.822 184.532 283.942 185.287L269.151 194.23Z" fill="#FBC595"/>
<path d="M289.502 181.926C289.078 180.974 288.484 180.218 287.746 179.662L288.493 179.216C288.973 180.036 289.361 180.915 289.644 181.841L289.502 181.926Z" fill="#F4EDD9"/>
<path d="M285.582 184.297C286.037 181.981 286.763 180.575 287.061 180.068L287.747 179.662C288.486 180.218 289.079 180.974 289.504 181.925L285.582 184.297Z" fill="#FBC595"/>
<path d="M283.946 185.287C283.826 184.533 283.724 183.57 283.647 182.402C283.641 182.309 283.635 182.211 283.629 182.112L287.061 180.069C286.763 180.576 286.037 181.982 285.582 184.298L283.946 185.287Z" fill="#594B44"/>
<path d="M265.508 186.094C265.495 185.882 265.492 185.67 265.492 185.455C265.492 178.635 271.016 173.108 277.835 173.108C279.601 173.108 281.277 173.478 282.793 174.144C282.882 174.658 282.962 175.17 283.033 175.673L265.508 186.094Z" fill="#FBC595"/>
<path d="M284.063 175.062C284.02 174.952 283.983 174.839 283.949 174.724C284.066 174.79 284.177 174.857 284.291 174.927L284.063 175.062Z" fill="#6A5448"/>
<path d="M283.033 175.672C282.962 175.168 282.882 174.657 282.793 174.142C283.19 174.317 283.574 174.51 283.946 174.723C283.98 174.838 284.017 174.951 284.06 175.062L283.033 175.672Z" fill="#594B44"/>
<path d="M290.054 183.691C289.924 183.043 289.74 182.454 289.5 181.925L289.642 181.84C289.826 182.438 289.964 183.058 290.054 183.691Z" fill="#F6F2E3"/>
<path d="M285.32 187.844C285.36 187.055 285.382 186.26 285.388 185.461C285.443 185.05 285.508 184.663 285.579 184.298L289.5 181.927C289.74 182.455 289.925 183.044 290.054 183.693C290.112 184.094 290.149 184.5 290.168 184.912L285.32 187.844Z" fill="#FCD5B3"/>
<path d="M271.625 196.125C270.724 195.598 269.894 194.96 269.152 194.229L283.944 185.285C284.159 186.632 284.43 187.316 284.703 187.316C284.909 187.316 285.119 186.925 285.309 186.137C285.334 185.905 285.358 185.679 285.389 185.46C285.383 186.259 285.362 187.053 285.322 187.842L271.625 196.125Z" fill="#FCD5B3"/>
<path d="M284.705 187.316C284.431 187.316 284.161 186.633 283.945 185.286L285.582 184.297C285.471 184.858 285.379 185.471 285.311 186.138C285.12 186.926 284.911 187.316 284.705 187.316Z" fill="#877D77"/>
<path d="M267.267 191.838C266.243 190.146 265.615 188.188 265.508 186.092L283.033 175.672C283.381 178.152 283.519 180.471 283.627 182.111L267.267 191.838Z" fill="#FCD5B3"/>
<path d="M287.743 179.662C287.629 179.578 287.515 179.498 287.398 179.424C287.531 179.14 287.706 178.766 287.906 178.313C288.115 178.605 288.309 178.906 288.49 179.216L287.743 179.662Z" fill="#F6F2E3"/>
<path d="M287.059 180.066C287.145 179.923 287.194 179.851 287.194 179.851C287.243 179.749 287.314 179.605 287.4 179.422C287.517 179.497 287.631 179.576 287.744 179.66L287.059 180.066Z" fill="#FCD5B3"/>
<path d="M285.821 176.447C285.258 176.447 284.671 176.093 284.342 175.609C284.225 175.436 284.132 175.252 284.059 175.061L284.286 174.925C284.975 175.348 285.621 175.838 286.212 176.385C286.086 176.427 285.953 176.447 285.821 176.447Z" fill="#94847A"/>
<path d="M287.398 179.426C287.398 179.425 287.398 179.426 287.398 179.425C287.531 179.142 287.706 178.766 287.906 178.315C287.706 178.768 287.531 179.142 287.398 179.426Z" fill="#C2B8AC"/>
<path d="M287.059 180.066C287.145 179.923 287.194 179.851 287.194 179.851C287.243 179.749 287.314 179.605 287.4 179.421C287.4 179.422 287.4 179.421 287.4 179.422C287.314 179.605 287.243 179.749 287.194 179.851C287.194 179.851 287.145 179.923 287.059 180.066Z" fill="#C7A994"/>
<path d="M283.625 182.109C283.517 180.469 283.379 178.151 283.031 175.671L284.059 175.06C284.132 175.251 284.225 175.435 284.342 175.608C284.671 176.092 285.258 176.447 285.821 176.447C285.953 176.447 286.085 176.426 286.212 176.384C286.842 176.966 287.408 177.612 287.906 178.311C287.706 178.763 287.531 179.139 287.399 179.421C287.313 179.605 287.242 179.75 287.193 179.852C287.193 179.852 287.144 179.924 287.057 180.067L283.625 182.109Z" fill="#877D77"/>
<path d="M277.834 197.798C271.015 197.798 265.491 192.271 265.491 185.453C265.491 178.634 271.015 173.107 277.834 173.107C284.653 173.107 290.18 178.634 290.18 185.453C290.18 192.271 284.653 197.798 277.834 197.798ZM277.834 169.603C269.083 169.603 261.984 176.699 261.984 185.453C261.984 194.207 269.083 201.303 277.834 201.303C286.587 201.303 293.686 194.207 293.686 185.453C293.686 176.699 286.587 169.603 277.834 169.603Z" fill="#28292A"/>
<path d="M267.68 175.503C268.914 174.421 270.245 173.273 271.66 172.361L270.104 170.9C264.521 165.669 255.752 165.636 250.13 170.826L248.195 172.614C249.647 173.473 250.994 174.561 252.178 175.758L253.535 174.51C257.229 171.095 263.002 171.117 266.671 174.559L267.68 175.503Z" fill="#28292A"/>
<path d="M260.143 171.705C258.891 171.705 257.879 170.691 257.879 169.442C257.879 168.191 258.891 167.177 260.143 167.177C261.394 167.177 262.409 168.191 262.409 169.442C262.409 170.691 261.394 171.705 260.143 171.705Z" fill="#363739"/>
<path d="M185.828 219.907C185.828 219.907 198.389 216.528 208.533 229.085L197.664 239.955L185.828 219.907Z" fill="#F79524"/>
<path d="M228.777 268.628C210.495 295.811 175.219 319.329 158.084 317.302C144.748 315.724 140.442 298.096 145.012 288.017C147.393 282.767 187.135 253.92 203.464 239.109C212.47 230.938 217.772 230.31 224.484 227.459C231.324 224.549 228.777 268.628 228.777 268.628Z" fill="#F9AF20"/>
<path d="M214.168 183.157L214.503 183.308C214.802 183.442 215.106 183.57 215.405 183.694C216.687 184.225 217.997 184.695 219.295 185.187C220.092 185.489 220.898 185.8 221.694 186.139C224.05 182.086 230.786 174.714 234.339 172.048C238.577 168.867 236.919 165.566 233.964 167.233C231.005 168.898 220.901 175.648 218.339 179.119C217.539 180.202 215.924 181.554 213.98 183.063L214.168 183.157Z" fill="#F9AF6F"/>
<path d="M230.668 175.318V175.317V175.318ZM230.696 175.291C230.696 175.291 230.699 175.291 230.699 175.289L230.696 175.291ZM230.723 175.265C230.726 175.263 230.726 175.261 230.73 175.258C230.726 175.261 230.726 175.262 230.723 175.265ZM230.751 175.237C230.754 175.234 230.754 175.233 230.757 175.232C230.754 175.233 230.754 175.234 230.751 175.237ZM230.773 175.216C232.064 173.941 233.279 172.85 234.26 172.105C233.279 172.85 232.064 173.943 230.773 175.216ZM234.267 172.1C234.273 172.096 234.276 172.093 234.279 172.091C234.276 172.093 234.273 172.096 234.267 172.1ZM234.291 172.081C234.294 172.08 234.294 172.078 234.297 172.077C234.294 172.078 234.294 172.08 234.291 172.081ZM234.313 172.065C234.316 172.064 234.316 172.062 234.319 172.061C234.316 172.062 234.316 172.064 234.313 172.065ZM234.337 172.048C234.34 172.043 234.347 172.038 234.353 172.035C234.347 172.038 234.344 172.043 234.337 172.048ZM234.359 172.03C234.365 172.027 234.368 172.024 234.371 172.021C234.368 172.024 234.365 172.027 234.359 172.03ZM234.377 172.015C234.383 172.012 234.39 172.008 234.393 172.003C234.39 172.008 234.383 172.012 234.377 172.015ZM234.402 171.997C234.405 171.995 234.408 171.994 234.408 171.993C234.408 171.994 234.405 171.995 234.402 171.997Z" fill="#27211E"/>
<path d="M221.755 186.033C221.521 185.675 221.275 185.323 221.02 184.982C221.056 184.984 221.096 184.985 221.133 184.985C222.299 184.985 222.434 183.82 222.868 182.086C223.345 180.187 223.622 179.567 226.119 178.851C228.614 178.136 231.609 172.946 233.055 172.21C234.313 171.57 236.531 170.008 236.678 167.42C237.247 168.35 236.78 170.168 234.448 171.963C234.436 171.972 234.424 171.982 234.408 171.993C234.408 171.994 234.405 171.995 234.402 171.998C234.399 171.999 234.396 172.002 234.393 172.003C234.39 172.008 234.384 172.012 234.378 172.015C234.378 172.018 234.374 172.019 234.371 172.022C234.368 172.024 234.365 172.027 234.359 172.03C234.359 172.031 234.356 172.032 234.353 172.035C234.347 172.039 234.341 172.043 234.338 172.048C234.331 172.052 234.325 172.056 234.319 172.061C234.316 172.063 234.316 172.064 234.313 172.065C234.31 172.068 234.304 172.073 234.298 172.077C234.294 172.078 234.294 172.08 234.291 172.082C234.288 172.085 234.282 172.088 234.279 172.091C234.276 172.094 234.273 172.096 234.267 172.1C234.264 172.102 234.264 172.103 234.261 172.106C233.279 172.851 232.065 173.942 230.773 175.216C230.767 175.221 230.764 175.226 230.757 175.232C230.754 175.233 230.754 175.234 230.751 175.237C230.745 175.244 230.736 175.251 230.73 175.258C230.727 175.261 230.727 175.263 230.724 175.266C230.714 175.273 230.705 175.281 230.699 175.29C230.699 175.291 230.696 175.291 230.696 175.291C230.687 175.299 230.677 175.309 230.668 175.317V175.319C227.319 178.633 223.468 183.139 221.755 186.033Z" fill="#F79051"/>
<path d="M185.109 254.396L185.122 253.957C189.535 250.708 193.654 247.039 197.865 243.545C198.898 242.683 201.186 240.887 203.484 239.091C203.478 239.097 203.472 239.103 203.465 239.109C198.79 243.348 192.196 248.74 185.109 254.396Z" fill="#F0C887"/>
<path d="M184.301 288.781L185.107 254.395C192.193 248.739 198.788 243.347 203.463 239.108C203.469 239.102 203.475 239.096 203.481 239.09C206.486 236.74 209.503 234.393 209.74 234.157C203.943 242.126 196.936 266.519 184.301 288.781Z" fill="#F79821"/>
<path d="M238.938 200.71C229.747 203.196 219.459 201.046 222.221 192.899L222.15 192.81L221.818 192.402L221.178 191.655C220.736 191.147 220.28 190.647 219.825 190.148C218.152 188.317 216.362 186.479 215.064 184.344C210.582 185.162 205.775 186.134 202.899 187.846C199.325 187.733 197.086 204.385 194.872 208.692C193.472 211.408 187.278 221.251 183.242 228.169C190.101 233.757 194.063 235.073 202.844 237.008C205.671 229.094 210.85 220.257 213.12 217.793C217.029 213.552 225.312 214.029 231.47 210.9C235.29 208.959 239.239 205.611 244.889 204.857C250.207 204.148 248.1 198.232 238.938 200.71Z" fill="#F9AF6F"/>
<path d="M230.706 201.658C230.7 201.657 230.694 201.657 230.688 201.657C230.694 201.657 230.7 201.657 230.706 201.658Z" fill="#FBC594"/>
<path d="M225.883 200.709C224.662 200.229 223.65 199.567 222.934 198.715C222.934 198.713 222.934 198.713 222.934 198.713C223.65 199.567 224.662 200.229 225.886 200.709C225.883 200.709 225.883 200.709 225.883 200.709Z" fill="#F1BA85"/>
<path d="M230.678 201.656C228.9 201.564 227.261 201.252 225.883 200.71C225.883 200.71 225.883 200.71 225.886 200.71C227.261 201.252 228.9 201.564 230.678 201.656Z" fill="#FBC594"/>
<path d="M210.789 207.746C210.734 207.746 210.679 207.741 210.633 207.732C209.399 207.486 209.153 206.296 209.153 206.296C209.153 206.296 206.154 206.692 205.419 207.077C205.096 207.246 204.906 207.412 204.746 207.412C204.543 207.412 204.392 207.149 204.087 206.296C203.543 204.765 205.838 202.8 205.838 202.8C205.838 202.8 206.148 202.653 206.69 202.396C206.056 202.901 205.395 203.47 204.952 203.99C204.949 203.995 204.946 203.998 204.943 204.001V204.002C204.939 204.006 204.936 204.01 204.933 204.012C204.933 204.013 204.933 204.013 204.933 204.013C204.93 204.017 204.927 204.02 204.924 204.024C204.921 204.028 204.918 204.031 204.915 204.035C204.915 204.035 204.915 204.035 204.915 204.036C204.912 204.038 204.909 204.042 204.906 204.046C204.906 204.047 204.906 204.047 204.906 204.047C204.663 204.363 204.586 204.722 204.613 205.063C204.626 205.217 204.66 205.367 204.709 205.508C204.709 205.505 204.709 205.503 204.709 205.5C204.89 206.021 205.284 206.417 205.616 206.417C205.653 206.417 205.69 206.412 205.727 206.402C207.059 206.106 208.341 205.791 209.461 205.342C209.587 206.308 210.473 207.077 211.069 207.077C211.18 207.077 211.279 207.052 211.362 206.998C213.668 205.749 216.166 204.04 217.716 202.151C218.128 202.729 218.839 203.051 219.368 203.051C219.623 203.051 219.832 202.976 219.949 202.819C221.013 201.59 222.087 200.167 222.933 198.714C223.649 199.566 224.661 200.227 225.882 200.708C227.26 201.25 228.899 201.561 230.677 201.654C230.68 201.655 230.683 201.655 230.687 201.655C230.693 201.655 230.699 201.655 230.705 201.656C231.08 201.675 231.459 201.683 231.846 201.683C232.111 201.683 232.381 201.68 232.652 201.67C232.04 201.907 231.335 201.996 230.591 201.996C229.459 201.996 228.229 201.792 227.063 201.588C225.898 201.383 224.796 201.179 223.923 201.179C223.403 201.179 222.963 201.251 222.64 201.44C221.321 202.205 220.463 203.641 219.208 203.641C218.78 203.641 218.304 203.473 217.747 203.051C215.692 204.941 212.158 207.746 210.789 207.746Z" fill="#F79051"/>
<path d="M203.038 236.625H202.988C203.385 235.533 203.828 234.423 204.299 233.319L204.348 233.273C203.877 234.389 203.434 235.515 203.038 236.625Z" fill="#F2C291"/>
<path d="M204.297 233.318C205.118 231.396 206.029 229.486 206.954 227.684C206.044 229.464 205.152 231.359 204.346 233.273L204.297 233.318Z" fill="#F58024"/>
<path d="M201.137 236.625H200.992L201.02 236.601C201.06 236.607 201.097 236.615 201.137 236.625Z" fill="#F2C291"/>
<path d="M200.993 236.625H200.734C200.744 236.597 200.75 236.566 200.759 236.539C200.845 236.558 200.934 236.579 201.02 236.601L200.993 236.625Z" fill="#F58024"/>
<path d="M213.082 217.836C213.082 217.836 213.082 217.836 213.082 217.835C213.082 217.836 213.082 217.836 213.082 217.836ZM213.085 217.833C213.097 217.819 213.11 217.805 213.122 217.791C217.031 213.55 225.314 214.027 231.472 210.899C233.733 209.751 236.036 208.111 238.709 206.806C236.036 208.111 233.733 209.751 231.472 210.899C225.314 214.027 217.031 213.55 213.122 217.791C213.11 217.805 213.097 217.819 213.085 217.833Z" fill="#F2C291"/>
<path d="M238.711 206.809C240.559 205.908 242.586 205.166 244.893 204.858C244.902 204.858 244.909 204.856 244.918 204.855C244.909 204.856 244.902 204.858 244.893 204.858C242.586 205.166 240.559 205.908 238.711 206.809ZM244.927 204.854C244.93 204.853 244.936 204.851 244.942 204.851C244.936 204.851 244.93 204.853 244.927 204.854ZM244.952 204.85C244.955 204.849 244.961 204.849 244.964 204.848C244.961 204.849 244.955 204.849 244.952 204.85ZM244.976 204.847C244.979 204.846 244.985 204.846 244.989 204.844C244.985 204.846 244.979 204.846 244.976 204.847ZM244.998 204.843C245.004 204.842 245.01 204.842 245.013 204.841C245.01 204.842 245.004 204.842 244.998 204.843ZM245.022 204.839C245.032 204.838 245.038 204.837 245.044 204.836C245.038 204.837 245.032 204.838 245.022 204.839ZM245.056 204.835C245.059 204.834 245.062 204.834 245.069 204.832C245.062 204.834 245.059 204.834 245.056 204.835ZM245.081 204.831C245.084 204.83 245.087 204.83 245.09 204.829C245.087 204.83 245.084 204.83 245.081 204.831ZM245.102 204.826C245.105 204.826 245.109 204.826 245.112 204.825C245.109 204.826 245.105 204.826 245.102 204.826ZM245.127 204.823C245.127 204.823 245.13 204.823 245.133 204.822C245.13 204.823 245.127 204.823 245.127 204.823ZM245.185 204.813C245.185 204.812 245.188 204.812 245.192 204.812C245.188 204.812 245.185 204.812 245.185 204.813ZM245.207 204.809C245.207 204.808 245.21 204.808 245.213 204.808C245.21 204.808 245.207 204.808 245.207 204.809ZM245.228 204.805C245.228 204.805 245.232 204.805 245.235 204.804C245.232 204.805 245.228 204.805 245.228 204.805ZM245.25 204.801C245.25 204.801 245.25 204.8 245.253 204.8C245.25 204.8 245.25 204.801 245.25 204.801ZM245.348 204.781C245.351 204.781 245.352 204.781 245.352 204.781C245.352 204.781 245.351 204.781 245.348 204.781ZM246.674 204.301C246.677 204.3 246.677 204.3 246.677 204.299C246.677 204.3 246.677 204.3 246.674 204.301ZM246.689 204.293C246.689 204.293 246.689 204.292 246.693 204.292C246.689 204.292 246.689 204.293 246.689 204.293ZM246.702 204.284C246.702 204.284 246.705 204.284 246.705 204.283C246.705 204.284 246.705 204.284 246.702 204.284ZM246.742 204.262C246.742 204.262 246.742 204.262 246.742 204.26C246.742 204.262 246.742 204.262 246.742 204.262ZM246.751 204.256C246.754 204.254 246.754 204.253 246.757 204.252C246.754 204.253 246.754 204.254 246.751 204.256ZM246.766 204.247C246.766 204.246 246.769 204.245 246.769 204.244C246.769 204.245 246.766 204.246 246.766 204.247ZM246.779 204.238C246.782 204.236 246.782 204.235 246.785 204.235C246.782 204.235 246.782 204.236 246.779 204.238ZM246.794 204.229C246.794 204.228 246.797 204.226 246.8 204.224C246.797 204.226 246.794 204.228 246.794 204.229ZM246.812 204.219C246.812 204.216 246.816 204.214 246.819 204.212C246.816 204.214 246.812 204.216 246.812 204.219ZM246.825 204.209C246.828 204.207 246.831 204.205 246.834 204.204C246.831 204.205 246.828 204.207 246.825 204.209ZM246.84 204.199C246.84 204.198 246.843 204.195 246.846 204.194C246.843 204.195 246.843 204.198 246.84 204.199ZM246.852 204.191C246.856 204.188 246.859 204.186 246.862 204.185C246.859 204.186 246.856 204.188 246.852 204.191ZM246.865 204.181C246.874 204.175 246.883 204.169 246.892 204.163C246.883 204.169 246.874 204.175 246.865 204.181ZM246.895 204.161C246.899 204.158 246.902 204.156 246.908 204.154C246.902 204.156 246.899 204.158 246.895 204.161ZM246.908 204.151C246.914 204.149 246.917 204.146 246.92 204.144C246.917 204.146 246.914 204.149 246.908 204.151ZM246.923 204.142C246.926 204.139 246.932 204.135 246.935 204.133C246.932 204.135 246.926 204.139 246.923 204.142ZM246.935 204.132C247.246 203.908 247.468 203.65 247.603 203.374C247.468 203.65 247.243 203.908 246.935 204.132ZM247.603 203.374C247.609 203.362 247.615 203.35 247.621 203.336C247.615 203.35 247.609 203.362 247.603 203.374ZM247.621 203.335C247.624 203.333 247.624 203.329 247.628 203.326C247.624 203.329 247.624 203.333 247.621 203.335ZM247.628 203.322C247.631 203.32 247.631 203.316 247.631 203.314C247.631 203.316 247.631 203.32 247.628 203.322ZM247.634 203.309C247.634 203.308 247.637 203.305 247.637 203.303C247.637 203.305 247.634 203.308 247.634 203.309ZM247.64 203.297C247.64 203.296 247.64 203.295 247.64 203.293C247.64 203.295 247.64 203.296 247.64 203.297Z" fill="#F79555"/>
<path d="M202.988 236.625H201.136C201.096 236.615 201.059 236.607 201.019 236.601C200.933 236.579 200.844 236.558 200.758 236.539C203.578 226.589 208.899 215.49 210.846 213.796C214.125 210.943 224.5 212.788 230.626 210.405C236.75 208.021 240.155 203.81 242.219 203.367C242.425 203.323 242.631 203.305 242.837 203.305C243.36 203.305 243.874 203.426 244.375 203.549C244.879 203.671 245.372 203.793 245.854 203.793C246.51 203.793 247.146 203.566 247.761 202.803C247.749 202.97 247.709 203.134 247.638 203.294C247.638 203.295 247.638 203.297 247.638 203.298C247.638 203.3 247.635 203.302 247.635 203.304C247.635 203.306 247.632 203.309 247.632 203.31C247.632 203.312 247.632 203.313 247.629 203.314C247.629 203.317 247.629 203.32 247.626 203.323C247.626 203.324 247.626 203.325 247.626 203.326C247.623 203.33 247.623 203.334 247.62 203.336C247.62 203.337 247.62 203.337 247.62 203.337C247.614 203.35 247.608 203.362 247.601 203.375C247.466 203.651 247.245 203.909 246.934 204.133C246.934 204.134 246.934 204.134 246.934 204.134C246.931 204.136 246.925 204.14 246.922 204.142C246.922 204.144 246.919 204.144 246.919 204.144C246.916 204.147 246.912 204.149 246.906 204.152C246.906 204.153 246.906 204.153 246.906 204.154C246.9 204.156 246.897 204.159 246.894 204.161C246.894 204.163 246.891 204.163 246.891 204.164C246.882 204.17 246.872 204.176 246.863 204.182C246.863 204.183 246.86 204.184 246.86 204.185C246.857 204.187 246.854 204.189 246.851 204.192C246.848 204.193 246.848 204.194 246.845 204.195C246.842 204.196 246.839 204.199 246.839 204.2C246.836 204.201 246.833 204.204 246.833 204.205C246.829 204.206 246.826 204.207 246.823 204.209C246.823 204.211 246.82 204.212 246.817 204.213C246.814 204.214 246.811 204.217 246.811 204.219C246.805 204.22 246.802 204.223 246.799 204.225C246.796 204.226 246.793 204.229 246.793 204.23C246.789 204.232 246.786 204.233 246.783 204.236C246.78 204.236 246.78 204.237 246.777 204.238C246.774 204.241 246.771 204.242 246.768 204.244C246.768 204.246 246.765 204.247 246.765 204.248C246.762 204.249 246.759 204.25 246.756 204.253C246.753 204.254 246.753 204.255 246.749 204.256C246.746 204.258 246.743 204.26 246.74 204.261C246.74 204.262 246.74 204.262 246.74 204.262C246.728 204.27 246.716 204.277 246.703 204.284C246.703 204.285 246.7 204.285 246.7 204.285C246.697 204.288 246.694 204.29 246.691 204.292C246.688 204.292 246.688 204.294 246.688 204.294C246.685 204.296 246.679 204.298 246.676 204.3C246.676 204.301 246.676 204.301 246.673 204.302C246.319 204.506 245.879 204.672 245.35 204.781C245.35 204.781 245.35 204.781 245.347 204.781C245.341 204.783 245.335 204.784 245.328 204.786C245.304 204.791 245.276 204.796 245.252 204.801C245.249 204.801 245.248 204.802 245.248 204.802C245.242 204.803 245.236 204.803 245.233 204.804C245.23 204.805 245.227 204.805 245.227 204.805C245.221 204.807 245.215 204.808 245.212 204.809C245.209 204.809 245.205 204.809 245.205 204.81C245.199 204.81 245.193 204.811 245.19 204.813C245.187 204.813 245.184 204.813 245.184 204.814C245.165 204.816 245.15 204.82 245.132 204.822C245.129 204.823 245.125 204.823 245.125 204.823C245.119 204.825 245.116 204.826 245.11 204.826C245.107 204.827 245.104 204.827 245.101 204.827C245.098 204.828 245.092 204.829 245.089 204.829C245.085 204.831 245.082 204.831 245.079 204.832C245.073 204.832 245.07 204.833 245.067 204.833C245.061 204.834 245.058 204.834 245.055 204.836C245.052 204.836 245.046 204.837 245.042 204.837C245.036 204.838 245.03 204.839 245.021 204.84C245.018 204.84 245.015 204.841 245.012 204.841C245.009 204.843 245.002 204.843 244.996 204.844C244.993 204.845 244.99 204.845 244.987 204.845C244.984 204.846 244.978 204.846 244.975 204.848C244.972 204.848 244.966 204.849 244.962 204.849C244.959 204.85 244.953 204.85 244.95 204.851C244.947 204.851 244.944 204.852 244.941 204.852C244.935 204.852 244.929 204.853 244.926 204.855C244.922 204.855 244.919 204.855 244.916 204.856C244.907 204.857 244.901 204.858 244.892 204.858C242.585 205.167 240.558 205.908 238.709 206.809C236.037 208.114 233.733 209.754 231.472 210.902C225.315 214.03 217.032 213.553 213.122 217.794C213.11 217.808 213.098 217.822 213.085 217.836C213.082 217.836 213.082 217.838 213.082 217.838C213.082 217.839 213.082 217.839 213.082 217.839C211.677 219.386 209.262 223.172 206.955 227.684C206.03 229.486 205.119 231.396 204.298 233.319C203.827 234.423 203.385 235.533 202.988 236.625Z" fill="#F79555"/>
<path d="M208.699 191.506C212.51 190.56 215.884 188.748 216.229 189.134C216.755 189.719 218.818 194.962 218.609 195.729C218.332 196.754 217.493 199.289 217.379 200.986C217.268 202.685 219.461 203.482 219.947 202.821C222.337 200.061 224.758 196.337 224.601 193.441C224.441 190.547 221.869 184.627 217.911 181.919C215.524 180.285 206.706 185.408 204.938 186.551L208.699 191.506Z" fill="#F9AF6F"/>
<path d="M218.588 202.863C218.302 202.738 218.007 202.481 217.73 202.133C218.327 201.4 218.782 200.64 219.025 199.869C219.899 197.105 219.585 190.658 216.838 186.727C216.112 185.687 214.067 185.362 211.825 185.362C210.77 185.362 209.669 185.434 208.645 185.537C209.896 185.36 211.29 185.252 212.609 185.252C214.879 185.252 216.931 185.573 217.669 186.418C218.838 187.752 220.711 196.758 220.462 198.384C220.212 200.009 217.979 202.223 218.588 202.863Z" fill="#F79051"/>
<path d="M204.838 192.44C206.766 192.669 208.667 192.661 210.122 192.652C211.608 192.644 212.622 192.636 212.718 192.881C213.004 193.615 213.078 199.248 212.616 199.891C211.995 200.753 210.313 202.826 209.608 204.375C208.904 205.925 210.669 207.445 211.361 206.999C214.573 205.262 218.153 202.632 219.026 199.868C219.9 197.104 219.586 190.657 216.839 186.726C215.185 184.354 206.656 185.7 204.595 186.147C203.066 186.476 201.491 188.337 204.838 192.44Z" fill="#F9AF6F"/>
<path d="M209.854 206.297C209.654 206.024 209.507 205.696 209.461 205.343C210.746 204.829 211.817 204.138 212.503 203.101C213.788 201.161 215.498 195.892 214.868 193.053C214.569 191.714 210.949 190.288 207.738 189.258C210.737 190.157 214.982 190.445 215.581 192.77C216.181 195.094 214.037 201.441 213.582 203.499C213.275 204.889 210.814 204.354 209.854 206.297Z" fill="#F79051"/>
<path d="M203.895 193.728C206.805 194.944 209.847 195.39 209.883 195.804C209.942 196.434 208.758 200.8 208.259 201.193C207.589 201.722 205.833 202.952 204.95 203.992C204.064 205.032 205.095 206.596 205.725 206.404C208.585 205.77 211.215 205.042 212.501 203.102C213.787 201.162 215.497 195.893 214.866 193.054C214.362 190.787 204.347 188.275 202.898 187.847L203.895 193.728Z" fill="#F9AF6F"/>
<path d="M204.709 205.51C204.659 205.369 204.626 205.219 204.613 205.065C204.626 205.217 204.659 205.364 204.709 205.502C204.709 205.505 204.709 205.507 204.709 205.51ZM204.905 204.049C204.905 204.049 204.905 204.049 204.905 204.048C204.905 204.049 204.905 204.049 204.905 204.049ZM204.915 204.038C204.915 204.037 204.915 204.037 204.915 204.037C204.915 204.037 204.915 204.037 204.915 204.038ZM204.933 204.015C204.933 204.015 204.933 204.015 204.933 204.014C204.933 204.015 204.933 204.015 204.933 204.015ZM204.942 204.004V204.003V204.004Z" fill="#F5783F"/>
<path d="M209.887 195.855C209.887 195.838 209.887 195.821 209.884 195.805C209.86 195.533 208.537 195.248 206.809 194.738C208.537 195.248 209.86 195.533 209.884 195.805C209.887 195.821 209.887 195.838 209.887 195.855Z" fill="#F79051"/>
<path d="M204.709 205.504C204.659 205.366 204.625 205.218 204.613 205.067C204.586 204.724 204.662 204.366 204.905 204.05C204.905 204.05 204.905 204.05 204.905 204.049C204.908 204.045 204.912 204.042 204.915 204.04C204.915 204.038 204.915 204.038 204.915 204.038C204.918 204.035 204.921 204.031 204.924 204.028C204.927 204.024 204.93 204.02 204.933 204.016C204.933 204.016 204.933 204.016 204.933 204.016C204.936 204.013 204.939 204.008 204.942 204.006V204.004C204.945 204.001 204.948 203.999 204.952 203.994C205.834 202.953 207.591 201.723 208.261 201.194C208.747 200.811 209.888 196.638 209.888 195.856C209.888 195.838 209.888 195.821 209.885 195.806C209.86 195.534 208.538 195.248 206.809 194.739C206.019 194.505 205.142 194.225 204.266 193.878C207.08 194.574 210.589 194.358 211.158 194.857C211.727 195.354 209.879 197.203 209.344 199.336C208.876 201.204 209.771 202.091 209.052 202.091C208.947 202.091 208.815 202.073 208.636 202.038C208.553 202.021 208.467 202.013 208.375 202.013C206.911 202.013 204.493 204.076 204.709 205.504Z" fill="#F79051"/>
<path d="M185.828 219.906C167.453 241.837 144.047 286.37 144.047 291.396C144.05 300.848 175.14 307.163 181.036 295.343C184.099 289.197 202.194 247.056 208.533 229.084C202.492 227.637 195.249 228.12 185.828 219.906Z" fill="#F9AF20"/>
<path d="M181.963 294.723L181.262 294.421C184.916 285.884 200.743 247.516 204.557 238.117L205.268 238.407C201.451 247.806 185.62 286.179 181.963 294.723Z" fill="#AA6923"/>
<path d="M334.158 219.907C334.158 219.907 321.597 216.528 311.453 229.085L322.323 239.955L334.158 219.907Z" fill="#F79524"/>
<path d="M291.21 268.628C309.492 295.811 344.768 319.329 361.903 317.302C375.236 315.724 379.545 298.096 374.972 288.017C372.594 282.767 332.853 253.92 316.523 239.109C307.518 230.938 302.215 230.31 295.504 227.459C288.663 224.549 291.21 268.628 291.21 268.628Z" fill="#F9AF20"/>
<path d="M305.82 183.157L305.482 183.308C305.184 183.442 304.882 183.57 304.584 183.694C303.298 184.225 301.991 184.695 300.693 185.187C299.896 185.489 299.087 185.8 298.294 186.139C295.938 182.086 289.202 174.714 285.649 172.048C281.411 168.867 283.066 165.566 286.025 167.233C288.984 168.898 299.081 175.648 301.646 179.119C302.446 180.202 304.064 181.554 306.008 183.063L305.82 183.157Z" fill="#F9AF6F"/>
<path d="M289.314 175.318L289.311 175.317L289.314 175.318ZM289.29 175.295C289.287 175.292 289.284 175.288 289.281 175.285C289.284 175.288 289.287 175.292 289.29 175.295ZM289.262 175.269C289.259 175.264 289.253 175.258 289.247 175.253C289.253 175.258 289.259 175.264 289.262 175.269ZM289.247 175.253C287.949 173.971 286.728 172.872 285.743 172.12C286.728 172.872 287.949 173.971 289.247 175.253ZM285.74 172.12C285.734 172.115 285.728 172.11 285.722 172.105C285.728 172.11 285.734 172.115 285.74 172.12ZM285.716 172.1C285.71 172.096 285.706 172.093 285.703 172.091C285.706 172.093 285.71 172.096 285.716 172.1ZM285.691 172.081C285.688 172.08 285.685 172.078 285.685 172.077C285.685 172.078 285.688 172.08 285.691 172.081ZM285.67 172.065C285.667 172.064 285.663 172.062 285.663 172.061C285.663 172.062 285.667 172.064 285.67 172.065ZM285.645 172.048C285.639 172.043 285.636 172.04 285.63 172.035C285.636 172.04 285.639 172.043 285.645 172.048ZM285.62 172.03C285.617 172.026 285.614 172.024 285.611 172.021C285.614 172.024 285.617 172.026 285.62 172.03ZM285.605 172.015C285.599 172.012 285.593 172.008 285.59 172.005C285.593 172.008 285.599 172.012 285.605 172.015ZM285.577 171.996C285.577 171.995 285.574 171.994 285.574 171.993C285.574 171.994 285.577 171.995 285.577 171.996Z" fill="#27211E"/>
<path d="M298.229 186.033C296.516 183.14 292.665 178.633 289.315 175.319L289.312 175.317C289.306 175.31 289.3 175.303 289.291 175.295C289.288 175.292 289.285 175.288 289.281 175.285C289.275 175.28 289.269 175.274 289.263 175.269C289.26 175.264 289.254 175.258 289.248 175.254C287.95 173.972 286.729 172.872 285.744 172.12H285.741C285.735 172.115 285.729 172.111 285.723 172.106C285.72 172.103 285.717 172.102 285.717 172.1C285.711 172.096 285.707 172.094 285.704 172.091C285.701 172.088 285.695 172.085 285.692 172.082C285.689 172.08 285.686 172.078 285.686 172.077C285.68 172.072 285.674 172.068 285.671 172.065C285.667 172.064 285.664 172.063 285.664 172.061C285.658 172.056 285.652 172.052 285.646 172.048C285.64 172.043 285.637 172.04 285.631 172.035C285.627 172.032 285.624 172.031 285.621 172.03C285.618 172.027 285.615 172.024 285.612 172.022C285.609 172.019 285.606 172.018 285.606 172.015C285.6 172.012 285.594 172.008 285.591 172.005C285.587 172.002 285.581 171.999 285.578 171.996C285.578 171.995 285.575 171.994 285.575 171.993C283.21 170.188 282.733 168.356 283.305 167.42C283.453 170.008 285.67 171.57 286.925 172.21C288.374 172.946 291.37 178.136 293.864 178.851C296.362 179.567 296.636 180.187 297.115 182.086C297.549 183.82 297.684 184.985 298.85 184.985C298.887 184.985 298.924 184.984 298.964 184.982C298.709 185.323 298.463 185.675 298.229 186.033Z" fill="#F79051"/>
<path d="M334.878 254.396C327.792 248.74 321.197 243.348 316.522 239.109C316.516 239.103 316.51 239.097 316.504 239.091C318.801 240.887 321.087 242.683 322.123 243.545C326.334 247.039 330.452 250.708 334.866 253.957L334.878 254.396Z" fill="#F0C887"/>
<path d="M335.686 288.781C323.047 266.519 316.044 242.126 310.246 234.157C310.483 234.393 313.5 236.74 316.505 239.09C316.511 239.096 316.518 239.102 316.524 239.108C321.199 243.347 327.793 248.739 334.88 254.395L335.686 288.781Z" fill="#F79821"/>
<path d="M281.046 200.71C290.233 203.196 300.524 201.046 297.762 192.899L297.833 192.81L298.165 192.402L298.805 191.655C299.248 191.147 299.703 190.647 300.155 190.148C301.831 188.317 303.622 186.479 304.92 184.344C309.401 185.162 314.208 186.134 317.084 187.846C320.658 187.733 322.897 204.385 325.112 208.692C326.511 211.408 332.706 221.251 336.741 228.169C329.882 233.757 325.921 235.073 317.139 237.008C314.313 229.094 309.13 220.257 306.863 217.793C302.954 213.552 294.671 214.029 288.513 210.9C284.693 208.959 280.744 205.611 275.094 204.857C269.773 204.148 271.883 198.232 281.046 200.71Z" fill="#F9AF6F"/>
<path d="M289.281 201.658C289.287 201.657 289.294 201.657 289.3 201.657C289.294 201.657 289.287 201.657 289.281 201.658ZM289.309 201.656C292.665 201.48 295.531 200.527 297.054 198.715C297.054 198.715 297.054 198.715 297.054 198.716C295.531 200.528 292.665 201.48 289.309 201.656Z" fill="#F1BA85"/>
<path d="M309.195 207.746C307.83 207.746 304.296 204.941 302.241 203.051C301.684 203.473 301.208 203.641 300.78 203.641C299.525 203.641 298.664 202.205 297.347 201.44C297.025 201.251 296.585 201.179 296.065 201.179C295.191 201.179 294.09 201.383 292.925 201.588C291.759 201.792 290.529 201.996 289.397 201.996C288.652 201.996 287.948 201.907 287.336 201.67C287.607 201.68 287.877 201.683 288.142 201.683C288.529 201.683 288.908 201.675 289.283 201.656C289.289 201.655 289.295 201.655 289.301 201.655C289.304 201.655 289.307 201.655 289.311 201.654C292.666 201.478 295.533 200.525 297.055 198.714C297.901 200.167 298.975 201.59 300.039 202.819C300.156 202.976 300.365 203.051 300.62 203.051C301.146 203.051 301.86 202.729 302.272 202.151C303.822 204.04 306.319 205.749 308.626 206.998C308.709 207.052 308.808 207.077 308.915 207.077C309.515 207.077 310.401 206.308 310.527 205.343C311.647 205.791 312.929 206.106 314.261 206.402C314.298 206.412 314.335 206.417 314.372 206.417C314.99 206.417 315.833 205.036 315.088 204.058C315.085 204.054 315.085 204.051 315.082 204.047C315.082 204.047 315.082 204.047 315.082 204.046C315.079 204.042 315.076 204.038 315.073 204.036C315.073 204.035 315.073 204.035 315.073 204.035C315.07 204.031 315.067 204.028 315.064 204.024C315.061 204.02 315.058 204.017 315.055 204.013C315.055 204.013 315.055 204.013 315.055 204.012C315.051 204.008 315.048 204.005 315.045 204.002V204.001C315.042 203.998 315.039 203.995 315.036 203.99C314.593 203.47 313.932 202.901 313.298 202.397C313.84 202.653 314.15 202.8 314.15 202.8C314.15 202.8 316.445 204.765 315.897 206.296C315.596 207.149 315.442 207.412 315.239 207.412C315.079 207.412 314.888 207.246 314.565 207.077C313.833 206.692 310.835 206.296 310.835 206.296C310.835 206.296 310.589 207.486 309.352 207.732C309.306 207.741 309.251 207.746 309.195 207.746Z" fill="#F79051"/>
<path d="M318.992 236.625H318.851C318.891 236.615 318.928 236.607 318.968 236.601L318.992 236.625ZM316.999 236.625H316.947C316.55 235.511 316.107 234.386 315.637 233.269L315.686 233.319C316.16 234.423 316.603 235.533 316.999 236.625Z" fill="#F2C291"/>
<path d="M280.488 206.439C278.855 205.707 277.077 205.121 275.093 204.856C275.084 204.856 275.078 204.855 275.069 204.854C275.078 204.855 275.084 204.856 275.093 204.856C277.077 205.121 278.855 205.707 280.488 206.439ZM275.056 204.851C275.053 204.851 275.05 204.85 275.047 204.85C275.05 204.85 275.053 204.851 275.056 204.851ZM275.032 204.847C275.029 204.847 275.025 204.847 275.025 204.847C275.025 204.847 275.029 204.847 275.032 204.847ZM275.007 204.845C275.007 204.844 275.004 204.844 275.004 204.844C275.004 204.844 275.007 204.844 275.007 204.845Z" fill="#F79555"/>
<path d="M319.253 236.625H318.991L318.967 236.601C319.053 236.579 319.142 236.558 319.228 236.539C319.238 236.566 319.244 236.597 319.253 236.625ZM315.685 233.319L315.636 233.269C314.836 231.369 313.947 229.483 313.043 227.715C313.966 229.505 314.87 231.406 315.685 233.319Z" fill="#F58024"/>
<path d="M318.852 236.625H317C316.603 235.533 316.161 234.423 315.687 233.319C314.872 231.406 313.968 229.505 313.045 227.715C310.713 223.145 308.265 219.316 306.866 217.794C302.956 213.553 294.673 214.03 288.516 210.902C286.037 209.642 283.505 207.792 280.491 206.442C278.858 205.709 277.08 205.124 275.096 204.858C275.087 204.858 275.081 204.857 275.072 204.856C275.069 204.855 275.062 204.855 275.059 204.853C275.056 204.853 275.053 204.852 275.05 204.852C275.044 204.852 275.041 204.851 275.035 204.85C275.032 204.85 275.029 204.85 275.029 204.85C275.022 204.849 275.016 204.848 275.01 204.848C275.01 204.846 275.007 204.846 275.007 204.846C273.217 204.584 272.294 203.722 272.227 202.803C272.842 203.566 273.478 203.793 274.134 203.793C274.616 203.793 275.109 203.671 275.61 203.549C276.114 203.426 276.628 203.305 277.151 203.305C277.357 203.305 277.56 203.323 277.769 203.367C279.83 203.81 283.238 208.021 289.362 210.405C295.485 212.788 305.863 210.943 309.142 213.796C311.089 215.49 316.41 226.589 319.23 236.539C319.144 236.558 319.055 236.579 318.969 236.601C318.929 236.607 318.892 236.615 318.852 236.625Z" fill="#F79555"/>
<path d="M311.284 191.506C307.47 190.56 304.099 188.748 303.754 189.134C303.228 189.719 301.165 194.962 301.374 195.729C301.648 196.754 302.49 199.289 302.604 200.986C302.715 202.685 300.522 203.482 300.036 202.821C297.646 200.061 295.225 196.337 295.382 193.441C295.542 190.547 298.113 184.627 302.072 181.919C304.459 180.285 313.277 185.408 315.046 186.551L311.284 191.506Z" fill="#F9AF6F"/>
<path d="M301.393 202.863C302.005 202.223 299.772 200.009 299.523 198.384C299.273 196.758 301.147 187.752 302.315 186.418C303.053 185.573 305.105 185.252 307.375 185.252C308.694 185.252 310.088 185.36 311.34 185.537C310.315 185.434 309.214 185.362 308.159 185.362C305.917 185.362 303.872 185.687 303.146 186.727C300.399 190.658 300.082 197.105 300.959 199.869C301.202 200.64 301.657 201.4 302.254 202.133C301.977 202.481 301.682 202.738 301.393 202.863Z" fill="#F79051"/>
<path d="M315.146 192.44C313.218 192.669 311.317 192.661 309.862 192.652C308.377 192.644 307.362 192.636 307.266 192.881C306.98 193.615 306.903 199.248 307.368 199.891C307.989 200.753 309.672 202.826 310.376 204.375C311.08 205.925 309.315 207.445 308.623 206.999C305.412 205.262 301.831 202.632 300.958 199.868C300.081 197.104 300.398 190.657 303.145 186.726C304.8 184.354 313.329 185.7 315.389 186.147C316.918 186.476 318.493 188.337 315.146 192.44Z" fill="#F9AF6F"/>
<path d="M310.129 206.297C309.169 204.354 306.709 204.889 306.401 203.499C305.946 201.441 303.802 195.094 304.402 192.77C305.002 190.445 309.246 190.157 312.245 189.258C309.034 190.288 305.414 191.714 305.115 193.053C304.482 195.892 306.195 201.161 307.481 203.101C308.167 204.138 309.237 204.829 310.523 205.344C310.477 205.696 310.329 206.024 310.129 206.297Z" fill="#F79051"/>
<path d="M316.085 193.728C313.175 194.944 310.136 195.39 310.096 195.804C310.041 196.434 311.225 200.8 311.723 201.193C312.394 201.722 314.15 202.952 315.033 203.992C315.919 205.032 314.888 206.596 314.258 206.404C311.394 205.77 308.767 205.042 307.482 203.102C306.196 201.162 304.483 195.893 305.117 193.054C305.621 190.787 315.636 188.275 317.084 187.847L316.085 193.728Z" fill="#F9AF6F"/>
<path d="M315.08 204.049C315.08 204.049 315.08 204.049 315.08 204.048C315.08 204.049 315.08 204.049 315.08 204.049ZM315.071 204.038C315.071 204.037 315.071 204.037 315.071 204.037C315.071 204.037 315.071 204.037 315.071 204.038ZM315.052 204.015C315.052 204.015 315.052 204.015 315.052 204.014C315.052 204.015 315.052 204.015 315.052 204.015ZM315.043 204.004V204.003V204.004Z" fill="#F5783F"/>
<path d="M310.098 195.855C310.098 195.838 310.098 195.821 310.098 195.805C310.131 195.475 312.072 195.124 314.333 194.378C312.072 195.124 310.131 195.476 310.098 195.805C310.098 195.821 310.098 195.838 310.098 195.855Z" fill="#F79051"/>
<path d="M315.273 205.51C315.498 204.08 313.077 202.011 311.61 202.011C311.518 202.011 311.431 202.019 311.348 202.036C311.17 202.071 311.035 202.089 310.933 202.089C310.21 202.089 311.108 201.202 310.641 199.334C310.106 197.202 308.257 195.352 308.826 194.855C309.395 194.356 312.905 194.573 315.719 193.876C315.252 194.061 314.784 194.227 314.332 194.377C312.071 195.123 310.13 195.474 310.097 195.804C310.097 195.82 310.097 195.837 310.097 195.855C310.097 196.637 311.235 200.81 311.724 201.193C312.394 201.721 314.15 202.952 315.033 203.992C315.036 203.997 315.039 204 315.042 204.003V204.004C315.045 204.007 315.049 204.01 315.052 204.014C315.052 204.015 315.052 204.015 315.052 204.015C315.055 204.019 315.058 204.022 315.061 204.026C315.064 204.029 315.067 204.033 315.07 204.037C315.07 204.037 315.07 204.037 315.07 204.038C315.073 204.04 315.076 204.044 315.079 204.048C315.079 204.049 315.079 204.049 315.079 204.049C315.082 204.052 315.085 204.056 315.085 204.06C315.433 204.515 315.433 205.059 315.273 205.51Z" fill="#F79051"/>
<path d="M334.158 219.906C352.533 241.837 375.942 286.37 375.939 291.396C375.936 300.848 344.847 307.163 338.95 295.343C335.887 289.197 317.789 247.056 311.453 229.084C317.491 227.637 324.737 228.12 334.158 219.906Z" fill="#F9AF20"/>
<path d="M338.024 294.723C334.367 286.179 318.536 247.806 314.719 238.407L315.429 238.117C319.243 247.516 335.071 285.884 338.725 294.421L338.024 294.723Z" fill="#AA6923"/>
<path d="M317.317 351.137C317.305 344.74 317.191 330.496 316.502 311.171C316.324 306.114 316.198 300.898 316.105 295.694C316.195 295.767 316.281 295.842 316.37 295.913C316.425 298.351 316.496 300.815 316.582 303.295C317.274 323.182 317.33 343.076 317.317 351.137Z" fill="#F0C887"/>
<path d="M317.308 354.873H308.219C310.08 347.842 312.488 322.371 315.081 294.827C315.422 295.117 315.767 295.409 316.108 295.693C316.2 300.896 316.326 306.113 316.505 311.17C317.194 330.494 317.308 344.739 317.32 351.135C317.317 353.525 317.308 354.873 317.308 354.873Z" fill="#F79821"/>
<path d="M316.37 295.912C316.281 295.841 316.195 295.767 316.105 295.693C315.764 295.41 315.42 295.118 315.078 294.828C315.444 290.954 315.81 287.034 316.182 283.12C316.213 287.259 316.268 291.547 316.37 295.912Z" fill="#F79821"/>
</g>
<defs>
<radialGradient id="paint0_radial" cx="0" cy="0" r="1" gradientUnits="userSpaceOnUse" gradientTransform="translate(207.874 155.581) scale(432.482)">
<stop stop-color="#7DD4DF"/>
<stop offset="0.832613" stop-color="#1E4775"/>
<stop offset="1" stop-color="#1E4775"/>
</radialGradient>
<radialGradient id="paint1_radial" cx="0" cy="0" r="1" gradientUnits="userSpaceOnUse" gradientTransform="translate(250.749 230.245) rotate(-3.41805) scale(343.176 343.176)">
<stop stop-color="#7ED4DC"/>
<stop offset="0.832613" stop-color="#2B5882"/>
<stop offset="1" stop-color="#2B5882"/>
</radialGradient>
<radialGradient id="paint2_radial" cx="0" cy="0" r="1" gradientUnits="userSpaceOnUse" gradientTransform="translate(12.2393 97.4218) rotate(60) scale(343.176 343.176)">
<stop stop-color="#7ED4DC"/>
<stop offset="0.832613" stop-color="#2B5882"/>
<stop offset="1" stop-color="#2B5882"/>
</radialGradient>
</defs>
</svg>
