<svg width="22" height="22" viewBox="0 0 22 22" fill="none" xmlns="http://www.w3.org/2000/svg">
<g id="Icon/Outline/calendar">
<path id="Mask" fill-rule="evenodd" clip-rule="evenodd" d="M6.8519 14.35C6.8519 13.8744 7.24101 13.4853 7.71658 13.4853C8.19215 13.4853 8.58126 13.8744 8.58126 14.35C8.58126 14.8256 8.19215 15.2147 7.71658 15.2147C7.24101 15.2147 6.8519 14.8256 6.8519 14.35ZM11.1753 13.4853H14.634C15.1096 13.4853 15.4987 13.8744 15.4987 14.35C15.4987 14.8256 15.1096 15.2147 14.634 15.2147H11.1753C10.6997 15.2147 10.3106 14.8256 10.3106 14.35C10.3106 13.8744 10.6997 13.4853 11.1753 13.4853ZM16.3633 17.8087H5.98722C5.51078 17.8087 5.12254 17.4205 5.12254 16.944V11.756H17.228V16.944C17.228 17.4205 16.8398 17.8087 16.3633 17.8087ZM5.98722 5.70322H6.8519V6.56789C6.8519 7.04347 7.241 7.43257 7.71657 7.43257C8.19215 7.43257 8.58125 7.04347 8.58125 6.56789V5.70322H13.7693V6.56789C13.7693 7.04347 14.1584 7.43257 14.634 7.43257C15.1096 7.43257 15.4987 7.04347 15.4987 6.56789V5.70322H16.3633C16.8398 5.70322 17.228 6.09146 17.228 6.56789V10.0266H5.12254V6.56789C5.12254 6.09146 5.51078 5.70322 5.98722 5.70322ZM16.3633 3.97386H15.4987V3.10918C15.4987 2.63361 15.1096 2.24451 14.634 2.24451C14.1584 2.24451 13.7693 2.63361 13.7693 3.10918V3.97386H8.58125V3.10918C8.58125 2.63361 8.19215 2.24451 7.71658 2.24451C7.241 2.24451 6.8519 2.63361 6.8519 3.10918V3.97386H5.98722C4.55704 3.97386 3.39319 5.13772 3.39319 6.56789V16.944C3.39319 18.3742 4.55704 19.5381 5.98722 19.5381H16.3633C17.7935 19.5381 18.9574 18.3742 18.9574 16.944V6.56789C18.9574 5.13772 17.7935 3.97386 16.3633 3.97386Z" fill="#231F20"/>
<mask id="mask0" mask-type="alpha" maskUnits="userSpaceOnUse" x="3" y="2" width="16" height="18">
<path id="Mask_2" fill-rule="evenodd" clip-rule="evenodd" d="M6.8519 14.35C6.8519 13.8744 7.24101 13.4853 7.71658 13.4853C8.19215 13.4853 8.58126 13.8744 8.58126 14.35C8.58126 14.8256 8.19215 15.2147 7.71658 15.2147C7.24101 15.2147 6.8519 14.8256 6.8519 14.35ZM11.1753 13.4853H14.634C15.1096 13.4853 15.4987 13.8744 15.4987 14.35C15.4987 14.8256 15.1096 15.2147 14.634 15.2147H11.1753C10.6997 15.2147 10.3106 14.8256 10.3106 14.35C10.3106 13.8744 10.6997 13.4853 11.1753 13.4853ZM16.3633 17.8087H5.98722C5.51078 17.8087 5.12254 17.4205 5.12254 16.944V11.756H17.228V16.944C17.228 17.4205 16.8398 17.8087 16.3633 17.8087ZM5.98722 5.70322H6.8519V6.56789C6.8519 7.04347 7.241 7.43257 7.71657 7.43257C8.19215 7.43257 8.58125 7.04347 8.58125 6.56789V5.70322H13.7693V6.56789C13.7693 7.04347 14.1584 7.43257 14.634 7.43257C15.1096 7.43257 15.4987 7.04347 15.4987 6.56789V5.70322H16.3633C16.8398 5.70322 17.228 6.09146 17.228 6.56789V10.0266H5.12254V6.56789C5.12254 6.09146 5.51078 5.70322 5.98722 5.70322ZM16.3633 3.97386H15.4987V3.10918C15.4987 2.63361 15.1096 2.24451 14.634 2.24451C14.1584 2.24451 13.7693 2.63361 13.7693 3.10918V3.97386H8.58125V3.10918C8.58125 2.63361 8.19215 2.24451 7.71658 2.24451C7.241 2.24451 6.8519 2.63361 6.8519 3.10918V3.97386H5.98722C4.55704 3.97386 3.39319 5.13772 3.39319 6.56789V16.944C3.39319 18.3742 4.55704 19.5381 5.98722 19.5381H16.3633C17.7935 19.5381 18.9574 18.3742 18.9574 16.944V6.56789C18.9574 5.13772 17.7935 3.97386 16.3633 3.97386Z" fill="white"/>
</mask>
<g mask="url(#mask0)">
<g id="&#240;&#159;&#142;&#168; Color">
<rect id="Base" x="0.799194" y="0.515137" width="20.7523" height="20.7523" fill="#0D1C2E"/>
</g>
</g>
</g>
</svg>
