<svg width="109" height="109" viewBox="0 0 109 109" fill="none" xmlns="http://www.w3.org/2000/svg">
<path d="M54.1812 104.851L45.2327 109L38.1037 102.144L28.3054 103.135L23.7683 94.3133L14.1822 92.0395L12.7287 82.2092L4.39345 76.9169L6.18112 67.1429L0 59.4057L4.83509 50.7471L1.47792 41.4034L8.83648 34.7986L8.66707 24.8609L17.7517 21.0255L20.7884 11.5707L30.6146 10.9205L36.5283 2.97324L46.0313 5.57856L54.1812 0L62.3312 5.57856L71.8341 2.97324L77.7479 10.9205L87.5741 11.5707L90.6108 21.0255L99.6954 24.8609L99.526 34.7986L106.885 41.4034L103.527 50.7471L108.362 59.4057L102.181 67.1429L103.969 76.9169L95.6337 82.2092L94.1803 92.0395L84.5941 94.3133L80.057 103.135L70.2588 102.144L63.1297 109L54.1812 104.851Z" fill="#FFD500"/>
<path d="M39 38.25L71 70.25" stroke="#353535" stroke-width="10" stroke-linecap="round" stroke-linejoin="round"/>
<path d="M71 38.25L38 70.25" stroke="#353535" stroke-width="10" stroke-linecap="round" stroke-linejoin="round"/>
</svg>
