<svg width="40" height="40" viewBox="0 0 40 40" fill="none" xmlns="http://www.w3.org/2000/svg">
<rect opacity="0.338565" width="40" height="40" fill="white" fill-opacity="0.01"/>
<path d="M18.1313 6.49806C18.108 6.52703 17.7601 7.21181 17.3537 8.01836L16.6169 9.48045L16.3036 9.61966C15.5609 9.96191 15.7699 9.98525 13.8843 9.34687L12.2017 8.77261L10.6119 10.3624L9.0219 11.9521L9.54976 13.5709L10.0776 15.1896L9.8861 15.6885L9.68896 16.1874L8.06433 16.9996L6.43997 17.8123V19.7269C6.43997 20.777 6.44588 21.7925 6.46331 21.9722L6.48666 22.3088L7.98361 23.063L9.48057 23.8232L9.61978 24.1309C9.96203 24.8792 9.98537 24.6705 9.34699 26.5561L8.77273 28.2387L10.3625 29.8285L11.9523 31.4182L13.571 30.8904L15.1897 30.3622L15.6886 30.5538L16.1875 30.7512L16.9997 32.3758L17.8119 34.0004L19.9587 33.9889C21.1424 33.983 22.1461 33.9715 22.204 33.9715C22.2679 33.9715 22.5288 33.5131 23.0626 32.4686L23.8228 30.9601L24.1304 30.8209C24.8788 30.4787 24.6757 30.4494 26.5557 31.0937L28.2383 31.668L29.828 30.0782L31.4178 28.4884L30.8899 26.8697L30.3618 25.251L30.5533 24.7521L30.7507 24.2532L32.3754 23.441L34 22.628L33.9885 21.6707C33.9826 21.1428 33.9769 20.1332 33.9769 19.4254L33.971 18.1374L32.4625 17.3772L30.9597 16.6171L30.8146 16.3038C30.4779 15.5611 30.449 15.7641 31.0933 13.8844L31.6675 12.2019L30.0778 10.6121L28.488 9.02205L26.8693 9.54991L25.2505 10.0778L24.7516 9.88626L24.2527 9.68912L23.4406 8.06448L22.6278 6.44013H20.4056C18.9899 6.44013 18.1603 6.46347 18.1313 6.49806ZM22.3376 9.52095C22.7206 10.3042 23.0688 10.9656 23.1208 10.9946C23.1672 11.0179 23.6546 11.215 24.2058 11.424L25.2039 11.8126L26.6136 11.3543C27.5186 11.0584 28.0527 10.9074 28.1106 10.9423C28.157 10.9653 28.5575 11.3483 29.004 11.7952L29.8047 12.6018L29.2765 14.1392L28.7543 15.6826L29.2068 16.7155L29.6652 17.7541L30.2105 18.0499C30.5063 18.2181 31.1099 18.5314 31.5508 18.7462L32.3464 19.1408L32.3405 20.3939V21.6415L30.9133 22.3378C30.1301 22.7208 29.4686 23.0746 29.4453 23.121C29.4219 23.1674 29.2248 23.6606 29.0102 24.2059L28.6272 25.204L28.981 26.2949C29.1784 26.8984 29.3871 27.5424 29.4509 27.728L29.5611 28.0762L28.7026 28.9406L27.8381 29.8051L26.2947 29.277L24.7514 28.7491L23.7187 29.2075L22.686 29.6659L22.4192 30.1533C22.2681 30.4143 21.9551 31.0178 21.7229 31.4877L21.299 32.3466H20.0459L18.7984 32.3407L18.1021 30.9191C17.725 30.1359 17.3709 29.4744 17.3189 29.4452C17.2725 29.4218 16.7792 29.2247 16.2339 29.0101L15.2358 28.6271L14.145 28.9809C13.5415 29.1783 12.8975 29.3869 12.7118 29.4508L12.3637 29.561L11.4992 28.7024L10.6347 27.838L11.157 26.2946L11.6848 24.7571L11.2264 23.7186L10.7739 22.6859L10.2286 22.3901C9.93278 22.2219 9.32928 21.9083 8.88831 21.6938L8.09357 21.2992V20.0461L8.09948 18.7986L9.52107 18.1022C10.3043 17.7192 10.9657 17.3711 10.9947 17.319C11.018 17.2726 11.2152 16.7853 11.4241 16.2341L11.8128 15.236L11.3428 13.797L10.8729 12.3638L11.7374 11.4994L12.6019 10.6349L14.1393 11.1627L15.6827 11.685L16.7154 11.2325L17.7539 10.7741L18.0208 10.2867C18.1715 10.0257 18.4851 9.42224 18.7171 8.9464L19.1406 8.09345H20.3938L21.6413 8.09936L22.3376 9.52095Z" fill="#0C0C0C"/>
<circle cx="20.0209" cy="20.0207" r="5.43234" fill="#FFD500"/>
<path d="M19.3787 14.0759C17.4582 14.3487 15.5782 15.7469 14.6617 17.5802C14.0871 18.7349 13.9015 19.9012 14.099 21.1195C14.6212 24.3282 17.7135 26.742 20.8351 26.3764C24.6297 25.9354 27.2696 22.0422 26.1615 18.5319C25.2332 15.5844 22.2972 13.6583 19.3787 14.0759ZM21.4676 15.8108C22.7905 16.1474 23.8929 17.0988 24.421 18.3522C24.6823 18.9731 24.7633 19.4256 24.7633 20.2496C24.7574 21.1723 24.6415 21.6653 24.241 22.4429C23.6957 23.5045 22.6628 24.3111 21.4386 24.6362C20.7482 24.8218 19.6981 24.8218 19.0074 24.6362C17.5684 24.259 16.5068 23.3192 15.9671 21.9614C15.7466 21.3869 15.6713 20.9577 15.6769 20.1917C15.6828 18.8455 16.1238 17.749 17.0113 16.9019C17.754 16.2 18.5488 15.8344 19.7268 15.6718C20.0694 15.6252 21.0441 15.7005 21.4676 15.8108Z" fill="#0C0C0C"/>
</svg>
