<svg width="124" height="109" viewBox="0 0 124 109" fill="none" xmlns="http://www.w3.org/2000/svg">
<rect width="124" height="109" rx="8" fill="white"/>
<path d="M38.7517 48.2034C36.2315 41.7227 41.9019 24.3509 50.903 18.9503V16.25H32.4509L31.5508 46.4032L38.7517 48.2034Z" fill="#F8DB46" stroke="#F8DB46"/>
<path d="M27.4996 72.9566C25.3393 58.555 33.2002 52.2544 37.4006 50.9042L36.5011 47.7539H29.7504L18.9492 52.7044V73.8566L27.4996 72.9566Z" fill="#F8DB46" stroke="#F8DB46"/>
<path d="M85.1521 14H32.0175C30.7982 14 29.8097 14.9885 29.8097 16.2078V45.054C26.8552 45.5604 24.1307 47.0673 22.1346 49.325H20.9784V47.1172C20.9784 45.8979 19.9899 44.9093 18.7706 44.9093H14.2078C12.9885 44.9093 12 45.8979 12 47.1172C12 48.3365 12.9885 49.325 14.2078 49.325H16.5628V75.8187H14.2078C12.9885 75.8187 12 76.8072 12 78.0265C12 79.2458 12.9885 80.2343 14.2078 80.2343H18.7706C19.9899 80.2343 20.9784 79.2458 20.9784 78.0265V75.8187H22.8426C36.9229 80.2751 36.3909 80.2343 37.0218 80.2343H67.3424C71.91 80.2343 75.1095 75.6983 73.5861 71.4031H85.1521C86.3714 71.4031 87.3599 70.4146 87.3599 69.1953V16.2078C87.3599 14.9885 86.3714 14 85.1521 14ZM54.0956 18.4156H62.9268V29.4547H54.0956V18.4156ZM69.5502 73.6109C69.5502 74.8283 68.5598 75.8187 67.3424 75.8187H37.3655C23.2853 71.3623 23.8174 71.4031 23.1862 71.4031H20.9784V53.7406H23.1862C23.8874 53.7406 24.547 53.4075 24.9631 52.8432C28.4598 48.102 35.5723 48.0982 39.0717 52.8432C39.488 53.4075 40.1475 53.7406 40.8487 53.7406H51.8878C53.1052 53.7406 54.0956 54.731 54.0956 55.9484C54.0956 57.1658 53.1052 58.1562 51.8878 58.1562H38.6409C37.4216 58.1562 36.4331 59.1447 36.4331 60.364C36.4331 66.451 41.3852 71.4031 47.4721 71.4031H67.3424C68.5598 71.4031 69.5502 72.3935 69.5502 73.6109ZM82.9443 66.9874C81.6058 66.9874 49.2906 66.9874 47.4721 66.9874C44.5938 66.9874 42.1382 65.1419 41.227 62.5718H51.8878C55.5399 62.5718 58.5112 59.6006 58.5112 55.9484C58.5112 52.2962 55.5399 49.325 51.8878 49.325H41.9004C39.9044 47.0673 37.1798 45.5604 34.2253 45.054V18.4156H49.68V31.6625C49.68 32.8818 50.6685 33.8703 51.8878 33.8703H65.1346C66.3539 33.8703 67.3424 32.8818 67.3424 31.6625V18.4156H82.9443V66.9874Z" fill="#353535"/>
<path d="M87.4637 92.8716L83.4185 94.747L80.1957 91.6475L75.7664 92.0955L73.7153 88.1078L69.3818 87.0799L68.7248 82.636L64.9568 80.2436L65.7649 75.8252L62.9707 72.3275L65.1564 68.4133L63.6388 64.1894L66.9653 61.2036L66.8887 56.7112L70.9954 54.9774L72.3682 50.7033L76.8102 50.4094L79.4836 46.8167L83.7795 47.9945L87.4637 45.4727L91.148 47.9945L95.4439 46.8167L98.1172 50.4094L102.559 50.7033L103.932 54.9774L108.039 56.7112L107.962 61.2036L111.289 64.1894L109.771 68.4133L111.957 72.3275L109.163 75.8252L109.971 80.2436L106.203 82.636L105.546 87.0799L101.212 88.1078L99.1611 92.0955L94.7317 91.6475L91.509 94.747L87.4637 92.8716Z" fill="#FFD500"/>
<path d="M94.8086 63.0547L79.507 77.4562" stroke="#353535" stroke-width="5" stroke-linecap="round" stroke-linejoin="round"/>
<path d="M94.3594 77.9062L79.9579 62.6046" stroke="#353535" stroke-width="5" stroke-linecap="round" stroke-linejoin="round"/>
</svg>
