<svg width="56" height="45" viewBox="0 0 56 45" fill="none" xmlns="http://www.w3.org/2000/svg">
<path d="M4.82253 44.622H35.1327C36.4117 44.622 37.6383 44.1139 38.5427 43.2095C39.4471 42.3051 39.9552 41.0785 39.9552 39.7995C39.9552 38.5205 39.4471 37.2938 38.5427 36.3894C37.6383 35.485 36.4117 34.9769 35.1327 34.9769H4.82253C3.54351 34.9769 2.31689 35.485 1.41249 36.3894C0.508086 37.2938 0 38.5205 0 39.7995C0 41.0785 0.508086 42.3051 1.41249 43.2095C2.31689 44.1139 3.54351 44.622 4.82253 44.622ZM43.5471 39.1981L49.9408 38.2333C51.8563 37.8203 53.53 36.665 54.5955 35.0205C55.6609 33.376 56.0313 31.3763 55.6256 29.4593L54.5848 24.5494C54.5454 24.3677 54.458 24.1998 54.3316 24.0633L28.9795 0.336791C28.8829 0.231368 28.7655 0.147037 28.6348 0.0890849C28.5041 0.0311324 28.3628 0.000807774 28.2198 1.18469e-05C27.9891 -0.00110387 27.7648 0.0766177 27.5843 0.220311L23.5049 2.53219C23.3966 2.60454 23.3039 2.69782 23.2321 2.80653C23.1604 2.91524 23.1111 3.0372 23.0871 3.16523C23.0512 3.2917 23.0411 3.42406 23.0572 3.55453C23.0732 3.68499 23.1153 3.81092 23.1808 3.92488L6.68621 14.0181L9.80838 25.7396H3.75648C3.45381 25.7402 3.16372 25.8608 2.9497 26.0748C2.73567 26.2888 2.61514 26.5789 2.61447 26.8816V31.7535C2.61514 32.0562 2.73567 32.3463 2.9497 32.5603C3.16372 32.7743 3.45381 32.8948 3.75648 32.8955H32.9297C33.2323 32.8948 33.5224 32.7743 33.7365 32.5603C33.9505 32.3463 34.071 32.0562 34.0717 31.7535V21.2829C34.0717 21.0618 34.0075 20.8454 33.8868 20.66L29.5923 14.0181C29.4884 13.8564 29.3452 13.7236 29.176 13.6324C29.0068 13.5411 28.8172 13.4944 28.625 13.4965H19.4686C19.166 13.4972 18.8759 13.6177 18.6618 13.8317C18.4478 14.0458 18.3273 14.3358 18.3266 14.6385V25.7396H16.392L12.3355 15.4969L27.5767 6.59633L47.6669 24.5469L45.2563 25.6155C45.0996 25.7857 45.0035 26.0029 44.9828 26.2333V37.418L43.856 37.9447C43.7091 38.0644 43.5981 38.2222 43.5351 38.4009C43.4721 38.5796 43.4596 38.7722 43.499 38.9575L43.5471 39.188V39.1981Z" fill="#FFD500"/>
</svg>
