<svg width="49" height="49" viewBox="0 0 49 49" fill="none" xmlns="http://www.w3.org/2000/svg">
<path fill-rule="evenodd" clip-rule="evenodd" d="M43.0451 14.1859C42.2958 12.9731 40.9973 12.2504 39.5722 12.2504H13.4389L12.1792 7.63007C11.9362 6.74195 11.1298 6.12537 10.209 6.12537H6.12565C4.99661 6.12537 4.08398 7.04003 4.08398 8.16703C4.08398 9.29403 4.99661 10.2087 6.12565 10.2087H8.64915L14.3638 31.1623C14.6067 32.0504 15.4132 32.667 16.334 32.667H34.709C35.4828 32.667 36.1892 32.2301 36.5363 31.538L43.2248 18.1589C43.8618 16.8829 43.7944 15.3986 43.0451 14.1859ZM15.3131 36.75C13.6226 36.75 12.2506 38.12 12.2506 39.8125C12.2506 41.5051 13.6226 42.875 15.3131 42.875C17.0036 42.875 18.3756 41.5051 18.3756 39.8125C18.3756 38.12 17.0036 36.75 15.3131 36.75ZM32.6673 39.8125C32.6673 38.12 34.0393 36.75 35.7298 36.75C37.4203 36.75 38.7923 38.12 38.7923 39.8125C38.7923 41.5051 37.4203 42.875 35.7298 42.875C34.0393 42.875 32.6673 41.5051 32.6673 39.8125Z" fill="#231F20"/>
<mask id="mask0" style="mask-type:alpha" maskUnits="userSpaceOnUse" x="4" y="6" width="40" height="37">
<path fill-rule="evenodd" clip-rule="evenodd" d="M43.0451 14.1859C42.2958 12.9731 40.9973 12.2504 39.5722 12.2504H13.4389L12.1792 7.63007C11.9362 6.74195 11.1298 6.12537 10.209 6.12537H6.12565C4.99661 6.12537 4.08398 7.04003 4.08398 8.16703C4.08398 9.29403 4.99661 10.2087 6.12565 10.2087H8.64915L14.3638 31.1623C14.6067 32.0504 15.4132 32.667 16.334 32.667H34.709C35.4828 32.667 36.1892 32.2301 36.5363 31.538L43.2248 18.1589C43.8618 16.8829 43.7944 15.3986 43.0451 14.1859ZM15.3131 36.75C13.6226 36.75 12.2506 38.12 12.2506 39.8125C12.2506 41.5051 13.6226 42.875 15.3131 42.875C17.0036 42.875 18.3756 41.5051 18.3756 39.8125C18.3756 38.12 17.0036 36.75 15.3131 36.75ZM32.6673 39.8125C32.6673 38.12 34.0393 36.75 35.7298 36.75C37.4203 36.75 38.7923 38.12 38.7923 39.8125C38.7923 41.5051 37.4203 42.875 35.7298 42.875C34.0393 42.875 32.6673 41.5051 32.6673 39.8125Z" fill="white"/>
</mask>
<g mask="url(#mask0)">
<rect width="49" height="49" fill="#FFD500"/>
</g>
</svg>
