<svg width="47" height="47" viewBox="0 0 47 47" fill="none" xmlns="http://www.w3.org/2000/svg">
<circle cx="23.5" cy="23.5" r="23.5" fill="#FFD500"/>
<path d="M32.125 30.0714H23.9107V21.8571H26.375V24.7321C26.375 24.959 26.5589 25.1429 26.7857 25.1429H29.25C29.4768 25.1429 29.6607 24.959 29.6607 24.7321V21.8571H32.125V30.0714ZM27.1964 21.8571H28.8393V24.3214H27.1964V21.8571ZM29.6607 21.0357H23.9107V16.1071H25.5536V18.1607C25.5536 18.3875 25.7375 18.5714 25.9643 18.5714H27.6071C27.834 18.5714 28.0179 18.3875 28.0179 18.1607V16.1071H29.6607V21.0357ZM26.375 16.1071H27.1964V17.75H26.375V16.1071ZM23.0893 12H23.9107V12.8214H23.0893V12ZM21.4464 12H22.2679V13.2321C22.2679 13.459 22.4518 13.6429 22.6786 13.6429H24.3214C24.5482 13.6429 24.7321 13.459 24.7321 13.2321V12H25.5536V15.2857H21.4464V12ZM19.8036 16.1071H20.625V17.75H19.8036V16.1071ZM17.3393 16.1071H18.9821V18.1607C18.9821 18.3875 19.166 18.5714 19.3929 18.5714H21.0357C21.2625 18.5714 21.4464 18.3875 21.4464 18.1607V16.1071H23.0893V21.0357H17.3393V16.1071ZM18.1607 21.8571H19.8036V24.3214H18.1607V21.8571ZM14.875 21.8571H17.3393V24.7321C17.3393 24.959 17.5232 25.1429 17.75 25.1429H20.2143C20.4411 25.1429 20.625 24.959 20.625 24.7321V21.8571H23.0893V30.0714H14.875V21.8571ZM12 30.8929H35V31.7143H12V30.8929ZM14.4643 33.3571V32.5357H32.5357V33.3571H14.4643ZM12.8214 32.5357H13.6429V33.3571H12.8214V32.5357ZM35 35H12V34.1786H35V35ZM34.1786 33.3571H33.3571V32.5357H34.1786V33.3571Z" fill="black"/>
</svg>
