<svg width="18" height="18" viewBox="0 0 18 18" fill="none" xmlns="http://www.w3.org/2000/svg">
<path fill-rule="evenodd" clip-rule="evenodd" d="M12.321 11.5016C12.321 11.8912 12.0022 12.21 11.6126 12.21C11.223 12.21 10.9043 11.8912 10.9043 11.5016V8.66829C10.9043 8.27871 11.223 7.95996 11.6126 7.95996C12.0022 7.95996 12.321 8.27871 12.321 8.66829V11.5016ZM8.07089 3.234C8.07089 3.1242 8.22248 3.00166 8.42506 3.00166H10.5501C10.7526 3.00166 10.9042 3.1242 10.9042 3.234V4.41833H8.07089V3.234ZM8.07096 11.5016C8.07096 11.8912 7.75221 12.21 7.36263 12.21C6.97305 12.21 6.6543 11.8912 6.6543 11.5016V8.66829C6.6543 8.27871 6.97305 7.95996 7.36263 7.95996C7.75221 7.95996 8.07096 8.27871 8.07096 8.66829V11.5016ZM15.8626 4.41829H15.1543H12.321V3.23396C12.321 2.32446 11.5269 1.58496 10.5501 1.58496H8.42513C7.44834 1.58496 6.6543 2.32446 6.6543 3.23396V4.41829H3.82096H3.11263C2.72305 4.41829 2.4043 4.73704 2.4043 5.12663C2.4043 5.51621 2.72305 5.83496 3.11263 5.83496H3.82096V13.6266C3.82096 14.7982 4.77438 15.7516 5.94596 15.7516H13.0293C14.2009 15.7516 15.1543 14.7982 15.1543 13.6266V5.83496H15.8626C16.2522 5.83496 16.571 5.51621 16.571 5.12663C16.571 4.73704 16.2522 4.41829 15.8626 4.41829Z" fill="#231F20"/>
<mask id="mask0" mask-type="alpha" maskUnits="userSpaceOnUse" x="2" y="1" width="15" height="15">
<path fill-rule="evenodd" clip-rule="evenodd" d="M12.321 11.5016C12.321 11.8912 12.0022 12.21 11.6126 12.21C11.223 12.21 10.9043 11.8912 10.9043 11.5016V8.66829C10.9043 8.27871 11.223 7.95996 11.6126 7.95996C12.0022 7.95996 12.321 8.27871 12.321 8.66829V11.5016ZM8.07089 3.234C8.07089 3.1242 8.22248 3.00166 8.42506 3.00166H10.5501C10.7526 3.00166 10.9042 3.1242 10.9042 3.234V4.41833H8.07089V3.234ZM8.07096 11.5016C8.07096 11.8912 7.75221 12.21 7.36263 12.21C6.97305 12.21 6.6543 11.8912 6.6543 11.5016V8.66829C6.6543 8.27871 6.97305 7.95996 7.36263 7.95996C7.75221 7.95996 8.07096 8.27871 8.07096 8.66829V11.5016ZM15.8626 4.41829H15.1543H12.321V3.23396C12.321 2.32446 11.5269 1.58496 10.5501 1.58496H8.42513C7.44834 1.58496 6.6543 2.32446 6.6543 3.23396V4.41829H3.82096H3.11263C2.72305 4.41829 2.4043 4.73704 2.4043 5.12663C2.4043 5.51621 2.72305 5.83496 3.11263 5.83496H3.82096V13.6266C3.82096 14.7982 4.77438 15.7516 5.94596 15.7516H13.0293C14.2009 15.7516 15.1543 14.7982 15.1543 13.6266V5.83496H15.8626C16.2522 5.83496 16.571 5.51621 16.571 5.12663C16.571 4.73704 16.2522 4.41829 15.8626 4.41829Z" fill="white"/>
</mask>
<g mask="url(#mask0)">
<rect x="0.988281" y="0.167969" width="17" height="17" fill="black"/>
</g>
</svg>
