<svg width="10" height="15" viewBox="0 0 44 44" fill="none" xmlns="http://www.w3.org/2000/svg">
<g clip-path="url(#clip0)">
<path d="M44 35C43.9993 34.2046 43.6828 33.4421 43.12 32.88C42.9601 32.7201 42.7822 32.5792 42.59 32.46L34.12 25.88C33.5579 25.3172 32.7954 25.0007 32 25C31.3486 25.0058 30.7168 25.2234 30.2 25.62L27.82 28C27.6194 28.2234 27.3712 28.3987 27.0936 28.513C26.8161 28.6273 26.5164 28.6777 26.2167 28.6604C25.917 28.6432 25.6251 28.5586 25.3625 28.4131C25.1 28.2677 24.8735 28.0649 24.7 27.82V27.88C21.4252 25.5155 18.5461 22.6465 16.17 19.38H16.24C15.9673 19.2147 15.738 18.9866 15.5713 18.7147C15.4047 18.4428 15.3055 18.1349 15.282 17.8169C15.2585 17.4988 15.3114 17.1798 15.4363 16.8863C15.5612 16.5929 15.7545 16.3336 16 16.13V16.13L18.35 13.8C18.7613 13.2893 18.9901 12.6557 19 12C18.9993 11.2046 18.6828 10.4421 18.12 9.88001L11.54 1.41001C11.4231 1.21887 11.2857 1.04113 11.13 0.880009C10.8505 0.60016 10.5184 0.378341 10.1529 0.227316C9.78732 0.0762903 9.39551 -0.000960164 9 9.00737e-06C5 9.00737e-06 -3.86231e-06 4.70001 -3.86231e-06 10.5C-0.00579586 12.0557 0.335849 13.5931 0.999996 15V15C7.11142 27.0784 16.9216 36.8886 29 43V43C30.4008 43.6613 31.931 44.0028 33.48 44C39.3 44 44 39 44 35ZM33.5 42C32.244 42.0005 31.0038 41.7203 29.87 41.18C29.764 41.1299 29.6535 41.0897 29.54 41.06C18.1115 35.1991 8.81095 25.8986 2.95 14.47C2.91709 14.353 2.87357 14.2392 2.82 14.13C2.27966 12.9962 1.9995 11.756 2 10.5C2 5.65001 6.25 2.00001 9 2.00001C9.1316 1.99925 9.26207 2.02447 9.3839 2.07424C9.50574 2.124 9.61656 2.19733 9.71 2.29001C9.76272 2.34504 9.80963 2.40536 9.85 2.47001L9.96 2.63001L16.55 11.1L16.71 11.29C16.8027 11.3834 16.876 11.4943 16.9258 11.6161C16.9755 11.7379 17.0008 11.8684 17 12C17.0017 12.1766 16.9532 12.35 16.86 12.5L14.63 14.71C14.2452 15.0704 13.9355 15.5032 13.7186 15.9837C13.5017 16.4641 13.3819 16.9827 13.3661 17.5097C13.3503 18.0366 13.4388 18.5614 13.6265 19.054C13.8143 19.5466 14.0975 19.9973 14.46 20.38L14.54 20.5C17.047 23.9383 20.085 26.956 23.54 29.44L23.62 29.5C24.3663 30.2239 25.3652 30.6288 26.405 30.6288C27.4448 30.6288 28.4437 30.2239 29.19 29.5L29.3 29.39L31.54 27.13C31.6794 27.0473 31.838 27.0025 32 27C32.1316 26.9992 32.2621 27.0245 32.3839 27.0742C32.5057 27.124 32.6166 27.1973 32.71 27.29L32.9 27.46L41.34 34L41.51 34.12C41.5746 34.1565 41.635 34.2001 41.69 34.25C41.7912 34.3464 41.8711 34.463 41.9245 34.5921C41.9779 34.7213 42.0036 34.8603 42 35C41.9967 35.0666 41.9967 35.1334 42 35.2C41.84 37.94 38.24 42 33.5 42Z" fill="#111216"/>
</g>
<defs>
<clipPath id="clip0">
<rect width="44" height="44" fill="white"/>
</clipPath>
</defs>
</svg>
