<svg width="109" height="110" viewBox="0 0 109 110" fill="none" xmlns="http://www.w3.org/2000/svg">
<path d="M54.2973 105.076L45.3296 109.233L38.1853 102.362L28.3661 103.356L23.8192 94.5153L14.2126 92.2366L12.756 82.3853L4.40287 77.0817L6.19436 67.2867L0 59.5329L4.84545 50.8558L1.48109 41.4921L8.8554 34.8731L8.68563 24.9141L17.7897 21.0706L20.8329 11.5955L30.6801 10.9439L36.6066 2.9796L46.1299 5.5905L54.2973 0L62.4647 5.5905L71.988 2.9796L77.9144 10.9439L87.7617 11.5955L90.8049 21.0706L99.9089 24.9141L99.7392 34.8731L107.113 41.4921L103.749 50.8558L108.595 59.5329L102.4 67.2867L104.192 77.0817L95.8386 82.3853L94.382 92.2366L84.7753 94.5153L80.2285 103.356L70.4093 102.362L63.265 109.233L54.2973 105.076Z" fill="#FFD500"/>
<path d="M36.6028 59.2056L49.3789 71.9644L75.1687 48.2208" stroke="#353535" stroke-width="8.86" stroke-linecap="round"/>
</svg>
