<svg width="114" height="114" viewBox="0 0 114 114" fill="none" xmlns="http://www.w3.org/2000/svg">
<circle opacity="0.5" cx="57.1318" cy="56.7167" r="56.7167" fill="#FFD500"/>
<circle cx="57.1346" cy="56.7117" r="41.0066" fill="#FFD500"/>
<path d="M44.6162 45.4951C44.6839 42.262 45.8011 39.6722 47.9678 37.7256C50.1344 35.779 53.1305 34.8057 56.9561 34.8057C60.5785 34.8057 63.4899 35.7197 65.6904 37.5479C67.9079 39.376 69.0166 41.7627 69.0166 44.708C69.0166 46.5869 68.568 48.2204 67.6709 49.6084C66.7738 50.9964 65.4111 52.2236 63.583 53.29C61.8903 54.2718 60.7477 55.152 60.1553 55.9307C59.5628 56.7093 59.2666 57.708 59.2666 58.9268V60.2725H52.5381L52.4873 58.876C52.318 56.8786 52.5889 55.2451 53.2998 53.9756C54.0277 52.6891 55.2803 51.5212 57.0576 50.4717C58.7165 49.4899 59.8421 48.6182 60.4346 47.8564C61.027 47.0778 61.3232 46.1045 61.3232 44.9365C61.3232 43.7516 60.8747 42.7868 59.9775 42.042C59.0973 41.2803 57.9378 40.8994 56.499 40.8994C55.0433 40.8994 53.8669 41.3141 52.9697 42.1436C52.0726 42.973 51.5817 44.0902 51.4971 45.4951H44.6162ZM59.5205 71.3936C58.708 72.1553 57.5908 72.5361 56.1689 72.5361C54.7471 72.5361 53.6214 72.1553 52.792 71.3936C51.9626 70.6149 51.5479 69.557 51.5479 68.2197C51.5479 66.8825 51.9626 65.8245 52.792 65.0459C53.6214 64.2673 54.7471 63.8779 56.1689 63.8779C57.5908 63.8779 58.708 64.2673 59.5205 65.0459C60.3499 65.8245 60.7647 66.8825 60.7647 68.2197C60.7647 69.557 60.3499 70.6149 59.5205 71.3936Z" fill="#050505"/>
</svg>
