<svg width="114" height="114" viewBox="0 0 114 114" fill="none" xmlns="http://www.w3.org/2000/svg">
<circle opacity="0.5" cx="57.1327" cy="56.7167" r="56.7167" fill="#FFD500"/>
<circle cx="57.1356" cy="56.7117" r="41.0066" fill="#FFD500"/>
<path d="M53.0732 35.1357H61.1982L60.5127 59.7139H53.7334L53.0732 35.1357ZM57.1357 72.5361C55.7139 72.5361 54.5882 72.1553 53.7588 71.3936C52.9294 70.6149 52.5147 69.557 52.5147 68.2197C52.5147 66.8825 52.9294 65.8245 53.7588 65.0459C54.5882 64.2673 55.7139 63.8779 57.1357 63.8779C58.5745 63.8779 59.7002 64.2673 60.5127 65.0459C61.3421 65.8076 61.7568 66.8656 61.7568 68.2197C61.7568 69.557 61.3421 70.6149 60.5127 71.3936C59.7002 72.1553 58.5745 72.5361 57.1357 72.5361Z" fill="#050505"/>
</svg>
