<svg width="50" height="35" viewBox="0 0 50 35" fill="none" xmlns="http://www.w3.org/2000/svg">
<path d="M39.7628 34.4503H1.87676C0.840106 34.4503 0 33.6176 0 32.5901V7.1701C0 6.14258 0.840106 5.30988 1.87676 5.30988H39.7628C40.7995 5.30988 41.6396 6.14258 41.6396 7.1701V32.5901C41.6396 33.6176 40.7995 34.4503 39.7628 34.4503Z" fill="#F9C82B"/>
<path opacity="0.5" d="M40.0216 29.0454L22.4374 17.7534C21.453 17.1213 20.1858 17.1213 19.2022 17.7534L1.61801 29.0454C0.608725 29.6932 0 30.8037 0 31.9956V32.3565C0 33.384 0.840106 34.2167 1.87676 34.2167H39.7628C40.7995 34.2167 41.6396 33.384 41.6396 32.3565V31.9956C41.6396 30.8037 41.0309 29.6932 40.0216 29.0454Z" fill="#E5C93E"/>
<path d="M40.0216 29.279L22.4374 17.987C21.453 17.3548 20.1858 17.3548 19.2022 17.987L1.61801 29.279C0.608725 29.9267 0 31.0373 0 32.2292V32.5901C0 33.6176 0.840106 34.4503 1.87676 34.4503H39.7628C40.7995 34.4503 41.6396 33.6176 41.6396 32.5901V32.2292C41.6396 31.0373 41.0309 29.9267 40.0216 29.279Z" fill="url(#paint0_linear)"/>
<path opacity="0.3" d="M0 8.99895C0 10.1909 0.608725 11.3014 1.61801 11.9492L19.2022 21.8865C20.1866 22.5186 21.4538 22.5186 22.4374 21.8865L40.0216 11.9492C41.0309 11.3014 41.6396 10.1909 41.6396 8.99895V7.13873H0V8.99895Z" fill="#FFE550"/>
<path d="M0 7.1701C0 8.36202 0.608725 9.47256 1.61801 10.1203L19.2022 21.4123C20.1866 22.0445 21.4538 22.0445 22.4374 21.4123L40.0216 10.1203C41.0309 9.47256 41.6396 8.36202 41.6396 7.1701C41.6396 6.14258 40.7995 5.30988 39.7628 5.30988H1.87676C0.840106 5.3107 0 6.1434 0 7.1701Z" fill="url(#paint1_linear)"/>
<path d="M1.87676 5.48147H39.7628C40.7771 5.48147 41.6006 6.27882 41.6363 7.27593C41.6371 7.24058 41.6396 7.20605 41.6396 7.17071C41.6396 6.14319 40.7995 5.31049 39.7628 5.31049H1.87676C0.840106 5.31049 0 6.14319 0 7.16989C0 7.20523 0.00248798 7.24058 0.0033173 7.2751C0.0389783 6.27882 0.862498 5.48147 1.87676 5.48147Z" fill="#E5C93E"/>
<path d="M44.3906 16.4612C47.448 13.4308 47.448 8.51754 44.3906 5.48712C41.3332 2.45671 36.3763 2.45671 33.3189 5.48713C30.2615 8.51754 30.2615 13.4308 33.3189 16.4612C36.3763 19.4917 41.3332 19.4917 44.3906 16.4612Z" fill="#51AAE1"/>
<g clip-path="url(#clip0)">
<path d="M42.1471 6.64471L34.3681 11.6455L36.8541 12.6978L40.6886 8.58949L37.772 13.0864L37.7743 13.0874L37.7714 13.0864V15.5351L39.1656 13.6762L40.9317 14.4238L42.1471 6.64471Z" fill="white"/>
</g>
<path opacity="0.3" d="M38.8128 3.31085C38.7356 3.31085 38.6601 3.31432 38.5837 3.31693C42.3939 3.43838 45.4458 6.5625 45.4458 10.4024C45.4458 14.3186 42.2707 17.4939 38.3547 17.4939C34.4387 17.4939 31.2636 14.3186 31.2636 10.4024C31.2636 9.51744 31.4267 8.6707 31.7234 7.88902C31.2818 8.8659 31.0337 9.94863 31.0337 11.0895C31.0337 15.3857 34.5159 18.869 38.8128 18.869C43.1087 18.869 46.5918 15.3857 46.5918 11.0895C46.591 6.79414 43.1087 3.31085 38.8128 3.31085Z" fill="#3A6076"/>
<defs>
<linearGradient id="paint0_linear" x1="20.8198" y1="19.9374" x2="20.8198" y2="42.5648" gradientUnits="userSpaceOnUse">
<stop offset="0.4444" stop-color="#F6BF20"/>
<stop offset="0.6717" stop-color="#F6AB0E"/>
</linearGradient>
<linearGradient id="paint1_linear" x1="20.8198" y1="2.05354" x2="20.8198" y2="23.5657" gradientUnits="userSpaceOnUse">
<stop offset="0.1315" stop-color="#FFF457"/>
<stop offset="0.3307" stop-color="#FFDF43"/>
<stop offset="0.8845" stop-color="#FFD231"/>
</linearGradient>
<clipPath id="clip0">
<rect width="7.77906" height="8.89036" fill="white" transform="translate(34.3681 6.64471)"/>
</clipPath>
</defs>
</svg>
