<svg width="24" height="24" viewBox="0 0 24 24" fill="none" xmlns="http://www.w3.org/2000/svg">
<g id="IconUpload">
<path id="Mask" fill-rule="evenodd" clip-rule="evenodd" d="M21.846 11.8273C21.8673 11.8954 21.8886 11.9635 21.9028 12.0342C21.9648 12.3472 21.9998 12.6692 21.9998 13.0002C21.9998 13.3082 21.9638 13.6112 21.9078 13.9102C21.8954 13.9784 21.8787 14.0437 21.8621 14.1091C21.8545 14.1387 21.847 14.1683 21.8398 14.1982C21.7898 14.3972 21.7308 14.5922 21.6578 14.7832C21.6198 14.8822 21.5808 14.9792 21.5368 15.0752C21.4498 15.2652 21.3488 15.4472 21.2378 15.6262C21.2205 15.654 21.2041 15.6821 21.1877 15.7103C21.1604 15.7573 21.133 15.8042 21.1018 15.8492C21.0927 15.8622 21.0849 15.8756 21.0772 15.889C21.0689 15.9034 21.0607 15.9177 21.0508 15.9312C21.0431 15.9422 21.0323 15.9493 21.0217 15.9563C21.0131 15.962 21.0045 15.9676 20.9978 15.9752C20.0858 17.1972 18.6418 18.0002 16.9998 18.0002H13.9998V16.7332C14.3008 16.9072 14.6428 17.0002 14.9998 17.0002C15.5338 17.0002 16.0358 16.7922 16.4138 16.4142C17.1938 15.6352 17.1938 14.3652 16.4138 13.5862L13.4138 10.5862C13.0378 10.2092 12.5358 10.0012 12.0018 10.0012C11.4828 10.0012 10.9898 10.1982 10.6138 10.5572L7.61079 13.4572C6.81779 14.2232 6.79579 15.4922 7.56179 16.2852C7.93779 16.6742 8.46179 16.8972 9.00179 16.8972C9.35679 16.8972 9.69879 16.8042 9.99979 16.6302V18.0002H6.99979C5.35779 18.0002 3.91379 17.1972 3.00279 15.9752C2.99578 15.9678 2.98723 15.9622 2.97867 15.9567C2.96768 15.9496 2.95665 15.9425 2.94879 15.9312C2.93821 15.9167 2.92949 15.9013 2.92074 15.8859C2.91376 15.8735 2.90677 15.8612 2.89879 15.8492C2.86687 15.8033 2.83862 15.7552 2.81039 15.7073C2.7944 15.6801 2.77842 15.653 2.76179 15.6262C2.65179 15.4472 2.54979 15.2652 2.46279 15.0752C2.4202 14.9823 2.38324 14.8884 2.34554 14.7928L2.34179 14.7832C2.26979 14.5922 2.20979 14.3972 2.16079 14.1982C2.15446 14.1729 2.14792 14.1478 2.1414 14.1228C2.12318 14.0528 2.10504 13.9831 2.09179 13.9102C2.03679 13.6112 1.99979 13.3082 1.99979 13.0002C1.99979 12.6692 2.03579 12.3472 2.09679 12.0342C2.11136 11.9613 2.13356 11.8913 2.15576 11.8212C2.1686 11.7807 2.18143 11.7402 2.19279 11.6992C2.19697 11.6839 2.20113 11.6685 2.2053 11.6531C2.25297 11.4774 2.30065 11.3017 2.36779 11.1352C2.40401 11.0447 2.44848 10.9599 2.49308 10.8749C2.51252 10.8379 2.53197 10.8008 2.55079 10.7632C2.55719 10.7505 2.56356 10.7378 2.56993 10.7251C2.64021 10.5852 2.70943 10.4473 2.79379 10.3162C2.85756 10.2153 2.9298 10.1222 3.0021 10.0291C3.01936 10.0068 3.03663 9.98457 3.05379 9.96221L3.05733 9.95766C3.15413 9.8332 3.2501 9.7098 3.35779 9.59421C3.45426 9.49017 3.5579 9.39686 3.66276 9.30244C3.66877 9.29704 3.67478 9.29163 3.68079 9.28621C3.79879 9.18021 3.91879 9.07821 4.04679 8.98421C4.16579 8.89621 4.28779 8.81621 4.41479 8.74021C4.55479 8.65421 4.69779 8.57721 4.84579 8.50621C4.97579 8.44321 5.10579 8.38621 5.24179 8.33521C5.40379 8.27321 5.57079 8.22421 5.74079 8.18021C5.87579 8.14421 6.00779 8.10921 6.14779 8.08621C6.17421 8.08137 6.19986 8.07439 6.2255 8.06742C6.25808 8.05855 6.29065 8.04969 6.32479 8.04521C7.14579 5.66121 9.41979 4.00021 11.9998 4.00021C14.5808 4.00021 16.8548 5.66121 17.6748 8.04521C17.709 8.0497 17.7419 8.05859 17.7749 8.06747C17.8007 8.07443 17.8264 8.08138 17.8528 8.08621C17.9918 8.10921 18.1248 8.14421 18.2588 8.18021C18.4288 8.22421 18.5958 8.27321 18.7578 8.33521C18.8938 8.38621 19.0248 8.44321 19.1538 8.50621C19.3018 8.57721 19.4448 8.65421 19.5848 8.74021C19.7118 8.81621 19.8348 8.89621 19.9538 8.98421C20.0808 9.07821 20.2008 9.18021 20.3188 9.28621C20.4308 9.38621 20.5398 9.48421 20.6428 9.59421C20.7518 9.71121 20.8488 9.83621 20.9458 9.96221C20.9585 9.97857 20.9712 9.99486 20.9839 10.0111C21.0612 10.1103 21.1381 10.2088 21.2068 10.3162C21.2899 10.4468 21.3588 10.5841 21.4288 10.7235C21.4354 10.7367 21.4421 10.7499 21.4488 10.7632C21.4676 10.8008 21.4871 10.8379 21.5065 10.8749C21.5511 10.9599 21.5956 11.0447 21.6318 11.1352C21.7 11.3022 21.7479 11.4785 21.7957 11.6547C21.7997 11.6696 21.8038 11.6844 21.8078 11.6992C21.8193 11.7423 21.8326 11.7848 21.846 11.8273ZM11.305 11.28C11.699 10.904 12.322 10.907 12.707 11.293L15.707 14.293C16.098 14.684 16.098 15.316 15.707 15.707C15.512 15.902 15.256 16 15 16C14.744 16 14.488 15.902 14.293 15.707L13 14.414V20C13 20.553 12.552 21 12 21C11.448 21 11 20.553 11 20V14.356L9.69499 15.616C9.29799 16.001 8.66499 15.988 8.28099 15.591C7.89699 15.193 7.90799 14.561 8.30499 14.177L11.305 11.28Z" fill="#231F20"/>
<mask id="mask0" mask-type="alpha" maskUnits="userSpaceOnUse" x="1" y="4" width="21" height="17">
<path id="Mask_2" fill-rule="evenodd" clip-rule="evenodd" d="M21.846 11.8273C21.8673 11.8954 21.8886 11.9635 21.9028 12.0342C21.9648 12.3472 21.9998 12.6692 21.9998 13.0002C21.9998 13.3082 21.9638 13.6112 21.9078 13.9102C21.8954 13.9784 21.8787 14.0437 21.8621 14.1091C21.8545 14.1387 21.847 14.1683 21.8398 14.1982C21.7898 14.3972 21.7308 14.5922 21.6578 14.7832C21.6198 14.8822 21.5808 14.9792 21.5368 15.0752C21.4498 15.2652 21.3488 15.4472 21.2378 15.6262C21.2205 15.654 21.2041 15.6821 21.1877 15.7103C21.1604 15.7573 21.133 15.8042 21.1018 15.8492C21.0927 15.8622 21.0849 15.8756 21.0772 15.889C21.0689 15.9034 21.0607 15.9177 21.0508 15.9312C21.0431 15.9422 21.0323 15.9493 21.0217 15.9563C21.0131 15.962 21.0045 15.9676 20.9978 15.9752C20.0858 17.1972 18.6418 18.0002 16.9998 18.0002H13.9998V16.7332C14.3008 16.9072 14.6428 17.0002 14.9998 17.0002C15.5338 17.0002 16.0358 16.7922 16.4138 16.4142C17.1938 15.6352 17.1938 14.3652 16.4138 13.5862L13.4138 10.5862C13.0378 10.2092 12.5358 10.0012 12.0018 10.0012C11.4828 10.0012 10.9898 10.1982 10.6138 10.5572L7.61079 13.4572C6.81779 14.2232 6.79579 15.4922 7.56179 16.2852C7.93779 16.6742 8.46179 16.8972 9.00179 16.8972C9.35679 16.8972 9.69879 16.8042 9.99979 16.6302V18.0002H6.99979C5.35779 18.0002 3.91379 17.1972 3.00279 15.9752C2.99578 15.9678 2.98723 15.9622 2.97867 15.9567C2.96768 15.9496 2.95665 15.9425 2.94879 15.9312C2.93821 15.9167 2.92949 15.9013 2.92074 15.8859C2.91376 15.8735 2.90677 15.8612 2.89879 15.8492C2.86687 15.8033 2.83862 15.7552 2.81039 15.7073C2.7944 15.6801 2.77842 15.653 2.76179 15.6262C2.65179 15.4472 2.54979 15.2652 2.46279 15.0752C2.4202 14.9823 2.38324 14.8884 2.34554 14.7928L2.34179 14.7832C2.26979 14.5922 2.20979 14.3972 2.16079 14.1982C2.15446 14.1729 2.14792 14.1478 2.1414 14.1228C2.12318 14.0528 2.10504 13.9831 2.09179 13.9102C2.03679 13.6112 1.99979 13.3082 1.99979 13.0002C1.99979 12.6692 2.03579 12.3472 2.09679 12.0342C2.11136 11.9613 2.13356 11.8913 2.15576 11.8212C2.1686 11.7807 2.18143 11.7402 2.19279 11.6992C2.19697 11.6839 2.20113 11.6685 2.2053 11.6531C2.25297 11.4774 2.30065 11.3017 2.36779 11.1352C2.40401 11.0447 2.44848 10.9599 2.49308 10.8749C2.51252 10.8379 2.53197 10.8008 2.55079 10.7632C2.55719 10.7505 2.56356 10.7378 2.56993 10.7251C2.64021 10.5852 2.70943 10.4473 2.79379 10.3162C2.85756 10.2153 2.9298 10.1222 3.0021 10.0291C3.01936 10.0068 3.03663 9.98457 3.05379 9.96221L3.05733 9.95766C3.15413 9.8332 3.2501 9.7098 3.35779 9.59421C3.45426 9.49017 3.5579 9.39686 3.66276 9.30244C3.66877 9.29704 3.67478 9.29163 3.68079 9.28621C3.79879 9.18021 3.91879 9.07821 4.04679 8.98421C4.16579 8.89621 4.28779 8.81621 4.41479 8.74021C4.55479 8.65421 4.69779 8.57721 4.84579 8.50621C4.97579 8.44321 5.10579 8.38621 5.24179 8.33521C5.40379 8.27321 5.57079 8.22421 5.74079 8.18021C5.87579 8.14421 6.00779 8.10921 6.14779 8.08621C6.17421 8.08137 6.19986 8.07439 6.2255 8.06742C6.25808 8.05855 6.29065 8.04969 6.32479 8.04521C7.14579 5.66121 9.41979 4.00021 11.9998 4.00021C14.5808 4.00021 16.8548 5.66121 17.6748 8.04521C17.709 8.0497 17.7419 8.05859 17.7749 8.06747C17.8007 8.07443 17.8264 8.08138 17.8528 8.08621C17.9918 8.10921 18.1248 8.14421 18.2588 8.18021C18.4288 8.22421 18.5958 8.27321 18.7578 8.33521C18.8938 8.38621 19.0248 8.44321 19.1538 8.50621C19.3018 8.57721 19.4448 8.65421 19.5848 8.74021C19.7118 8.81621 19.8348 8.89621 19.9538 8.98421C20.0808 9.07821 20.2008 9.18021 20.3188 9.28621C20.4308 9.38621 20.5398 9.48421 20.6428 9.59421C20.7518 9.71121 20.8488 9.83621 20.9458 9.96221C20.9585 9.97857 20.9712 9.99486 20.9839 10.0111C21.0612 10.1103 21.1381 10.2088 21.2068 10.3162C21.2899 10.4468 21.3588 10.5841 21.4288 10.7235C21.4354 10.7367 21.4421 10.7499 21.4488 10.7632C21.4676 10.8008 21.4871 10.8379 21.5065 10.8749C21.5511 10.9599 21.5956 11.0447 21.6318 11.1352C21.7 11.3022 21.7479 11.4785 21.7957 11.6547C21.7997 11.6696 21.8038 11.6844 21.8078 11.6992C21.8193 11.7423 21.8326 11.7848 21.846 11.8273ZM11.305 11.28C11.699 10.904 12.322 10.907 12.707 11.293L15.707 14.293C16.098 14.684 16.098 15.316 15.707 15.707C15.512 15.902 15.256 16 15 16C14.744 16 14.488 15.902 14.293 15.707L13 14.414V20C13 20.553 12.552 21 12 21C11.448 21 11 20.553 11 20V14.356L9.69499 15.616C9.29799 16.001 8.66499 15.988 8.28099 15.591C7.89699 15.193 7.90799 14.561 8.30499 14.177L11.305 11.28Z" fill="white"/>
</mask>
<g mask="url(#mask0)">
<g id="&#240;&#159;&#142;&#168; Color">
<rect id="Base" width="24" height="24" fill="#0D1C2E"/>
</g>
</g>
</g>
</svg>
