<svg width="24" height="25" viewBox="0 0 24 25" fill="none" xmlns="http://www.w3.org/2000/svg">
<g id="IconCheckStock">
<path id="Mask" fill-rule="evenodd" clip-rule="evenodd" d="M3.2407 8.09288L11.7617 12.7289C11.9087 12.8089 12.0907 12.8089 12.2387 12.7289L20.7597 8.09288C21.1027 7.90588 21.0727 7.42788 20.7077 7.28088L12.1877 3.84188C12.0677 3.79388 11.9317 3.79388 11.8117 3.84188L3.2917 7.28088C2.9277 7.42788 2.8977 7.90588 3.2407 8.09288ZM20.708 11.4621L18.878 10.6821L12.239 14.2941C12.091 14.3741 11.909 14.3741 11.761 14.2941L5.122 10.6821L3.292 11.4621C2.927 11.6171 2.897 12.1231 3.241 12.3201L11.761 17.2171C11.909 17.3021 12.091 17.3021 12.239 17.2171L20.759 12.3201C21.103 12.1231 21.073 11.6171 20.708 11.4621ZM19.151 15.2285L20.708 15.9025C21.073 16.0605 21.103 16.5735 20.759 16.7735L12.239 21.7415C12.091 21.8275 11.909 21.8275 11.761 21.7415L3.241 16.7735C2.897 16.5735 2.927 16.0605 3.292 15.9025L4.849 15.2285L11.761 18.9895C11.909 19.0695 12.091 19.0695 12.239 18.9895L19.151 15.2285Z" fill="white"/>
<mask id="mask0" mask-type="alpha" maskUnits="userSpaceOnUse" x="2" y="3" width="20" height="19">
<path id="Mask_2" fill-rule="evenodd" clip-rule="evenodd" d="M3.2407 8.09288L11.7617 12.7289C11.9087 12.8089 12.0907 12.8089 12.2387 12.7289L20.7597 8.09288C21.1027 7.90588 21.0727 7.42788 20.7077 7.28088L12.1877 3.84188C12.0677 3.79388 11.9317 3.79388 11.8117 3.84188L3.2917 7.28088C2.9277 7.42788 2.8977 7.90588 3.2407 8.09288ZM20.708 11.4621L18.878 10.6821L12.239 14.2941C12.091 14.3741 11.909 14.3741 11.761 14.2941L5.122 10.6821L3.292 11.4621C2.927 11.6171 2.897 12.1231 3.241 12.3201L11.761 17.2171C11.909 17.3021 12.091 17.3021 12.239 17.2171L20.759 12.3201C21.103 12.1231 21.073 11.6171 20.708 11.4621ZM19.151 15.2285L20.708 15.9025C21.073 16.0605 21.103 16.5735 20.759 16.7735L12.239 21.7415C12.091 21.8275 11.909 21.8275 11.761 21.7415L3.241 16.7735C2.897 16.5735 2.927 16.0605 3.292 15.9025L4.849 15.2285L11.761 18.9895C11.909 19.0695 12.091 19.0695 12.239 18.9895L19.151 15.2285Z" fill="white"/>
</mask>
<g mask="url(#mask0)">
<g id="&#240;&#159;&#142;&#168; Color">
<rect id="Base" y="0.805786" width="24" height="24" fill="white"/>
</g>
</g>
</g>
</svg>
