<svg width="111" height="111" viewBox="0 0 111 111" fill="none" xmlns="http://www.w3.org/2000/svg">
<path d="M88.8 38.8497H14.7998C10.7132 38.8497 7.39978 42.1631 7.39978 46.2497V109.15H96.1998V46.2497C96.1998 42.1631 92.8866 38.8497 88.8 38.8497Z" fill="#C7CACC"/>
<path d="M88.7997 105.45V49.9504C88.7997 47.9062 87.1439 46.2504 85.0996 46.2504H18.4996C16.4553 46.2504 14.7996 47.9062 14.7996 49.9504V105.45H88.7997Z" fill="white"/>
<path d="M77.7003 68.45H25.9004V83.2499H77.7003V68.45Z" fill="#FFD500"/>
<path d="M35.1497 74.0002H31.4497V77.7002H35.1497V74.0002Z" fill="#126099"/>
<path d="M42.5497 74.0002H38.8497V77.7002H42.5497V74.0002Z" fill="#126099"/>
<path d="M49.9504 74.0002H46.2504V77.7002H49.9504V74.0002Z" fill="#126099"/>
<path d="M57.3502 74.0002H53.6501V77.7002H57.3502V74.0002Z" fill="#126099"/>
<path d="M61.7217 29.6003H104.779C107.193 29.6003 109.15 31.5576 109.15 33.9718V56.6787C109.15 59.0929 107.193 61.0502 104.779 61.0502H61.7217C59.3075 61.0502 57.3502 59.0929 57.3502 56.6787V33.9718C57.35 31.5576 59.3074 29.6003 61.7217 29.6003Z" fill="#FFD500"/>
<path d="M83.2496 1.85022C72.0107 1.85022 62.8995 10.9614 62.8995 22.2003V29.6003H70.2996V22.2003C70.2996 15.0481 76.0976 9.25027 83.2496 9.25027C90.4016 9.25027 96.1996 15.0483 96.1996 22.2003V29.6003H103.6V22.2003C103.6 10.9616 94.4884 1.85022 83.2496 1.85022Z" fill="#DADDDF"/>
<path d="M37.0003 29.6003H33.3003V33.3003H37.0003V29.6003Z" fill="#87CED9"/>
<path d="M37.0003 22.2004H33.3003V25.9005H37.0003V22.2004Z" fill="#87CED9"/>
<path d="M37.0003 14.7996H33.3003V18.4996H37.0003V14.7996Z" fill="#87CED9"/>
<path d="M37.0003 7.39996H33.3003V11.1H37.0003V7.39996Z" fill="#87CED9"/>
<path d="M44.4 7.39996H40.7V11.1H44.4V7.39996Z" fill="#87CED9"/>
<path d="M51.7999 7.39996H48.0999V11.1H51.7999V7.39996Z" fill="#87CED9"/>
<path d="M59.1998 7.39996H55.4998V11.1H59.1998V7.39996Z" fill="#87CED9"/>
<path d="M96.2002 109.15H7.40041C4.33505 109.15 1.85046 106.666 1.85046 103.6V98.0503H40.7004C41.9677 98.0503 43.1276 98.7663 43.6937 99.9002C44.2598 101.034 45.4197 101.75 46.687 101.75H57.3503C58.6175 101.75 59.7774 101.034 60.3435 99.9002C60.9097 98.7663 62.0695 98.0503 63.3368 98.0503H101.75V103.6C101.75 106.666 99.2658 109.15 96.2002 109.15Z" fill="#DADDDF"/>
<path d="M107.115 41C99.0704 52.9811 85.9318 58.2361 77 60.5065C77.4662 60.8279 78.019 61 78.5862 61H106.197C107.745 61 109 59.7449 109 58.197V43.637C108.998 42.446 108.241 41.3879 107.115 41Z" fill="#FFA230"/>
<path d="M86.9495 44.3997C86.9587 42.3554 85.3105 40.6923 83.2662 40.683C81.2219 40.6738 79.5589 42.322 79.5495 44.3663C79.5438 45.6946 80.2487 46.923 81.3994 47.5871V53.6495H85.0994V47.5871C86.2411 46.9305 86.9459 45.7169 86.9495 44.3997Z" fill="#556575"/>
<path d="M70.2998 25.9003H62.8998V29.6004H70.2998V25.9003Z" fill="#C7CACC"/>
<path d="M103.6 25.9003H96.1997V29.6004H103.6V25.9003Z" fill="#C7CACC"/>
<path d="M7.40005 111H96.2001C100.287 111 103.6 107.687 103.6 103.6V98.0501C103.6 97.0288 102.771 96.2002 101.75 96.2002H98.0502V66.6002H94.3502V96.2002H90.6501V66.6002H86.9501V96.2002H63.3366C61.3663 96.1929 59.5645 97.3084 58.6895 99.0733C58.4379 99.5838 57.9181 99.904 57.3501 99.9002H46.6868C46.1188 99.904 45.599 99.582 45.3493 99.0733C44.4743 97.3084 42.6706 96.1929 40.7003 96.2002H16.65V49.9502C16.65 48.9289 17.4788 48.1003 18.4999 48.1003H51.8V44.4002H18.4999C15.4346 44.4002 12.95 46.8848 12.95 49.9502V96.2002H9.24997V46.2502C9.24997 43.1848 11.7346 40.7002 14.7999 40.7002H51.8V37.0002H14.7999C9.69386 37.0058 5.55539 41.1441 5.54994 46.2502V96.2002H1.84992C0.828633 96.2002 0 97.029 0 98.0501V103.6C0 107.687 3.3134 111 7.40005 111ZM3.70003 99.9H40.7001C41.2681 99.8982 41.786 100.218 42.0395 100.725C42.9126 102.492 44.7163 103.607 46.6866 103.6H57.3499C59.3221 103.607 61.1239 102.492 61.9989 100.725C62.2505 100.216 62.7686 99.8963 63.3364 99.9H99.8997V103.6C99.8997 105.644 98.244 107.3 96.1997 107.3H7.40005C5.35579 107.3 3.70003 105.644 3.70003 103.6V99.9Z" fill="black"/>
<path d="M24.05 68.4504V83.2503C24.05 84.2716 24.8789 85.1002 25.9 85.1002H77.6999C78.7212 85.1002 79.5499 84.2714 79.5499 83.2503V68.4504C79.5499 67.4291 78.721 66.6005 77.6999 66.6005H25.9C24.8787 66.6005 24.05 67.4291 24.05 68.4504ZM27.7499 70.3003H75.85V81.4004H27.7499V70.3003Z" fill="black"/>
<path d="M35.1497 74.0002H31.4497V77.7002H35.1497V74.0002Z" fill="black"/>
<path d="M42.5497 74.0002H38.8497V77.7002H42.5497V74.0002Z" fill="black"/>
<path d="M49.9504 74.0002H46.2504V77.7002H49.9504V74.0002Z" fill="black"/>
<path d="M57.3502 74.0002H53.6501V77.7002H57.3502V74.0002Z" fill="black"/>
<path d="M105.45 27.8184V22.2C105.45 9.94003 95.5096 0 83.2497 0C70.9897 0 61.0497 9.94003 61.0497 22.2V27.8184C57.901 28.1532 55.5108 30.8044 55.4998 33.9696V56.6801C55.5035 60.1137 58.2878 62.8961 61.7214 62.8999H104.778C108.212 62.8961 110.996 60.1137 111 56.6801V33.9696C110.989 30.8044 108.598 28.1532 105.45 27.8184ZM64.7497 22.2C64.7497 11.9824 73.0321 3.70003 83.2497 3.70003C93.4672 3.70003 101.75 11.9824 101.75 22.2V27.7499H98.0496V22.2C98.0496 14.0267 91.4229 7.40005 83.2497 7.40005C75.0764 7.40005 68.4497 14.0267 68.4497 22.2V27.7499H64.7497V22.2ZM72.1498 27.7499V22.2C72.1498 16.0691 77.1189 11.0999 83.2498 11.0999C89.3807 11.0999 94.3499 16.0691 94.3499 22.2V27.7499H72.1498ZM107.3 56.6803C107.298 58.0715 106.169 59.1981 104.778 59.2H61.7214C60.3302 59.1981 59.2017 58.0715 59.1998 56.6803V33.9696C59.2017 32.5784 60.3302 31.4518 61.7214 31.4499H104.778C106.17 31.4518 107.298 32.5784 107.3 33.9696L107.3 56.6803Z" fill="black"/>
<path d="M83.2504 38.8496C80.1923 38.844 77.7077 41.3175 77.7023 44.3755C77.6985 46.7287 79.1804 48.8266 81.4004 49.6093V53.6497H85.1005V49.6093C87.9846 48.5936 89.4997 45.4319 88.4841 42.5478C87.7015 40.3278 85.6037 38.8459 83.2504 38.8496ZM83.2504 46.2497C82.2291 46.2497 81.4004 45.4209 81.4004 44.3998C81.4004 43.3787 82.2293 42.5498 83.2504 42.5498C84.2716 42.5498 85.1003 43.3787 85.1003 44.3998C85.1003 45.4209 84.2716 46.2497 83.2504 46.2497Z" fill="black"/>
<path d="M37.0003 29.6003H33.3003V33.3003H37.0003V29.6003Z" fill="black"/>
<path d="M37.0003 22.2004H33.3003V25.9005H37.0003V22.2004Z" fill="black"/>
<path d="M37.0003 14.7996H33.3003V18.4996H37.0003V14.7996Z" fill="black"/>
<path d="M37.0003 7.39996H33.3003V11.1H37.0003V7.39996Z" fill="black"/>
<path d="M44.4 7.39996H40.7V11.1H44.4V7.39996Z" fill="black"/>
<path d="M51.7999 7.39996H48.0999V11.1H51.7999V7.39996Z" fill="black"/>
<path d="M59.1998 7.39996H55.4998V11.1H59.1998V7.39996Z" fill="black"/>
</svg>
