<svg width="22" height="16" viewBox="0 0 22 16" fill="none" xmlns="http://www.w3.org/2000/svg">
<rect x="0.5" y="0.5" width="11.9032" height="14.4839" rx="3.5" stroke="#0C0C0C"/>
<rect x="3.08203" y="3.08105" width="6.74194" height="9.32258" rx="1.5" fill="#FFD500" stroke="black"/>
<path d="M20.1535 9.06462L20.1535 9.06463L20.1561 9.06273C20.615 8.7317 20.6191 8.0414 20.1538 7.70974L20.1535 7.70952L16.085 4.81442L16.0836 4.81344C15.5306 4.42277 14.7798 4.8235 14.7798 5.49197V6.80161H6.47217H5.89242L5.9776 7.37507C6.07371 8.02212 6.44179 8.65695 6.91233 9.12703C7.37908 9.59332 8.01744 9.96613 8.70138 9.96613H14.7798V11.2822C14.7798 11.9462 15.5308 12.3541 16.085 11.9597C16.085 11.9597 16.085 11.9597 16.085 11.9597L20.1535 9.06462Z" fill="white" stroke="#0C0C0C"/>
</svg>
