<svg width="73" height="73" viewBox="0 0 73 73" fill="none" xmlns="http://www.w3.org/2000/svg">
<g id="Icon/Fill/star">
<path id="Mask" fill-rule="evenodd" clip-rule="evenodd" d="M53.416 63.8774C52.9354 63.8774 52.4518 63.7649 52.0077 63.5337L36.4983 55.4307L20.9919 63.5337C19.9638 64.066 18.7228 63.9748 17.792 63.2934C16.8552 62.6121 16.3898 61.4593 16.5875 60.3187L19.541 43.2002L7.00932 31.0792C6.1759 30.2731 5.87477 29.0625 6.23065 27.9554C6.58652 26.8543 7.53856 26.0482 8.68831 25.884L26.0258 23.3655L33.776 7.77391C34.8041 5.70557 38.1955 5.70557 39.2236 7.77391L46.9738 23.3655L64.3113 25.884C65.461 26.0482 66.4131 26.8543 66.7689 27.9554C67.1248 29.0625 66.8237 30.2731 65.9903 31.0792L53.4586 43.2002L56.4121 60.3187C56.6098 61.4593 56.1413 62.6121 55.2076 63.2934C54.6783 63.6828 54.0487 63.8774 53.416 63.8774Z" fill="#231F20"/>
<mask id="mask0" mask-type="alpha" maskUnits="userSpaceOnUse" x="6" y="6" width="61" height="58">
<path id="Mask_2" fill-rule="evenodd" clip-rule="evenodd" d="M53.416 63.8774C52.9354 63.8774 52.4518 63.7649 52.0077 63.5337L36.4983 55.4307L20.9919 63.5337C19.9638 64.066 18.7228 63.9748 17.792 63.2934C16.8552 62.6121 16.3898 61.4593 16.5875 60.3187L19.541 43.2002L7.00932 31.0792C6.1759 30.2731 5.87477 29.0625 6.23065 27.9554C6.58652 26.8543 7.53856 26.0482 8.68831 25.884L26.0258 23.3655L33.776 7.77391C34.8041 5.70557 38.1955 5.70557 39.2236 7.77391L46.9738 23.3655L64.3113 25.884C65.461 26.0482 66.4131 26.8543 66.7689 27.9554C67.1248 29.0625 66.8237 30.2731 65.9903 31.0792L53.4586 43.2002L56.4121 60.3187C56.6098 61.4593 56.1413 62.6121 55.2076 63.2934C54.6783 63.6828 54.0487 63.8774 53.416 63.8774Z" fill="white"/>
</mask>
<g mask="url(#mask0)">
<g id="&#240;&#159;&#142;&#168; Color">
<rect id="Base" width="73" height="73" fill="#FFD500"/>
</g>
</g>
</g>
</svg>
