<svg width="17" height="19" viewBox="0 0 17 19" fill="none" xmlns="http://www.w3.org/2000/svg">
<path d="M15.148 15.5989H5.72089C5.59897 15.5989 5.48943 15.5539 5.41465 15.485C5.34124 15.4173 5.30859 15.3347 5.30859 15.2581V1.80563C5.30859 1.72903 5.34124 1.64643 5.41465 1.57877C5.48943 1.50986 5.59897 1.46484 5.72089 1.46484H12.5199L15.5603 4.26686V15.2581C15.5603 15.3347 15.5276 15.4173 15.4542 15.485C15.3795 15.5539 15.2699 15.5989 15.148 15.5989Z" stroke="black"/>
<path d="M13.2148 2.13498L14.8138 3.66437H13.6271C13.5108 3.66437 13.4034 3.61995 13.3277 3.54746C13.2526 3.4757 13.2148 3.38323 13.2148 3.29177V2.13498Z" fill="#FFD500" stroke="black"/>
<path d="M3.58512 17.0772L4.96471 17.8436L6.3443 17.0772C8.20245 16.045 9.3552 14.0858 9.3552 11.9599V9.06262L4.96471 7.59912L0.574219 9.06262V11.9599C0.574219 14.0858 1.72697 16.045 3.58512 17.0772Z" fill="#FFD500" stroke="black" stroke-linecap="round" stroke-linejoin="round"/>
<path d="M4.96302 18.0875C4.92253 18.0875 4.88155 18.0773 4.84448 18.0568L3.46489 17.2904C1.53014 16.2152 0.328125 14.1727 0.328125 11.9599V9.06264C0.328125 8.95775 0.395445 8.86458 0.494963 8.83141L4.88545 7.36791C4.9357 7.35132 4.98985 7.35132 5.03961 7.36791L9.4301 8.83141C9.5301 8.86458 9.59742 8.95775 9.59742 9.06264V11.9599C9.59742 14.1732 8.39541 16.2157 6.46066 17.2904L5.08107 18.0568C5.04449 18.0773 5.00351 18.0875 4.96302 18.0875ZM3.70197 16.864L4.96302 17.5646L6.22406 16.864C8.00368 15.8752 9.10959 13.9961 9.10959 11.9599V9.23826L4.96302 7.85623L0.816445 9.23826V11.9599C0.816445 13.9961 1.92236 15.8752 3.70197 16.864Z" fill="black"/>
<path d="M4.46875 14.9167C4.46875 15.1894 4.68995 15.4106 4.96267 15.4106C5.23538 15.4106 5.45658 15.1894 5.45658 14.9167V10.0383C5.45658 9.76564 5.23538 9.54443 4.96267 9.54443C4.68995 9.54443 4.46875 9.76564 4.46875 10.0383V14.9167Z" fill="black" stroke="black" stroke-width="0.5"/>
<path d="M2.52517 12.9712H7.40349C7.6762 12.9712 7.8974 12.75 7.8974 12.4773C7.8974 12.2046 7.6762 11.9834 7.40349 11.9834H2.52517C2.25245 11.9834 2.03125 12.2046 2.03125 12.4773C2.03125 12.75 2.25245 12.9712 2.52517 12.9712Z" fill="black" stroke="black" stroke-width="0.5"/>
<path d="M7.39062 5.26611L13.1003 5.26611" stroke="black" stroke-linecap="round" stroke-linejoin="round"/>
<path d="M9.06641 7.38281H13.0998" stroke="black" stroke-linecap="round" stroke-linejoin="round"/>
<path d="M11.043 9.43945L13.0986 9.43945" stroke="black" stroke-linecap="round" stroke-linejoin="round"/>
<path d="M11.1406 13.2612L13.1009 13.2612" stroke="black" stroke-linecap="round" stroke-linejoin="round"/>
</svg>
