<svg width="29" height="29" viewBox="0 0 29 29" fill="none" xmlns="http://www.w3.org/2000/svg">
<g clip-path="url(#clip0)">
<path d="M14.072 11.3416C14.3996 11.7347 15.0045 11.7352 15.3324 11.3416L19.434 6.4197C19.878 5.88677 19.4986 5.07422 18.8038 5.07422H17.1631V0.972656C17.1631 0.519625 16.7959 0.152344 16.3428 0.152344H13.0616C12.6085 0.152344 12.2413 0.519625 12.2413 0.972656V5.07422H10.6006C9.9071 5.07422 9.5256 5.88578 9.97048 6.4197L14.072 11.3416Z" fill="#148F0F"/>
<path d="M26.4914 5.13314C26.0706 4.96481 25.5933 5.16945 25.4251 5.59011L22.3501 13.2776H7.05456L3.9796 5.59011C3.81138 5.16951 3.33406 4.96487 2.9133 5.13314C2.4927 5.30142 2.28806 5.77878 2.45638 6.19944L5.6789 14.2558V27.3323C5.6789 27.7853 6.04618 28.1526 6.49921 28.1526H22.9055C23.3585 28.1526 23.7258 27.7853 23.7258 27.3323V14.2558L26.9483 6.19944C27.1166 5.77878 26.912 5.30136 26.4914 5.13314ZM16.343 18.2542H13.0617C12.6087 18.2542 12.2414 17.8869 12.2414 17.4338C12.2414 16.9808 12.6087 16.6135 13.0617 16.6135H16.343C16.796 16.6135 17.1633 16.9808 17.1633 17.4338C17.1633 17.8869 16.796 18.2542 16.343 18.2542Z" fill="#148F0F"/>
</g>
<defs>
<clipPath id="clip0">
<rect width="28" height="28" fill="white" transform="translate(0.702148 0.152344)"/>
</clipPath>
</defs>
</svg>
