<svg width="36" height="37" viewBox="0 0 36 37" fill="none" xmlns="http://www.w3.org/2000/svg">
<path fill-rule="evenodd" clip-rule="evenodd" d="M28.1454 7.28809C27.4705 6.80019 26.597 6.66141 25.8096 6.91851C24.9682 7.19314 23.8726 7.33775 22.6412 7.33775C20.9993 7.33775 19.5736 6.77828 18.0631 6.18666C16.3657 5.52201 14.6084 4.83398 12.4158 4.83398C8.19998 4.83398 6.56683 6.22464 6.28052 6.50511C6.00151 6.77828 5.84229 7.15516 5.84229 7.5481V17.981V22.5722V29.6672C5.84229 30.475 6.49671 31.1279 7.30306 31.1279C8.11087 31.1279 8.76383 30.475 8.76383 29.6672V23.3887C9.34084 23.1331 10.4773 22.7811 12.4158 22.7811C14.0577 22.7811 15.4849 23.3405 16.9953 23.9336C18.6927 24.5983 20.4486 25.2848 22.6412 25.2848C25.2837 25.2848 26.911 24.7327 27.8138 24.2696C28.6786 23.8211 29.2147 22.952 29.2147 21.9966V9.37115C29.2147 8.55312 28.8159 7.77452 28.1454 7.28809Z" fill="#9D9D9D"/>
<mask id="mask0_1008_220" style="mask-type:alpha" maskUnits="userSpaceOnUse" x="5" y="4" width="25" height="28">
<path fill-rule="evenodd" clip-rule="evenodd" d="M28.1454 7.28809C27.4705 6.80019 26.597 6.66141 25.8096 6.91851C24.9682 7.19314 23.8726 7.33775 22.6412 7.33775C20.9993 7.33775 19.5736 6.77828 18.0631 6.18666C16.3657 5.52201 14.6084 4.83398 12.4158 4.83398C8.19998 4.83398 6.56683 6.22464 6.28052 6.50511C6.00151 6.77828 5.84229 7.15516 5.84229 7.5481V17.981V22.5722V29.6672C5.84229 30.475 6.49671 31.1279 7.30306 31.1279C8.11087 31.1279 8.76383 30.475 8.76383 29.6672V23.3887C9.34084 23.1331 10.4773 22.7811 12.4158 22.7811C14.0577 22.7811 15.4849 23.3405 16.9953 23.9336C18.6927 24.5983 20.4486 25.2848 22.6412 25.2848C25.2837 25.2848 26.911 24.7327 27.8138 24.2696C28.6786 23.8211 29.2147 22.952 29.2147 21.9966V9.37115C29.2147 8.55312 28.8159 7.77452 28.1454 7.28809Z" fill="white"/>
</mask>
<g mask="url(#mask0_1008_220)">
<path d="M35.0586 0.452148H0V35.5107H35.0586V0.452148Z" fill="#9D9D9D"/>
<path d="M12.3489 13.1233L14.9481 17.4099L22.31 12.9458" stroke="white" stroke-width="2" stroke-linecap="round" stroke-linejoin="round"/>
</g>
</svg>
