<svg width="32" height="32" viewBox="0 0 32 32" fill="none" xmlns="http://www.w3.org/2000/svg">
<g clip-path="url(#clip0)">
<path d="M24.3817 14.7812V1.82602C24.3817 1.29859 23.9542 0.871094 23.4268 0.871094H16.9739V10.0818C16.9739 10.8467 16.1243 11.2922 15.4957 10.8808L12.5362 8.94219L9.57637 10.8808C8.93874 11.2975 8.09822 10.8371 8.09822 10.0818V0.871094H1.64535C1.11793 0.871094 0.69043 1.29859 0.69043 1.82602V21.4727C0.69043 22.0002 1.11793 22.4277 1.64535 22.4277H15.1075C15.842 17.8709 19.9173 14.6029 24.3817 14.7812Z" fill="#148F0F"/>
<path d="M12.3506 24.3386C13.0027 26.0903 11.3725 27.1843 11.3725 27.1843C12.9131 26.5445 14.2206 28.3447 14.2206 28.3447C13.5884 26.9196 15.1861 25.3603 15.1861 25.3603C13.7164 25.9489 12.3506 24.3386 12.3506 24.3386Z" fill="#148F0F"/>
<path d="M10.3548 28.3029C10.8161 29.5418 9.66316 30.3154 9.66316 30.3154C10.7529 29.8629 11.678 31.1362 11.678 31.1362C11.2306 30.1283 12.3608 29.0257 12.3608 29.0257C11.321 29.4418 10.3548 28.3029 10.3548 28.3029Z" fill="#148F0F"/>
<path d="M8.52372 24.4191C8.98508 25.658 7.83204 26.4314 7.83204 26.4314C8.92181 25.9789 9.84687 27.2523 9.84687 27.2523C9.39956 26.2445 10.5297 25.1417 10.5297 25.1417C9.48994 25.558 8.52372 24.4191 8.52372 24.4191Z" fill="#148F0F"/>
<path d="M13.0591 7.00176L15.0638 8.31507V0.871094H10.0078V8.31437L12.0125 7.00176C12.3251 6.79677 12.7376 6.79093 13.0591 7.00176Z" fill="#148F0F"/>
<path d="M24.0972 16.6855C20.1301 16.6855 16.9014 19.9122 16.9014 23.8813C16.9014 27.8484 20.129 31.0771 24.0972 31.0771C28.0647 31.0771 31.293 27.8488 31.293 23.8813C31.293 19.9085 28.0593 16.6855 24.0972 16.6855ZM27.1466 25.0445H22.6757V28.295C22.6757 28.8222 22.2478 29.2499 21.7206 29.2499C21.1929 29.2499 20.7657 28.8222 20.7657 28.295C20.7657 27.9254 20.7657 19.8856 20.7657 19.8847C20.7657 19.3575 21.1929 18.9297 21.7206 18.9297H27.1466C27.8741 18.9297 28.3371 19.7156 27.9787 20.3526L27.0595 21.9874L27.9787 23.6217C28.3374 24.2591 27.8746 25.0445 27.1466 25.0445Z" fill="#148F0F"/>
<path d="M22.6758 20.8398V23.1349H25.5137C24.8516 21.9582 24.8065 22.0964 25.5137 20.8398C24.2242 20.8398 23.9585 20.8398 22.6758 20.8398Z" fill="#148F0F"/>
<circle cx="23.8738" cy="23.8748" r="7.41877" fill="#148F0F"/>
<path fill-rule="evenodd" clip-rule="evenodd" d="M24.337 19.3877C22.6272 19.3877 21.2412 20.7738 21.2412 22.4835C21.2412 23.0512 21.5826 23.8941 22.0386 24.7667L22.3517 25.3407C22.9395 26.378 23.619 27.3817 24.0113 27.9418C24.1697 28.168 24.5044 28.168 24.6627 27.9418C25.4577 26.8066 27.4328 23.8492 27.4328 22.4836C27.4328 20.7738 26.0467 19.3877 24.337 19.3877Z" fill="white"/>
<path d="M24.3375 19.2383C22.5477 19.2383 21.0918 20.6943 21.0918 22.4839C21.0918 23.0107 21.3659 23.8022 21.9075 24.8389L22.2206 25.4129C22.221 25.4136 22.2214 25.4143 22.2218 25.415C22.8228 26.4755 23.5244 27.5075 23.8891 28.0282C23.9915 28.1745 24.1591 28.2618 24.3375 28.2618C24.5159 28.2618 24.6836 28.1745 24.786 28.0282C25.627 26.8274 27.5832 23.8834 27.5832 22.4839C27.5831 20.6943 26.1271 19.2383 24.3375 19.2383ZM24.5404 27.8564C24.4933 27.9236 24.4194 27.9622 24.3374 27.9622C24.2554 27.9622 24.1815 27.9236 24.1344 27.8564C23.773 27.3401 23.0778 26.3177 22.4831 25.2683L22.1719 24.6978C21.654 23.7068 21.3914 22.962 21.3914 22.484C21.3914 20.8597 22.713 19.5381 24.3374 19.5381C25.9617 19.5381 27.2833 20.8598 27.2833 22.484C27.2834 23.8351 25.1839 26.9377 24.5404 27.8564Z" fill="white"/>
<path d="M24.6119 24.1727C25.5445 24.0214 26.1779 23.1426 26.0265 22.2099C25.8752 21.2773 24.9964 20.6439 24.0637 20.7953C23.1311 20.9466 22.4977 21.8254 22.6491 22.7581C22.8004 23.6907 23.6792 24.3241 24.6119 24.1727Z" fill="#148F0F"/>
<path d="M24.3373 20.623C23.3113 20.623 22.4766 21.4577 22.4766 22.4837C22.4766 23.5098 23.3113 24.3445 24.3373 24.3445C25.3633 24.3445 26.198 23.5098 26.198 22.4837C26.198 21.4578 25.3633 20.623 24.3373 20.623ZM24.3373 24.0448C23.4766 24.0448 22.7763 23.3445 22.7763 22.4837C22.7763 21.6231 23.4766 20.9228 24.3373 20.9228C25.1981 20.9228 25.8983 21.6231 25.8983 22.4837C25.8983 23.3446 25.1981 24.0448 24.3373 24.0448Z" fill="#148F0F"/>
</g>
<defs>
<clipPath id="clip0">
<rect width="30.6024" height="30.6024" fill="white" transform="translate(0.69043 0.691406)"/>
</clipPath>
</defs>
</svg>
