<svg width="31" height="33" viewBox="0 0 31 33" fill="none" xmlns="http://www.w3.org/2000/svg">
<path fill-rule="evenodd" clip-rule="evenodd" d="M8.37079 10.0546L10.5474 7.80545C10.7858 7.56037 11.1135 7.41939 11.4489 7.41939H19.5381C19.8735 7.41939 20.2012 7.56037 20.4396 7.80545L22.6162 10.0546H8.37079ZM15.4935 21.913C12.6806 21.913 10.3931 19.5493 10.3931 16.6426C10.3931 15.9153 10.9631 15.325 11.6682 15.325C12.3733 15.325 12.9433 15.9153 12.9433 16.6426C12.9433 18.0959 14.0871 19.2778 15.4935 19.2778C16.8987 19.2778 18.0437 18.0959 18.0437 16.6426C18.0437 15.9153 18.6137 15.325 19.3188 15.325C20.0239 15.325 20.5939 15.9153 20.5939 16.6426C20.5939 19.5493 18.3064 21.913 15.4935 21.913ZM25.8486 9.66854L22.2426 5.94235C21.5209 5.19527 20.5595 4.78418 19.5381 4.78418H11.4489C10.4275 4.78418 9.46609 5.19527 8.74438 5.94235L5.13839 9.66854C4.41541 10.4143 4.01758 11.4078 4.01758 12.4645V24.5483C4.01758 26.7276 5.73386 28.5011 7.84288 28.5011H23.1441C25.2531 28.5011 26.9694 26.7276 26.9694 24.5483V12.4645C26.9694 11.4078 26.5703 10.4143 25.8486 9.66854Z" fill="#231F20"/>
<mask id="mask0" mask-type="alpha" maskUnits="userSpaceOnUse" x="4" y="4" width="23" height="25">
<path fill-rule="evenodd" clip-rule="evenodd" d="M8.37079 10.0546L10.5474 7.80545C10.7858 7.56037 11.1135 7.41939 11.4489 7.41939H19.5381C19.8735 7.41939 20.2012 7.56037 20.4396 7.80545L22.6162 10.0546H8.37079ZM15.4935 21.913C12.6806 21.913 10.3931 19.5493 10.3931 16.6426C10.3931 15.9153 10.9631 15.325 11.6682 15.325C12.3733 15.325 12.9433 15.9153 12.9433 16.6426C12.9433 18.0959 14.0871 19.2778 15.4935 19.2778C16.8987 19.2778 18.0437 18.0959 18.0437 16.6426C18.0437 15.9153 18.6137 15.325 19.3188 15.325C20.0239 15.325 20.5939 15.9153 20.5939 16.6426C20.5939 19.5493 18.3064 21.913 15.4935 21.913ZM25.8486 9.66854L22.2426 5.94235C21.5209 5.19527 20.5595 4.78418 19.5381 4.78418H11.4489C10.4275 4.78418 9.46609 5.19527 8.74438 5.94235L5.13839 9.66854C4.41541 10.4143 4.01758 11.4078 4.01758 12.4645V24.5483C4.01758 26.7276 5.73386 28.5011 7.84288 28.5011H23.1441C25.2531 28.5011 26.9694 26.7276 26.9694 24.5483V12.4645C26.9694 11.4078 26.5703 10.4143 25.8486 9.66854Z" fill="white"/>
</mask>
<g mask="url(#mask0)">
<rect x="0.191406" y="0.831055" width="30.6024" height="31.6225" fill="#148F0F"/>
</g>
</svg>
