<svg width="45" height="33" viewBox="0 0 45 33" fill="none" xmlns="http://www.w3.org/2000/svg">
<path fill-rule="evenodd" clip-rule="evenodd" d="M14.3678 30.4794C14.245 30.4794 14.1214 30.4506 14.0079 30.3915L10.0443 28.3207L6.08146 30.3915C5.81873 30.5276 5.50158 30.5042 5.26372 30.3301C5.0243 30.156 4.90537 29.8614 4.95589 29.5699L5.71068 25.1951L2.50809 22.0974C2.2951 21.8915 2.21814 21.5821 2.30909 21.2991C2.40004 21.0177 2.64334 20.8117 2.93717 20.7698L7.36794 20.1261L9.34858 16.1416C9.61131 15.613 10.478 15.613 10.7408 16.1416L12.7214 20.1261L17.1522 20.7698C17.446 20.8117 17.6893 21.0177 17.7803 21.2991C17.8712 21.5821 17.7942 21.8915 17.5813 22.0974L14.3787 25.1951L15.1335 29.5699C15.184 29.8614 15.0643 30.156 14.8256 30.3301C14.6904 30.4296 14.5295 30.4794 14.3678 30.4794Z" fill="#231F20"/>
<mask id="mask0" mask-type="alpha" maskUnits="userSpaceOnUse" x="2" y="15" width="16" height="16">
<path fill-rule="evenodd" clip-rule="evenodd" d="M14.3678 30.4794C14.245 30.4794 14.1214 30.4506 14.0079 30.3915L10.0443 28.3207L6.08146 30.3915C5.81873 30.5276 5.50158 30.5042 5.26372 30.3301C5.0243 30.156 4.90537 29.8614 4.95589 29.5699L5.71068 25.1951L2.50809 22.0974C2.2951 21.8915 2.21814 21.5821 2.30909 21.2991C2.40004 21.0177 2.64334 20.8117 2.93717 20.7698L7.36794 20.1261L9.34858 16.1416C9.61131 15.613 10.478 15.613 10.7408 16.1416L12.7214 20.1261L17.1522 20.7698C17.446 20.8117 17.6893 21.0177 17.7803 21.2991C17.8712 21.5821 17.7942 21.8915 17.5813 22.0974L14.3787 25.1951L15.1335 29.5699C15.184 29.8614 15.0643 30.156 14.8256 30.3301C14.6904 30.4296 14.5295 30.4794 14.3678 30.4794Z" fill="white"/>
</mask>
<g mask="url(#mask0)">
<rect x="0.716797" y="14.1553" width="18.6559" height="18.6559" fill="#979797"/>
</g>
<path fill-rule="evenodd" clip-rule="evenodd" d="M39.5533 30.4784C39.4305 30.4784 39.3069 30.4496 39.1934 30.3906L35.2298 28.3198L31.267 30.3906C31.0043 30.5266 30.6871 30.5033 30.4493 30.3292C30.2098 30.155 30.0909 29.8604 30.1414 29.5689L30.8962 25.1941L27.6936 22.0965C27.4806 21.8905 27.4037 21.5811 27.4946 21.2982C27.5856 21.0168 27.8289 20.8108 28.1227 20.7688L32.5535 20.1252L34.5341 16.1406C34.7969 15.612 35.6636 15.612 35.9263 16.1406L37.9069 20.1252L42.3377 20.7688C42.6316 20.8108 42.8749 21.0168 42.9658 21.2982C43.0568 21.5811 42.9798 21.8905 42.7668 22.0965L39.5642 25.1941L40.319 29.5689C40.3695 29.8604 40.2498 30.155 40.0112 30.3292C39.8759 30.4286 39.715 30.4784 39.5533 30.4784Z" fill="#231F20"/>
<mask id="mask1" mask-type="alpha" maskUnits="userSpaceOnUse" x="27" y="15" width="17" height="16">
<path fill-rule="evenodd" clip-rule="evenodd" d="M39.5533 30.4784C39.4305 30.4784 39.3069 30.4496 39.1934 30.3906L35.2298 28.3198L31.267 30.3906C31.0043 30.5266 30.6871 30.5033 30.4493 30.3292C30.2098 30.155 30.0909 29.8604 30.1414 29.5689L30.8962 25.1941L27.6936 22.0965C27.4806 21.8905 27.4037 21.5811 27.4946 21.2982C27.5856 21.0168 27.8289 20.8108 28.1227 20.7688L32.5535 20.1252L34.5341 16.1406C34.7969 15.612 35.6636 15.612 35.9263 16.1406L37.9069 20.1252L42.3377 20.7688C42.6316 20.8108 42.8749 21.0168 42.9658 21.2982C43.0568 21.5811 42.9798 21.8905 42.7668 22.0965L39.5642 25.1941L40.319 29.5689C40.3695 29.8604 40.2498 30.155 40.0112 30.3292C39.8759 30.4286 39.715 30.4784 39.5533 30.4784Z" fill="white"/>
</mask>
<g mask="url(#mask1)">
<rect x="25.9023" y="14.1543" width="18.6559" height="18.6559" fill="#979797"/>
</g>
<path fill-rule="evenodd" clip-rule="evenodd" d="M27.4264 16.4862C27.3036 16.4862 27.18 16.4574 27.0665 16.3984L23.1029 14.3276L19.1401 16.3984C18.8773 16.5344 18.5602 16.5111 18.3223 16.337C18.0829 16.1628 17.964 15.8682 18.0145 15.5767L18.7693 11.2019L15.5667 8.10428C15.3537 7.89829 15.2767 7.58891 15.3677 7.30596C15.4586 7.02457 15.7019 6.81858 15.9958 6.7766L20.4265 6.13298L22.4072 2.14839C22.6699 1.61981 23.5366 1.61981 23.7994 2.14839L25.78 6.13298L30.2108 6.7766C30.5046 6.81858 30.7479 7.02457 30.8388 7.30596C30.9298 7.58891 30.8528 7.89829 30.6399 8.10428L27.4373 11.2019L28.192 15.5767C28.2426 15.8682 28.1229 16.1628 27.8842 16.337C27.749 16.4365 27.5881 16.4862 27.4264 16.4862Z" fill="#231F20"/>
<mask id="mask2" mask-type="alpha" maskUnits="userSpaceOnUse" x="15" y="1" width="16" height="16">
<path fill-rule="evenodd" clip-rule="evenodd" d="M27.4264 16.4862C27.3036 16.4862 27.18 16.4574 27.0665 16.3984L23.1029 14.3276L19.1401 16.3984C18.8773 16.5344 18.5602 16.5111 18.3223 16.337C18.0829 16.1628 17.964 15.8682 18.0145 15.5767L18.7693 11.2019L15.5667 8.10428C15.3537 7.89829 15.2767 7.58891 15.3677 7.30596C15.4586 7.02457 15.7019 6.81858 15.9958 6.7766L20.4265 6.13298L22.4072 2.14839C22.6699 1.61981 23.5366 1.61981 23.7994 2.14839L25.78 6.13298L30.2108 6.7766C30.5046 6.81858 30.7479 7.02457 30.8388 7.30596C30.9298 7.58891 30.8528 7.89829 30.6399 8.10428L27.4373 11.2019L28.192 15.5767C28.2426 15.8682 28.1229 16.1628 27.8842 16.337C27.749 16.4365 27.5881 16.4862 27.4264 16.4862Z" fill="white"/>
</mask>
<g mask="url(#mask2)">
<rect x="13.7754" y="0.162109" width="18.6559" height="18.6559" fill="#979797"/>
</g>
</svg>
