<svg width="24" height="24" viewBox="0 0 24 24" fill="none" xmlns="http://www.w3.org/2000/svg">
<path fill-rule="evenodd" clip-rule="evenodd" d="M16.6654 13.1667H11.9987C11.3547 13.1667 10.832 12.6452 10.832 12V7.33333C10.832 6.68816 11.3547 6.16666 11.9987 6.16666C12.6427 6.16666 13.1654 6.68816 13.1654 7.33333V10.8333H16.6654C17.3105 10.8333 17.832 11.3548 17.832 12C17.832 12.6452 17.3105 13.1667 16.6654 13.1667ZM11.9987 0.333328C5.5657 0.333328 0.332031 5.567 0.332031 12C0.332031 18.433 5.5657 23.6667 11.9987 23.6667C18.4317 23.6667 23.6654 18.433 23.6654 12C23.6654 5.567 18.4317 0.333328 11.9987 0.333328Z" fill="#231F20"/>
</svg>
