<svg width="28" height="28" viewBox="0 0 28 28" fill="none" xmlns="http://www.w3.org/2000/svg">
<g clip-path="url(#clip0_1007_207)">
<path d="M13.3699 11.1892C13.6974 11.5823 14.3023 11.5828 14.6303 11.1892L18.7318 6.26735C19.1758 5.73442 18.7964 4.92188 18.1016 4.92188H16.461V0.820313C16.461 0.367281 16.0937 0 15.6407 0H12.3594C11.9064 0 11.5391 0.367281 11.5391 0.820313V4.92188H9.89849C9.20495 4.92188 8.82345 5.73344 9.26833 6.26735L13.3699 11.1892Z" fill="#9D9D9D"/>
<path d="M25.7892 4.9808C25.3685 4.81247 24.8912 5.01711 24.7229 5.43777L21.648 13.1252H6.35242L3.27745 5.43777C3.10923 5.01717 2.63192 4.81252 2.21115 4.9808C1.79055 5.14907 1.58591 5.62644 1.75424 6.04709L4.97675 14.1035V27.1799C4.97675 27.633 5.34403 28.0002 5.79706 28.0002H22.2033C22.6563 28.0002 23.0236 27.633 23.0236 27.1799V14.1035L26.2462 6.04709C26.4145 5.62644 26.2099 5.14902 25.7892 4.9808ZM15.6408 18.1018H12.3596C11.9065 18.1018 11.5393 17.7345 11.5393 17.2815C11.5393 16.8285 11.9065 16.4612 12.3596 16.4612H15.6408C16.0938 16.4612 16.4611 16.8285 16.4611 17.2815C16.4611 17.7345 16.0938 18.1018 15.6408 18.1018Z" fill="#9D9D9D"/>
</g>
<defs>
<clipPath id="clip0_1007_207">
<rect width="28" height="28" fill="white"/>
</clipPath>
</defs>
</svg>
