<svg width="32" height="31" viewBox="0 0 32 31" fill="none" xmlns="http://www.w3.org/2000/svg">
<path fill-rule="evenodd" clip-rule="evenodd" d="M24.806 23.2477C24.806 23.9557 24.2314 24.5303 23.5234 24.5303C22.8154 24.5303 22.2408 23.9557 22.2408 23.2477C22.2408 22.5397 22.8154 21.9651 23.5234 21.9651C24.2314 21.9651 24.806 22.5397 24.806 23.2477ZM9.41491 23.2477C9.41491 23.9557 8.84031 24.5303 8.13232 24.5303C7.42433 24.5303 6.84973 23.9557 6.84973 23.2477C6.84973 22.5397 7.42433 21.9651 8.13232 21.9651C8.84031 21.9651 9.41491 22.5397 9.41491 23.2477ZM26.0886 16.1678V19.3999H22.2408V13.0908L26.0886 16.1678ZM28.1728 14.5504L22.2408 9.80482V6.57397C22.2408 5.15927 21.1981 4.00879 19.9155 4.00879H5.32601C4.0447 4.00879 3.00195 5.15927 3.00195 6.57397V19.3999C3.00195 20.5196 3.65992 21.4636 4.568 21.8137C4.38844 22.2575 4.28455 22.7398 4.28455 23.2477C4.28455 25.3691 6.01091 27.0954 8.13232 27.0954C10.2537 27.0954 11.9801 25.3691 11.9801 23.2477C11.9801 22.7949 11.8878 22.3678 11.7428 21.9651H15.8279H19.9129C19.768 22.3678 19.6756 22.7949 19.6756 23.2477C19.6756 25.3691 21.402 27.0954 23.5234 27.0954C25.6448 27.0954 27.3712 25.3691 27.3712 23.2477C27.3712 22.7949 27.2789 22.3678 27.1339 21.9651H27.3712C28.0805 21.9651 28.6538 21.3918 28.6538 20.6825V15.5521C28.6538 15.1622 28.4768 14.7941 28.1728 14.5504Z" fill="#231F20"/>
<mask id="mask0" mask-type="alpha" maskUnits="userSpaceOnUse" x="3" y="4" width="26" height="24">
<path fill-rule="evenodd" clip-rule="evenodd" d="M24.806 23.2477C24.806 23.9557 24.2314 24.5303 23.5234 24.5303C22.8154 24.5303 22.2408 23.9557 22.2408 23.2477C22.2408 22.5397 22.8154 21.9651 23.5234 21.9651C24.2314 21.9651 24.806 22.5397 24.806 23.2477ZM9.41491 23.2477C9.41491 23.9557 8.84031 24.5303 8.13232 24.5303C7.42433 24.5303 6.84973 23.9557 6.84973 23.2477C6.84973 22.5397 7.42433 21.9651 8.13232 21.9651C8.84031 21.9651 9.41491 22.5397 9.41491 23.2477ZM26.0886 16.1678V19.3999H22.2408V13.0908L26.0886 16.1678ZM28.1728 14.5504L22.2408 9.80482V6.57397C22.2408 5.15927 21.1981 4.00879 19.9155 4.00879H5.32601C4.0447 4.00879 3.00195 5.15927 3.00195 6.57397V19.3999C3.00195 20.5196 3.65992 21.4636 4.568 21.8137C4.38844 22.2575 4.28455 22.7398 4.28455 23.2477C4.28455 25.3691 6.01091 27.0954 8.13232 27.0954C10.2537 27.0954 11.9801 25.3691 11.9801 23.2477C11.9801 22.7949 11.8878 22.3678 11.7428 21.9651H15.8279H19.9129C19.768 22.3678 19.6756 22.7949 19.6756 23.2477C19.6756 25.3691 21.402 27.0954 23.5234 27.0954C25.6448 27.0954 27.3712 25.3691 27.3712 23.2477C27.3712 22.7949 27.2789 22.3678 27.1339 21.9651H27.3712C28.0805 21.9651 28.6538 21.3918 28.6538 20.6825V15.5521C28.6538 15.1622 28.4768 14.7941 28.1728 14.5504Z" fill="white"/>
</mask>
<g mask="url(#mask0)">
<rect x="0.462891" y="0.161133" width="30.7822" height="30.7822" fill="#148F0F"/>
</g>
</svg>
