<svg width="45" height="33" viewBox="0 0 45 33" fill="none" xmlns="http://www.w3.org/2000/svg">
<path fill-rule="evenodd" clip-rule="evenodd" d="M14.3668 30.4794C14.244 30.4794 14.1204 30.4506 14.0069 30.3915L10.0433 28.3207L6.08049 30.3915C5.81775 30.5276 5.5006 30.5042 5.26274 30.3301C5.02332 30.156 4.90439 29.8614 4.95492 29.5699L5.7097 25.1951L2.50711 22.0974C2.29412 21.8915 2.21717 21.5821 2.30811 21.2991C2.39906 21.0177 2.64237 20.8117 2.9362 20.7698L7.36697 20.1261L9.3476 16.1416C9.61034 15.613 10.4771 15.613 10.7398 16.1416L12.7204 20.1261L17.1512 20.7698C17.445 20.8117 17.6883 21.0177 17.7793 21.2991C17.8702 21.5821 17.7933 21.8915 17.5803 22.0974L14.3777 25.1951L15.1325 29.5699C15.183 29.8614 15.0633 30.156 14.8247 30.3301C14.6894 30.4296 14.5285 30.4794 14.3668 30.4794Z" fill="#231F20"/>
<mask id="mask0" mask-type="alpha" maskUnits="userSpaceOnUse" x="2" y="15" width="16" height="16">
<path fill-rule="evenodd" clip-rule="evenodd" d="M14.3668 30.4794C14.244 30.4794 14.1204 30.4506 14.0069 30.3915L10.0433 28.3207L6.08049 30.3915C5.81775 30.5276 5.5006 30.5042 5.26274 30.3301C5.02332 30.156 4.90439 29.8614 4.95492 29.5699L5.7097 25.1951L2.50711 22.0974C2.29412 21.8915 2.21717 21.5821 2.30811 21.2991C2.39906 21.0177 2.64237 20.8117 2.9362 20.7698L7.36697 20.1261L9.3476 16.1416C9.61034 15.613 10.4771 15.613 10.7398 16.1416L12.7204 20.1261L17.1512 20.7698C17.445 20.8117 17.6883 21.0177 17.7793 21.2991C17.8702 21.5821 17.7933 21.8915 17.5803 22.0974L14.3777 25.1951L15.1325 29.5699C15.183 29.8614 15.0633 30.156 14.8247 30.3301C14.6894 30.4296 14.5285 30.4794 14.3668 30.4794Z" fill="white"/>
</mask>
<g mask="url(#mask0)">
<rect x="0.71582" y="14.1553" width="18.6559" height="18.6559" fill="#148F0F"/>
</g>
<path fill-rule="evenodd" clip-rule="evenodd" d="M39.5524 30.4784C39.4295 30.4784 39.3059 30.4496 39.1925 30.3906L35.2289 28.3198L31.266 30.3906C31.0033 30.5266 30.6861 30.5033 30.4483 30.3292C30.2089 30.155 30.0899 29.8604 30.1405 29.5689L30.8952 25.1941L27.6927 22.0965C27.4797 21.8905 27.4027 21.5811 27.4937 21.2982C27.5846 21.0168 27.8279 20.8108 28.1217 20.7688L32.5525 20.1252L34.5331 16.1406C34.7959 15.612 35.6626 15.612 35.9253 16.1406L37.906 20.1252L42.3367 20.7688C42.6306 20.8108 42.8739 21.0168 42.9648 21.2982C43.0558 21.5811 42.9788 21.8905 42.7658 22.0965L39.5632 25.1941L40.318 29.5689C40.3685 29.8604 40.2488 30.155 40.0102 30.3292C39.8749 30.4286 39.714 30.4784 39.5524 30.4784Z" fill="#231F20"/>
<mask id="mask1" mask-type="alpha" maskUnits="userSpaceOnUse" x="27" y="15" width="17" height="16">
<path fill-rule="evenodd" clip-rule="evenodd" d="M39.5524 30.4784C39.4295 30.4784 39.3059 30.4496 39.1925 30.3906L35.2289 28.3198L31.266 30.3906C31.0033 30.5266 30.6861 30.5033 30.4483 30.3292C30.2089 30.155 30.0899 29.8604 30.1405 29.5689L30.8952 25.1941L27.6927 22.0965C27.4797 21.8905 27.4027 21.5811 27.4937 21.2982C27.5846 21.0168 27.8279 20.8108 28.1217 20.7688L32.5525 20.1252L34.5331 16.1406C34.7959 15.612 35.6626 15.612 35.9253 16.1406L37.906 20.1252L42.3367 20.7688C42.6306 20.8108 42.8739 21.0168 42.9648 21.2982C43.0558 21.5811 42.9788 21.8905 42.7658 22.0965L39.5632 25.1941L40.318 29.5689C40.3685 29.8604 40.2488 30.155 40.0102 30.3292C39.8749 30.4286 39.714 30.4784 39.5524 30.4784Z" fill="white"/>
</mask>
<g mask="url(#mask1)">
<rect x="25.9014" y="14.1543" width="18.6559" height="18.6559" fill="#148F0F"/>
</g>
<path fill-rule="evenodd" clip-rule="evenodd" d="M27.4254 16.4862C27.3026 16.4862 27.179 16.4574 27.0655 16.3984L23.1019 14.3276L19.1391 16.3984C18.8763 16.5344 18.5592 16.5111 18.3213 16.337C18.0819 16.1628 17.963 15.8682 18.0135 15.5767L18.7683 11.2019L15.5657 8.10428C15.3527 7.89829 15.2758 7.58891 15.3667 7.30596C15.4577 7.02457 15.701 6.81858 15.9948 6.7766L20.4256 6.13298L22.4062 2.14839C22.6689 1.61981 23.5357 1.61981 23.7984 2.14839L25.779 6.13298L30.2098 6.7766C30.5036 6.81858 30.7469 7.02457 30.8379 7.30596C30.9288 7.58891 30.8519 7.89829 30.6389 8.10428L27.4363 11.2019L28.1911 15.5767C28.2416 15.8682 28.1219 16.1628 27.8832 16.337C27.748 16.4365 27.5871 16.4862 27.4254 16.4862Z" fill="#231F20"/>
<mask id="mask2" mask-type="alpha" maskUnits="userSpaceOnUse" x="15" y="1" width="16" height="16">
<path fill-rule="evenodd" clip-rule="evenodd" d="M27.4254 16.4862C27.3026 16.4862 27.179 16.4574 27.0655 16.3984L23.1019 14.3276L19.1391 16.3984C18.8763 16.5344 18.5592 16.5111 18.3213 16.337C18.0819 16.1628 17.963 15.8682 18.0135 15.5767L18.7683 11.2019L15.5657 8.10428C15.3527 7.89829 15.2758 7.58891 15.3667 7.30596C15.4577 7.02457 15.701 6.81858 15.9948 6.7766L20.4256 6.13298L22.4062 2.14839C22.6689 1.61981 23.5357 1.61981 23.7984 2.14839L25.779 6.13298L30.2098 6.7766C30.5036 6.81858 30.7469 7.02457 30.8379 7.30596C30.9288 7.58891 30.8519 7.89829 30.6389 8.10428L27.4363 11.2019L28.1911 15.5767C28.2416 15.8682 28.1219 16.1628 27.8832 16.337C27.748 16.4365 27.5871 16.4862 27.4254 16.4862Z" fill="white"/>
</mask>
<g mask="url(#mask2)">
<rect x="13.7744" y="0.162109" width="18.6559" height="18.6559" fill="#148F0F"/>
</g>
</svg>
