<svg width="36" height="31" viewBox="0 0 36 31" fill="none" xmlns="http://www.w3.org/2000/svg">
<path fill-rule="evenodd" clip-rule="evenodd" d="M28.807 23.2477C28.807 23.9557 28.2324 24.5303 27.5244 24.5303C26.8164 24.5303 26.2418 23.9557 26.2418 23.2477C26.2418 22.5397 26.8164 21.9651 27.5244 21.9651C28.2324 21.9651 28.807 22.5397 28.807 23.2477ZM13.4159 23.2477C13.4159 23.9557 12.8413 24.5303 12.1333 24.5303C11.4253 24.5303 10.8507 23.9557 10.8507 23.2477C10.8507 22.5397 11.4253 21.9651 12.1333 21.9651C12.8413 21.9651 13.4159 22.5397 13.4159 23.2477ZM30.0896 16.1678V19.3999H26.2418V13.0908L30.0896 16.1678ZM32.1738 14.5504L26.2418 9.80482V6.57397C26.2418 5.15927 25.1991 4.00879 23.9165 4.00879H9.32699C8.04568 4.00879 7.00293 5.15927 7.00293 6.57397V19.3999C7.00293 20.5196 7.6609 21.4636 8.56897 21.8137C8.38941 22.2575 8.28552 22.7398 8.28552 23.2477C8.28552 25.3691 10.0119 27.0954 12.1333 27.0954C14.2547 27.0954 15.9811 25.3691 15.9811 23.2477C15.9811 22.7949 15.8887 22.3678 15.7438 21.9651H19.8288H23.9139C23.769 22.3678 23.6766 22.7949 23.6766 23.2477C23.6766 25.3691 25.403 27.0954 27.5244 27.0954C29.6458 27.0954 31.3722 25.3691 31.3722 23.2477C31.3722 22.7949 31.2798 22.3678 31.1349 21.9651H31.3722C32.0814 21.9651 32.6548 21.3918 32.6548 20.6825V15.5521C32.6548 15.1622 32.4778 14.7941 32.1738 14.5504Z" fill="#231F20"/>
<mask id="mask0" mask-type="alpha" maskUnits="userSpaceOnUse" x="7" y="4" width="26" height="24">
<path fill-rule="evenodd" clip-rule="evenodd" d="M28.807 23.2477C28.807 23.9557 28.2324 24.5303 27.5244 24.5303C26.8164 24.5303 26.2418 23.9557 26.2418 23.2477C26.2418 22.5397 26.8164 21.9651 27.5244 21.9651C28.2324 21.9651 28.807 22.5397 28.807 23.2477ZM13.4159 23.2477C13.4159 23.9557 12.8413 24.5303 12.1333 24.5303C11.4253 24.5303 10.8507 23.9557 10.8507 23.2477C10.8507 22.5397 11.4253 21.9651 12.1333 21.9651C12.8413 21.9651 13.4159 22.5397 13.4159 23.2477ZM30.0896 16.1678V19.3999H26.2418V13.0908L30.0896 16.1678ZM32.1738 14.5504L26.2418 9.80482V6.57397C26.2418 5.15927 25.1991 4.00879 23.9165 4.00879H9.32699C8.04568 4.00879 7.00293 5.15927 7.00293 6.57397V19.3999C7.00293 20.5196 7.6609 21.4636 8.56897 21.8137C8.38941 22.2575 8.28552 22.7398 8.28552 23.2477C8.28552 25.3691 10.0119 27.0954 12.1333 27.0954C14.2547 27.0954 15.9811 25.3691 15.9811 23.2477C15.9811 22.7949 15.8887 22.3678 15.7438 21.9651H19.8288H23.9139C23.769 22.3678 23.6766 22.7949 23.6766 23.2477C23.6766 25.3691 25.403 27.0954 27.5244 27.0954C29.6458 27.0954 31.3722 25.3691 31.3722 23.2477C31.3722 22.7949 31.2798 22.3678 31.1349 21.9651H31.3722C32.0814 21.9651 32.6548 21.3918 32.6548 20.6825V15.5521C32.6548 15.1622 32.4778 14.7941 32.1738 14.5504Z" fill="white"/>
</mask>
<g mask="url(#mask0)">
<rect x="4.46387" y="0.161133" width="30.7822" height="30.7822" fill="#979797"/>
</g>
<rect x="4.22363" y="7.62305" width="3.9719" height="2.97892" rx="1.48946" fill="#979797"/>
<rect x="4.22363" y="7.62305" width="3.9719" height="2.97892" rx="1.48946" fill="#979797"/>
<rect x="4.22363" y="7.62305" width="3.9719" height="2.97892" rx="1.48946" fill="#979797"/>
<rect x="0.492188" y="12.0771" width="7.94379" height="2.97892" rx="1.48946" fill="#979797"/>
<rect x="0.492188" y="12.0771" width="7.94379" height="2.97892" rx="1.48946" fill="#979797"/>
<rect x="0.492188" y="12.0771" width="7.94379" height="2.97892" rx="1.48946" fill="#979797"/>
<rect x="2.3584" y="16.9512" width="6.95082" height="2.97892" rx="1.48946" fill="#979797"/>
<rect x="2.3584" y="16.9512" width="6.95082" height="2.97892" rx="1.48946" fill="#979797"/>
<rect x="2.3584" y="16.9512" width="6.95082" height="2.97892" rx="1.48946" fill="#979797"/>
</svg>
