<svg width="32" height="32" viewBox="0 0 32 32" fill="none" xmlns="http://www.w3.org/2000/svg">
<g clip-path="url(#clip0)">
<path d="M24.3827 14.7812V1.82602C24.3827 1.29859 23.9552 0.871094 23.4277 0.871094H16.9749V10.0818C16.9749 10.8467 16.1252 11.2922 15.4967 10.8808L12.5371 8.94219L9.57735 10.8808C8.93972 11.2975 8.0992 10.8371 8.0992 10.0818V0.871094H1.64633C1.1189 0.871094 0.691406 1.29859 0.691406 1.82602V21.4727C0.691406 22.0002 1.1189 22.4277 1.64633 22.4277H15.1084C15.843 17.8709 19.9183 14.6029 24.3827 14.7812Z" fill="#979797"/>
<path d="M12.3516 24.3386C13.0036 26.0903 11.3734 27.1843 11.3734 27.1843C12.9141 26.5445 14.2216 28.3447 14.2216 28.3447C13.5894 26.9196 15.1871 25.3603 15.1871 25.3603C13.7174 25.9489 12.3516 24.3386 12.3516 24.3386Z" fill="#979797"/>
<path d="M10.3558 28.3029C10.8171 29.5418 9.66414 30.3154 9.66414 30.3154C10.7539 29.8629 11.679 31.1362 11.679 31.1362C11.2316 30.1283 12.3618 29.0257 12.3618 29.0257C11.322 29.4418 10.3558 28.3029 10.3558 28.3029Z" fill="#979797"/>
<path d="M8.5247 24.4191C8.98605 25.658 7.83301 26.4314 7.83301 26.4314C8.92279 25.9789 9.84785 27.2523 9.84785 27.2523C9.40053 26.2445 10.5306 25.1417 10.5306 25.1417C9.49091 25.558 8.5247 24.4191 8.5247 24.4191Z" fill="#979797"/>
<path d="M13.0601 7.00176L15.0648 8.31507V0.871094H10.0088V8.31437L12.0134 7.00176C12.3261 6.79677 12.7386 6.79093 13.0601 7.00176Z" fill="#979797"/>
<path d="M24.0981 16.6855C20.1311 16.6855 16.9023 19.9122 16.9023 23.8813C16.9023 27.8484 20.1299 31.0771 24.0981 31.0771C28.0656 31.0771 31.2939 27.8488 31.2939 23.8813C31.2939 19.9085 28.0603 16.6855 24.0981 16.6855ZM27.1476 25.0445H22.6767V28.295C22.6767 28.8222 22.2488 29.2499 21.7216 29.2499C21.1939 29.2499 20.7666 28.8222 20.7666 28.295C20.7666 27.9254 20.7666 19.8856 20.7666 19.8847C20.7666 19.3575 21.1939 18.9297 21.7216 18.9297H27.1476C27.8751 18.9297 28.3381 19.7156 27.9797 20.3526L27.0605 21.9874L27.9797 23.6217C28.3383 24.2591 27.8756 25.0445 27.1476 25.0445Z" fill="#979797"/>
<path d="M22.6768 20.8398V23.1349H25.5147C24.8525 21.9582 24.8075 22.0964 25.5147 20.8398C24.2252 20.8398 23.9595 20.8398 22.6768 20.8398Z" fill="#979797"/>
<circle cx="23.8748" cy="23.8748" r="7.41877" fill="#979797"/>
<path fill-rule="evenodd" clip-rule="evenodd" d="M24.338 19.3877C22.6282 19.3877 21.2422 20.7738 21.2422 22.4835C21.2422 23.0512 21.5836 23.8941 22.0396 24.7667L22.3527 25.3407C22.9405 26.378 23.62 27.3817 24.0123 27.9418C24.1707 28.168 24.5053 28.168 24.6637 27.9418C25.4587 26.8066 27.4338 23.8492 27.4338 22.4836C27.4338 20.7738 26.0477 19.3877 24.338 19.3877Z" fill="white"/>
<path d="M24.3384 19.2383C22.5487 19.2383 21.0928 20.6943 21.0928 22.4839C21.0928 23.0107 21.3668 23.8022 21.9085 24.8389L22.2216 25.4129C22.222 25.4136 22.2224 25.4143 22.2228 25.415C22.8238 26.4755 23.5253 27.5075 23.89 28.0282C23.9924 28.1745 24.1601 28.2618 24.3384 28.2618C24.5169 28.2618 24.6845 28.1745 24.7869 28.0282C25.628 26.8274 27.5842 23.8834 27.5842 22.4839C27.5841 20.6943 26.1281 19.2383 24.3384 19.2383ZM24.5414 27.8564C24.4943 27.9236 24.4204 27.9622 24.3383 27.9622C24.2564 27.9622 24.1825 27.9236 24.1354 27.8564C23.7739 27.3401 23.0787 26.3177 22.4841 25.2683L22.1728 24.6978C21.655 23.7068 21.3924 22.962 21.3924 22.484C21.3924 20.8597 22.714 19.5381 24.3383 19.5381C25.9627 19.5381 27.2843 20.8598 27.2843 22.484C27.2844 23.8351 25.1849 26.9377 24.5414 27.8564Z" fill="white"/>
<path d="M24.6129 24.1727C25.5455 24.0214 26.1789 23.1426 26.0275 22.2099C25.8762 21.2773 24.9974 20.6439 24.0647 20.7953C23.132 20.9466 22.4987 21.8254 22.65 22.7581C22.8014 23.6907 23.6802 24.3241 24.6129 24.1727Z" fill="#979797"/>
<path d="M24.3383 20.623C23.3123 20.623 22.4775 21.4577 22.4775 22.4837C22.4775 23.5098 23.3123 24.3445 24.3383 24.3445C25.3643 24.3445 26.199 23.5098 26.199 22.4837C26.199 21.4578 25.3643 20.623 24.3383 20.623ZM24.3383 24.0448C23.4776 24.0448 22.7773 23.3445 22.7773 22.4837C22.7773 21.6231 23.4776 20.9228 24.3383 20.9228C25.1991 20.9228 25.8992 21.6231 25.8992 22.4837C25.8992 23.3446 25.1991 24.0448 24.3383 24.0448Z" fill="#979797"/>
</g>
<defs>
<clipPath id="clip0">
<rect width="30.6024" height="30.6024" fill="white" transform="translate(0.691406 0.691406)"/>
</clipPath>
</defs>
</svg>
