<svg width="36" height="30" viewBox="0 0 36 30" fill="none" xmlns="http://www.w3.org/2000/svg">
<path fill-rule="evenodd" clip-rule="evenodd" d="M24.6386 11.8038H5.36085V10.5989C5.36085 9.93503 5.90062 9.39405 6.56571 9.39405H23.4337C24.0988 9.39405 24.6386 9.93503 24.6386 10.5989V11.8038ZM21.0241 19.0329H18.6143C17.9517 19.0329 17.4095 18.4907 17.4095 17.8281C17.4095 17.1654 17.9517 16.6232 18.6143 16.6232H21.0241C21.6867 16.6232 22.2289 17.1654 22.2289 17.8281C22.2289 18.4907 21.6867 19.0329 21.0241 19.0329ZM13.7949 19.0329H8.97551C8.31284 19.0329 7.77065 18.4907 7.77065 17.8281C7.77065 17.1654 8.31284 16.6232 8.97551 16.6232H13.7949C14.4576 16.6232 14.9998 17.1654 14.9998 17.8281C14.9998 18.4907 14.4576 19.0329 13.7949 19.0329ZM23.4338 6.98438H6.56575C4.57291 6.98438 2.95117 8.60611 2.95117 10.599V20.2378C2.95117 22.2307 4.57291 23.8524 6.56575 23.8524H23.4338C25.4266 23.8524 27.0483 22.2307 27.0483 20.2378V10.599C27.0483 8.60611 25.4266 6.98438 23.4338 6.98438Z" fill="#231F20"/>
<mask id="mask0" mask-type="alpha" maskUnits="userSpaceOnUse" x="2" y="6" width="26" height="18">
<path fill-rule="evenodd" clip-rule="evenodd" d="M24.6386 11.8038H5.36085V10.5989C5.36085 9.93503 5.90062 9.39405 6.56571 9.39405H23.4337C24.0988 9.39405 24.6386 9.93503 24.6386 10.5989V11.8038ZM21.0241 19.0329H18.6143C17.9517 19.0329 17.4095 18.4907 17.4095 17.8281C17.4095 17.1654 17.9517 16.6232 18.6143 16.6232H21.0241C21.6867 16.6232 22.2289 17.1654 22.2289 17.8281C22.2289 18.4907 21.6867 19.0329 21.0241 19.0329ZM13.7949 19.0329H8.97551C8.31284 19.0329 7.77065 18.4907 7.77065 17.8281C7.77065 17.1654 8.31284 16.6232 8.97551 16.6232H13.7949C14.4576 16.6232 14.9998 17.1654 14.9998 17.8281C14.9998 18.4907 14.4576 19.0329 13.7949 19.0329ZM23.4338 6.98438H6.56575C4.57291 6.98438 2.95117 8.60611 2.95117 10.599V20.2378C2.95117 22.2307 4.57291 23.8524 6.56575 23.8524H23.4338C25.4266 23.8524 27.0483 22.2307 27.0483 20.2378V10.599C27.0483 8.60611 25.4266 6.98438 23.4338 6.98438Z" fill="white"/>
</mask>
<g mask="url(#mask0)">
<rect x="0.541016" y="0.959961" width="28.9166" height="28.9166" fill="#148F0F"/>
</g>
<circle cx="27.5924" cy="9.35511" r="7.64515" fill="#148F0F" stroke="white" stroke-width="1.5"/>
<path d="M24.793 8.9819L27.2416 11.2206L30.8561 6.55664" stroke="white" stroke-width="2" stroke-linecap="round" stroke-linejoin="round"/>
</svg>
