<svg width="23" height="25" viewBox="0 0 23 25" fill="none" xmlns="http://www.w3.org/2000/svg">
<path fill-rule="evenodd" clip-rule="evenodd" d="M4.37079 6.05411L6.54739 3.80496C6.78583 3.55988 7.11353 3.4189 7.44889 3.4189H15.5381C15.8735 3.4189 16.2012 3.55988 16.4396 3.80496L18.6162 6.05411H4.37079ZM11.4935 17.9126C8.68062 17.9126 6.39309 15.5488 6.39309 12.6421C6.39309 11.9148 6.96306 11.3245 7.66819 11.3245C8.37332 11.3245 8.94329 11.9148 8.94329 12.6421C8.94329 14.0955 10.0871 15.2773 11.4935 15.2773C12.8987 15.2773 14.0437 14.0955 14.0437 12.6421C14.0437 11.9148 14.6137 11.3245 15.3188 11.3245C16.0239 11.3245 16.5939 11.9148 16.5939 12.6421C16.5939 15.5488 14.3064 17.9126 11.4935 17.9126ZM21.8486 5.66805L18.2426 1.94187C17.5209 1.19478 16.5595 0.783691 15.5381 0.783691H7.44887C6.42751 0.783691 5.46609 1.19478 4.74438 1.94187L1.13839 5.66805C0.41541 6.41382 0.0175781 7.40729 0.0175781 8.46401V20.5478C0.0175781 22.7271 1.73386 24.5006 3.84288 24.5006H19.1441C21.2531 24.5006 22.9694 22.7271 22.9694 20.5478V8.46401C22.9694 7.40729 22.5703 6.41382 21.8486 5.66805Z" fill="#979797"/>
</svg>
