<svg width="87" height="102" viewBox="0 0 87 102" fill="none" xmlns="http://www.w3.org/2000/svg">
<path fill-rule="evenodd" clip-rule="evenodd" d="M37.7933 3.19001C36.1884 2.76485 34.5016 2.53821 32.7615 2.53821C22.0201 2.53821 13.3124 11.1746 13.3124 21.828C13.3124 27.5262 15.8035 32.6473 19.7645 36.1785C18.8054 33.5224 18.2828 30.659 18.2828 27.674C18.2828 15.7566 26.6134 5.77627 37.7933 3.19001Z" fill="#F8DB46"/>
<path d="M31.4493 40.5796C42.1908 40.5796 50.8985 31.9433 50.8985 21.2898C50.8985 10.6363 42.1908 2 31.4493 2C20.7079 2 12.0002 10.6363 12.0002 21.2898C12.0002 31.9433 20.7079 40.5796 31.4493 40.5796Z" stroke="#353535" stroke-width="3.542"/>
<path fill-rule="evenodd" clip-rule="evenodd" d="M31.6975 48.5756C29.6754 47.9646 27.5296 47.636 25.3065 47.636C13.1926 47.636 3.37231 57.3941 3.37231 69.4312V80.7318H14.6046C13.7663 78.2303 13.3124 75.5538 13.3124 72.7718C13.3124 61.2578 21.0885 51.552 31.6975 48.5756Z" fill="#F8DB46"/>
<path d="M60.3833 75.685V81.0007H1.82965V75.685C1.82965 59.5158 14.9373 46.4081 31.1065 46.4081C47.2757 46.4081 60.3833 59.5158 60.3833 75.685Z" stroke="#353535" stroke-width="3.542"/>
<path d="M58.841 98.6257L54.3468 100.709L50.7663 97.2657L45.8453 97.7635L43.5666 93.3331L38.7521 92.1911L38.0221 87.254L33.8359 84.5961L34.7337 79.6872L31.6293 75.8013L34.0577 71.4527L32.3716 66.7599L36.0673 63.4428L35.9822 58.4517L40.5448 56.5255L42.07 51.777L47.005 51.4504L49.9751 47.459L54.7478 48.7675L58.841 45.9658L62.9342 48.7675L67.7069 47.459L70.677 51.4504L75.612 51.777L77.1372 56.5255L81.6998 58.4517L81.6147 63.4428L85.3104 66.7599L83.6243 71.4527L86.0527 75.8013L82.9483 79.6872L83.8461 84.5961L79.6599 87.254L78.9299 92.1911L74.1154 93.3331L71.8367 97.7635L66.9157 97.2657L63.3352 100.709L58.841 98.6257Z" fill="#FFD500"/>
<path d="M49.9733 75.6373L56.3761 82.0315L69.301 70.1321" stroke="#353535" stroke-width="4.8552" stroke-linecap="round"/>
</svg>
